<svg xmlns="http://www.w3.org/2000/svg" xmlns:xlink="http://www.w3.org/1999/xlink" width="80" height="80" viewBox="0 0 80 80">
  <defs>
    <clipPath id="clip-cate_icon_it-monitors_w">
      <rect width="80" height="80"/>
    </clipPath>
  </defs>
  <g id="cate_icon_it-monitors_w" clip-path="url(#clip-cate_icon_it-monitors_w)">
    <g id="그룹_144" data-name="그룹 144" transform="translate(-136.23)">
      <path id="패스_120" data-name="패스 120" d="M205.73,14h-58a4.5,4.5,0,0,0-4.5,4.5v32a4.5,4.5,0,0,0,4.5,4.5h27.5v5.3l-12.813,2.728a1.5,1.5,0,0,0,.625,2.935l13.774-2.933,13.6,2.932a1.5,1.5,0,0,0,.633-2.933L178.23,60.27V55h27.5a4.505,4.505,0,0,0,4.5-4.5v-32A4.5,4.5,0,0,0,205.73,14Zm1.5,36.5a1.5,1.5,0,0,1-1.5,1.5h-58a1.5,1.5,0,0,1-1.5-1.5v-32a1.5,1.5,0,0,1,1.5-1.5h58a1.5,1.5,0,0,1,1.5,1.5Z" fill="#fff"/>
      <path id="패스_121" data-name="패스 121" d="M181.229,46.5h-9a1.5,1.5,0,0,0,0,3h9a1.5,1.5,0,0,0,0-3Z" fill="#fff"/>
    </g>
  </g>
</svg>
