<svg xmlns="http://www.w3.org/2000/svg" width="80" height="80" viewBox="0 0 80 80">
  <defs>
    <style>
      .cls-1 {
        opacity: 0;
      }

      .cls-2 {
        fill: #fff;
        fill-rule: evenodd;
      }
    </style>
  </defs>
  <g id="cate_icon_mobile_w">
    <rect id="icon_area" class="cls-1" width="80" height="80"/>
    <path class="cls-2" d="M757.5,121h-26a4.505,4.505,0,0,0-4.5,4.5v50a4.505,4.505,0,0,0,4.5,4.5h26a4.505,4.505,0,0,0,4.5-4.5v-50A4.505,4.505,0,0,0,757.5,121Zm1.5,54.5a1.5,1.5,0,0,1-1.5,1.5h-26a1.5,1.5,0,0,1-1.5-1.5v-50a1.5,1.5,0,0,1,1.5-1.5h26a1.5,1.5,0,0,1,1.5,1.5v50Zm-14.5-44a2,2,0,1,0-2-2A2,2,0,0,0,744.5,131.5Zm3.5,39h-7a1.5,1.5,0,0,0,0,3h7A1.5,1.5,0,0,0,748,170.5Z" transform="translate(-704 -110)"/>
  </g>
</svg>
