<svg xmlns="http://www.w3.org/2000/svg" width="80" height="80" viewBox="0 0 80 80">
  <defs>
    <style>
      .cls-1 {
        opacity: 0;
      }

      .cls-2 {
        fill: #fff;
        fill-rule: evenodd;
      }
    </style>
  </defs>
  <g id="cate_icon_tv-projector_w">
    <rect id="icon_area" class="cls-1" width="80" height="80"/>
    <path class="cls-2" d="M188.125,129.893A2.953,2.953,0,0,0,186,129H128a2.948,2.948,0,0,0-2.116.885,3.019,3.019,0,0,0-.884,2.149v30.337a3.015,3.015,0,0,0,.874,2.139A2.96,2.96,0,0,0,128,165.4h5.585l-4.554,3.9a1.527,1.527,0,0,0-.176,2.137,1.488,1.488,0,0,0,2.114.178l7.087-6.067a1.614,1.614,0,0,0,.14-0.147H152a2.011,2.011,0,0,0,2,2.023h6a2.011,2.011,0,0,0,2-2.023h13.891a1.66,1.66,0,0,0,.142.149l7.115,6.067a1.489,1.489,0,0,0,2.114-.182,1.528,1.528,0,0,0-.18-2.137l-4.57-3.9H186a2.951,2.951,0,0,0,2.116-.884,3.023,3.023,0,0,0,.884-2.149V132.032A3.008,3.008,0,0,0,188.125,129.893ZM186,162.369H128V132.032h58v30.337Z" transform="translate(-117 -110)"/>
  </g>
</svg>
