<svg xmlns="http://www.w3.org/2000/svg" width="80" height="80" viewBox="0 0 80 80">
  <defs>
    <style>
      .cls-1 {
        opacity: 0;
      }

      .cls-2 {
        fill: #fff;
        fill-rule: evenodd;
      }
    </style>
  </defs>
  <g id="cate_icon_vacuum-cleaners_w">
    <rect id="icon_area" class="cls-1" width="80" height="80"/>
    <path class="cls-2" d="M406.5,65h-9.465V44.911A3.488,3.488,0,0,0,398,42.5V36.6a11.5,11.5,0,0,0,0-20.2V12.5a5.5,5.5,0,1,0-11,0v3.9a11.5,11.5,0,0,0,0,20.2v5.9a3.49,3.49,0,0,0,.981,2.428V65H378.5a1.5,1.5,0,0,0-1.5,1.5v6a1.5,1.5,0,0,0,1.5,1.5h28a1.5,1.5,0,0,0,1.5-1.5v-6A1.5,1.5,0,0,0,406.5,65Zm-16.341,3h6.728L395,71H388.27ZM394.5,43h-4a0.5,0.5,0,0,1-.5-0.5V38h5v4.5A0.5,0.5,0,0,1,394.5,43ZM384,26.5a8.507,8.507,0,0,1,5.1-7.794,1.5,1.5,0,0,0,.9-1.374V12.5a2.5,2.5,0,1,1,5,0v4.833a1.5,1.5,0,0,0,.9,1.375A8.5,8.5,0,1,1,384,26.5ZM390.981,46h3.054V65h-3.054V46ZM380,68h6.38l-1.89,3H380V68Zm25,3h-6.223l1.89-3H405v3Zm-5.463-44.5a7,7,0,1,0-7,7A7.008,7.008,0,0,0,399.537,26.5Zm-11,0a4,4,0,1,1,4,4A4,4,0,0,1,388.537,26.5Z" transform="translate(-352)"/>
  </g>
</svg>
