<svg id="img_AirCleaner_64" xmlns="http://www.w3.org/2000/svg" width="64" height="64" viewBox="0 0 64 64">
  <g id="Circle_64">
    <g id="Rectangle" fill="none" stroke="#000" stroke-miterlimit="10" stroke-width="1.5">
      <rect width="64" height="64" rx="32" stroke="none"/>
      <rect x="0.75" y="0.75" width="62.5" height="62.5" rx="31.25" fill="none"/>
    </g>
  </g>
  <g id="img_AirCleaner_40" transform="translate(22 13)">
    <g id="ic" transform="translate(1 1)">
      <path id="Path_114" data-name="Path 114" d="M3.412,36.754c0-.158-2.314-4.842-2.314-4.842H18.725l-2.051,4.842Z" transform="translate(-1 -1)" fill="#5b7d83"/>
      <path id="Path_115" data-name="Path 115" d="M2.867,13.461l2.078-.566h11.33l1.039.566.66,2.455,1.039,15.391v.85H1.168Z" transform="translate(-1 -1)" fill="#5b7d83"/>
      <path id="Rectangle-2" data-name="Rectangle" d="M3.872,13H16.128a1.725,1.725,0,0,1,1.721,1.611L19,32H1L2.151,14.611A1.725,1.725,0,0,1,3.872,13ZM10,0a7,7,0,0,1,3.606,13h2.522a1.725,1.725,0,0,1,1.721,1.611L19,32H1L2.151,14.611A1.725,1.725,0,0,1,3.872,13H6.394A7,7,0,0,1,10,0Z" transform="translate(-1 -1)" fill="#ddd" stroke="#000" stroke-linejoin="round" stroke-width="1.5" fill-rule="evenodd"/>
      <path id="Oval" d="M10,10A3,3,0,1,0,7,7,3,3,0,0,0,10,10Z" transform="translate(-1 -1)" fill="#333" stroke="#000" stroke-linejoin="round" stroke-width="1.5" fill-rule="evenodd"/>
      <path id="Rectangle-3" data-name="Rectangle" d="M1,32H19l-2.25,5H3.25Z" transform="translate(-1 -1)" fill="none" stroke="#000" stroke-linecap="round" stroke-linejoin="round" stroke-width="1.5" fill-rule="evenodd"/>
      <line id="Path" x2="16" transform="translate(1.35 22.4)" fill="none" stroke="#000" stroke-linecap="round" stroke-linejoin="round" stroke-width="1.5"/>
      <line id="Path-2" data-name="Path" x2="20" transform="translate(-1 36)" fill="none" stroke="#000" stroke-linecap="round" stroke-linejoin="round" stroke-width="1.5"/>
    </g>
  </g>
</svg>
