<svg xmlns="http://www.w3.org/2000/svg" width="64" height="64" viewBox="0 0 64 64">
    <g fill="none" fill-rule="evenodd">
        <g stroke="#000" stroke-width="1.5">
            <g>
                <g>
                    <g>
                        <g transform="translate(-405 -3629) translate(128 414) translate(0 3215) translate(277)">
                            <rect width="62.5" height="62.5" x=".75" y=".75" rx="31.25"/>
                        </g>
                        <g stroke-linecap="round">
                            <g>
                                <path stroke-linejoin="round" d="M1.5 0h17c.828 0 1.5.672 1.5 1.5v31c0 .828-.672 1.5-1.5 1.5h-17C.672 34 0 33.328 0 32.5v-31C0 .672.672 0 1.5 0z" transform="translate(-405 -3629) translate(128 414) translate(0 3215) translate(277) translate(22 15)"/>
                                <path stroke-linejoin="round" d="M12.805 4L16.805 4 16.805 15 12.805 15zM3.305 11L7.305 11 7.305 15 3.305 15z" transform="translate(-405 -3629) translate(128 414) translate(0 3215) translate(277) translate(22 15)"/>
                                <g>
                                    <path d="M0 19.385L20 19.385M10.305 33.5L10 0" transform="translate(-405 -3629) translate(128 414) translate(0 3215) translate(277) translate(22 15)"/>
                                </g>
                            </g>
                        </g>
                    </g>
                </g>
            </g>
        </g>
    </g>
</svg>
