<svg xmlns="http://www.w3.org/2000/svg" width="64" height="64" viewBox="0 0 64 64">
  <g id="그룹_4" data-name="그룹 4" transform="translate(1141.621 -566.066)">
    <rect id="사각형_1" data-name="사각형 1" width="64" height="64" transform="translate(-1141.621 566.066)" fill="none"/>
    <path id="패스_1" data-name="패스 1" d="M-1109.621,567.566a30.557,30.557,0,0,1,30.5,30.5,30.557,30.557,0,0,1-30.5,30.5,30.557,30.557,0,0,1-30.5-30.5,30.557,30.557,0,0,1,30.5-30.5m0-1.5a31.966,31.966,0,0,0-32,32,31.966,31.966,0,0,0,32,32,31.966,31.966,0,0,0,32-32A31.966,31.966,0,0,0-1109.621,566.066Z"/>
    <g id="그룹_3" data-name="그룹 3">
      <g id="그룹_2" data-name="그룹 2">
        <g id="그룹_1" data-name="그룹 1">
          <line id="선_1" data-name="선 1" y2="2.6" transform="translate(-1109.59 581.142)" fill="none" stroke="#000" stroke-linecap="round" stroke-miterlimit="10" stroke-width="1.5"/>
          <line id="선_2" data-name="선 2" x2="2.6" transform="translate(-1124.448 596.633)" fill="none" stroke="#000" stroke-linecap="round" stroke-miterlimit="10" stroke-width="1.5"/>
          <line id="선_3" data-name="선 3" x2="2.6" transform="translate(-1097.393 596.633)" fill="none" stroke="#000" stroke-linecap="round" stroke-miterlimit="10" stroke-width="1.5"/>
          <line id="선_4" data-name="선 4" y1="1.673" x2="1.991" transform="translate(-1099.309 585.777)" fill="none" stroke="#000" stroke-linecap="round" stroke-miterlimit="10" stroke-width="1.5"/>
          <line id="선_5" data-name="선 5" y1="1.673" x2="1.991" transform="translate(-1121.411 604.889)" fill="none" stroke="#000" stroke-linecap="round" stroke-miterlimit="10" stroke-width="1.5"/>
          <line id="선_6" data-name="선 6" x2="2.005" y2="1.655" transform="translate(-1121.18 585.785)" fill="none" stroke="#000" stroke-linecap="round" stroke-miterlimit="10" stroke-width="1.5"/>
          <line id="선_7" data-name="선 7" x2="2.005" y2="1.655" transform="translate(-1099.54 604.725)" fill="none" stroke="#000" stroke-linecap="round" stroke-miterlimit="10" stroke-width="1.5"/>
        </g>
        <path id="패스_2" data-name="패스 2" d="M-1100.7,595.84a8.825,8.825,0,0,0-8.826-8.826,8.825,8.825,0,0,0-8.826,8.826,8.78,8.78,0,0,0,2.685,6.327,8.482,8.482,0,0,1,1.751,3.742l-.042,1.514a1.3,1.3,0,0,0,1.31,1.309h6.161a1.3,1.3,0,0,0,1.309-1.309l.042-1.431a8.485,8.485,0,0,1,1.8-3.874A8.781,8.781,0,0,0-1100.7,595.84Z" fill="none" stroke="#000" stroke-linecap="round" stroke-linejoin="round" stroke-width="1.5"/>
      </g>
      <path id="패스_3" data-name="패스 3" d="M-1107.629,590.9c-.168.03-5.9,6.743-5.9,6.743l2.968.382-1.02,5.6,5.873-7.052-3.03-.732Z" fill="none" stroke="#000" stroke-linecap="round" stroke-linejoin="round" stroke-width="1.5"/>
      <path id="패스_4" data-name="패스 4" d="M-1113.409,612.065v1.925a.945.945,0,0,0,1,1h5.577a1.075,1.075,0,0,0,1-1v-1.925Z" fill="none" stroke="#000" stroke-miterlimit="10" stroke-width="1.5"/>
    </g>
  </g>
</svg>
