<svg xmlns="http://www.w3.org/2000/svg" width="64" height="64" viewBox="0 0 64 64">
    <g fill="none" fill-rule="evenodd">
        <g>
            <g>
                <g>
                    <g>
                        <g stroke="#000" stroke-width="1.5" transform="translate(-128 -4155) translate(128 414) translate(0 3741)">
                            <rect width="62.5" height="62.5" x=".75" y=".75" rx="31.25"/>
                        </g>
                        <g>
                            <g transform="translate(-128 -4155) translate(128 414) translate(0 3741) translate(12 12) translate(8 2)">
                                <g transform="translate(12 1)">
                                    <path fill="#000" d="M0 0H11V18H0z"/>
                                    <rect width="7" height="12" x="2" y="3" fill="#444" stroke="#000" stroke-width="1.5" rx="1.5"/>
                                </g>
                                <path fill="#E1D0B6" d="M1 19H12V35H1zM12 19H23V35H12z"/>
                                <path fill="#5B7D83" d="M1 1H12V18H1z"/>
                                <path stroke="#000" stroke-width="1.5" d="M22.5.75h-21c-.207 0-.395.084-.53.22-.136.135-.22.323-.22.53v33c0 .207.084.395.22.53.135.136.323.22.53.22h21c.207 0 .395-.084.53-.22.136-.135.22-.323.22-.53v-33c0-.207-.084-.395-.22-.53-.135-.136-.323-.22-.53-.22z"/>
                                <rect width="24" height="1.5" y="18" fill="#000" rx=".75"/>
                                <path stroke="#000" stroke-linecap="round" stroke-width="1.5" d="M12 1L12 35"/>
                            </g>
                        </g>
                    </g>
                </g>
            </g>
        </g>
    </g>
</svg>
