<svg xmlns="http://www.w3.org/2000/svg" width="64" height="64" viewBox="0 0 64 64">
    <g fill="none" fill-rule="evenodd">
        <g stroke="#000" stroke-width="1.5">
            <g>
                <g>
                    <g>
                        <g transform="translate(-467 -3557) translate(128 414) translate(0 3143) translate(339)">
                            <rect width="62.5" height="62.5" x=".75" y=".75" rx="31.25"/>
                        </g>
                        <g stroke-linecap="round">
                            <g>
                                <path fill="#EDCEC9" stroke-linejoin="round" d="M1.5 0h17c.828 0 1.5.672 1.5 1.5v31c0 .828-.672 1.5-1.5 1.5h-17C.672 34 0 33.328 0 32.5v-31C0 .672.672 0 1.5 0z" transform="translate(-467 -3557) translate(128 414) translate(0 3143) translate(339) translate(12 12) translate(10 3)"/>
                                <path d="M3 13L3 21" transform="translate(-467 -3557) translate(128 414) translate(0 3143) translate(339) translate(12 12) translate(10 3)"/>
                            </g>
                        </g>
                    </g>
                </g>
            </g>
        </g>
    </g>
</svg>
