<svg xmlns="http://www.w3.org/2000/svg" width="64" height="64" viewBox="0 0 64 64">
    <g fill="none" fill-rule="evenodd">
        <g stroke="#000" stroke-width="1.5">
            <g>
                <g>
                    <g>
                        <g transform="translate(-128 -3661) translate(128 414) translate(0 3143) translate(0 104)">
                            <rect width="62.5" height="62.5" x=".75" y=".75" rx="31.25"/>
                        </g>
                        <g>
                            <g transform="translate(-128 -3661) translate(128 414) translate(0 3143) translate(0 104) translate(12 12) translate(10 3)">
                                <path fill="#EDCEC9" d="M0 17h20v15.5c0 .828-.672 1.5-1.5 1.5h-17C.672 34 0 33.328 0 32.5V17h0z"/>
                                <path fill="#5B7D83" d="M1.5 0h17c.828 0 1.5.672 1.5 1.5V17h0H0V1.5C0 .672.672 0 1.5 0z"/>
                                <circle cx="10" cy="8.5" r="4" fill="#333"/>
                                <circle cx="10" cy="25.5" r="4" fill="#333"/>
                            </g>
                        </g>
                    </g>
                </g>
            </g>
        </g>
    </g>
</svg>
