<svg xmlns="http://www.w3.org/2000/svg" width="64" height="64" viewBox="0 0 64 64">
    <g fill="none" fill-rule="evenodd">
        <g stroke="#000" stroke-width="1.5">
            <g>
                <g>
                    <g>
                        <g transform="translate(-705 -3629) translate(128 414) translate(0 3215) translate(577)">
                            <rect width="62.5" height="62.5" x=".75" y=".75" rx="31.25"/>
                        </g>
                        <g stroke-linejoin="round">
                            <g>
                                <g>
                                    <path stroke-linecap="round" d="M2.53 0h20.55c.953 0 1.725.772 1.725 1.725v30.55c0 .953-.772 1.725-1.725 1.725H2.53c-.952 0-1.725-.772-1.725-1.725V1.725C.805.772 1.578 0 2.53 0z" transform="translate(-705 -3629) translate(128 414) translate(0 3215) translate(577) translate(19 15)"/>
                                    <path d="M.805 24.5h24" transform="translate(-705 -3629) translate(128 414) translate(0 3215) translate(577) translate(19 15)"/>
                                </g>
                                <g stroke-linecap="round" transform="translate(-705 -3629) translate(128 414) translate(0 3215) translate(577) translate(19 15) translate(4 3)">
                                    <circle cx="8.805" cy="8" r="8"/>
                                    <circle cx="8.805" cy="4" r="2"/>
                                </g>
                            </g>
                        </g>
                    </g>
                </g>
            </g>
        </g>
    </g>
</svg>
