<svg xmlns="http://www.w3.org/2000/svg" width="64" height="64" viewBox="0 0 64 64">
    <g fill="none" fill-rule="evenodd">
        <g stroke="#000" stroke-width="1.5">
            <g>
                <g>
                    <g>
                        <g transform="translate(-128 -819) translate(128 414) translate(0 404) translate(0 1)">
                            <rect width="62.5" height="62.5" x=".75" y=".75" rx="31.25"/>
                        </g>
                        <g stroke-linecap="round" stroke-linejoin="round">
                            <g>
                                <path d="M5.5 0h27c.828 0 1.5.672 1.5 1.5V19h0H4V1.5C4 .672 4.672 0 5.5 0zM1.776 19h34.448c.54 0 .978.437.978.977 0 .185-.053.367-.152.523l-.508.803c-.275.434-.754.697-1.268.697H2.726c-.514 0-.993-.263-1.268-.697L.95 20.5c-.289-.456-.153-1.06.303-1.348.156-.1.337-.152.523-.152z" transform="translate(-128 -819) translate(128 414) translate(0 404) translate(0 1) translate(12 12) translate(1 9)"/>
                            </g>
                        </g>
                    </g>
                </g>
            </g>
        </g>
    </g>
</svg>
