<?xml version="1.0" encoding="utf-8"?>
<!-- Generator: Adobe Illustrator 25.2.1, SVG Export Plug-In . SVG Version: 6.00 Build 0)  -->
<svg version="1.1" id="레이어_1" xmlns="http://www.w3.org/2000/svg" xmlns:xlink="http://www.w3.org/1999/xlink" x="0px"
	 y="0px" viewBox="0 0 64.1 64.1" style="enable-background:new 0 0 64.1 64.1;" xml:space="preserve">
<style type="text/css">
	.st0{fill:none;stroke:#000000;stroke-width:1.5;}
	.st1{fill:#EEE6DA;stroke:#000000;stroke-width:1.5;stroke-linejoin:round;}
	.st2{fill:#EEE6DA;stroke:#000000;stroke-width:1.5;stroke-linecap:round;stroke-linejoin:round;}
</style>
<g>
	<path class="st0" d="M32,0.8L32,0.8c17.3,0,31.3,14,31.3,31.3l0,0l0,0c0,17.3-14,31.3-31.3,31.3l0,0l0,0c-17.3,0-31.3-14-31.3-31.3
		l0,0l0,0C0.7,14.8,14.7,0.8,32,0.8C32,0.7,32,0.7,32,0.8z"/>
	<g>
		<polygon class="st1" points="36.3,11.3 33.6,11.3 33.6,30.9 30.5,30.9 30.5,11.3 27.8,11.3 24.8,52.8 39.3,52.8 		"/>
		<path class="st2" d="M26.3,37.1h11.5"/>
		<g>
			<path class="st2" d="M28.6,37.4v14.7"/>
			<path class="st2" d="M32,37.4v14.7"/>
			<path class="st2" d="M35.5,37.4v14.7"/>
		</g>
	</g>
</g>
</svg>
