<svg xmlns="http://www.w3.org/2000/svg" width="64" height="64" viewBox="0 0 64 64">
    <g fill="none" fill-rule="evenodd">
        <g stroke="#000" stroke-width="1.5">
            <g>
                <g>
                    <g>
                        <g transform="translate(-824 -3557) translate(128 414) translate(0 3143) translate(696)">
                            <rect width="62.5" height="62.5" x=".75" y=".75" rx="31.25"/>
                        </g>
                        <g stroke-linecap="round" stroke-linejoin="round">
                            <g>
                                <path fill="#A1835F" d="M1.5 0h15c.828 0 1.5.672 1.5 1.5V19h0H0V1.5C0 .672.672 0 1.5 0z" transform="translate(-824 -3557) translate(128 414) translate(0 3143) translate(696) translate(12 12) translate(11 3)"/>
                                <path fill="#F2D9B9" d="M0 18L18 18 18 26 0 26zM0 26h18v6.5c0 .828-.672 1.5-1.5 1.5h-15C.672 34 0 33.328 0 32.5V26h0z" transform="translate(-824 -3557) translate(128 414) translate(0 3143) translate(696) translate(12 12) translate(11 3)"/>
                            </g>
                        </g>
                    </g>
                </g>
            </g>
        </g>
    </g>
</svg>
