<svg id="레이어_1" data-name="레이어 1" xmlns="http://www.w3.org/2000/svg" viewBox="0 0 64.1 64.1">
  <defs>
    <style>
      .cls-1, .cls-2, .cls-3 {
        fill: none;
        stroke: #000;
        stroke-width: 1.5px;
      }

      .cls-2, .cls-3 {
        stroke-linejoin: round;
      }

      .cls-3 {
        stroke-linecap: round;
      }
    </style>
  </defs>
  <g>
    <path class="cls-1" d="M32,.7h0A31.28,31.28,0,0,1,63.3,32h0A31.28,31.28,0,0,1,32,63.3h0A31.28,31.28,0,0,1,.7,32h0A31.28,31.28,0,0,1,32,.7Z" transform="translate(0.05 0.05)"/>
    <g>
      <polygon class="cls-2" points="36.26 11.25 33.63 11.25 33.63 30.91 30.47 30.91 30.47 11.25 27.84 11.25 24.84 52.85 39.26 52.85 36.26 11.25"/>
      <path class="cls-3" d="M26.25,37.1h11.5" transform="translate(0.05 0.05)"/>
      <g>
        <path class="cls-3" d="M28.6,37.35V52.07" transform="translate(0.05 0.05)"/>
        <path class="cls-3" d="M32,37.35V52.07" transform="translate(0.05 0.05)"/>
        <path class="cls-3" d="M35.4,37.35V52.07" transform="translate(0.05 0.05)"/>
      </g>
    </g>
  </g>
</svg>
