<?xml version="1.0" encoding="utf-8"?>
<!-- Generator: Adobe Illustrator 25.2.3, SVG Export Plug-In . SVG Version: 6.00 Build 0)  -->
<svg version="1.1" id="Layer_1" xmlns="http://www.w3.org/2000/svg" xmlns:xlink="http://www.w3.org/1999/xlink" x="0px" y="0px"
	 viewBox="0 0 64 64" style="enable-background:new 0 0 64 64;" xml:space="preserve">
<style type="text/css">
	.st0{fill:none;stroke:#000000;stroke-width:1.5;}
	.st1{fill:#EEE6DA;}
	.st2{fill:none;stroke:#000000;stroke-width:1.5;stroke-linecap:round;stroke-linejoin:round;}
	.st3{fill-rule:evenodd;clip-rule:evenodd;}
</style>
<g>
	<g>
		<g>
			<g>
				<g>
					<g transform="translate(-128 -414) translate(128 414)">
						<path class="st0" d="M32,0.8L32,0.8c17.3,0,31.3,14,31.3,31.3l0,0c0,17.3-14,31.3-31.3,31.3l0,0c-17.3,0-31.3-14-31.3-31.3
							l0,0C0.8,14.7,14.7,0.8,32,0.8z"/>
					</g>
					<g>
						<g>
							<path class="st1" d="M16.5,21.8h31c0.8,0,1.5,0.7,1.5,1.5v15c0,0.8-0.7,1.5-1.5,1.5h-31c-0.8,0-1.5-0.7-1.5-1.5v-15
								C15,22.4,15.7,21.8,16.5,21.8z"/>
							<g transform="translate(-128 -414) translate(128 414) translate(12 12) translate(3 9) translate(2 19)">
								<path class="st2" d="M3.3,0L0,2"/>
								<path class="st2" d="M30,2l-3.4-2"/>
								<path class="st3" d="M12.8,0h4.5C17.7,0,18,0.3,18,0.8l0,0c0,0.4-0.3,0.8-0.8,0.8h-4.5c-0.4,0-0.8-0.3-0.8-0.8l0,0
									C12,0.3,12.3,0,12.8,0z"/>
							</g>
							<path class="st0" d="M16.5,21.8h31c0.8,0,1.5,0.7,1.5,1.5v15c0,0.8-0.7,1.5-1.5,1.5h-31c-0.8,0-1.5-0.7-1.5-1.5v-15
								C15,22.4,15.7,21.8,16.5,21.8z"/>
						</g>
					</g>
				</g>
			</g>
		</g>
	</g>
</g>
</svg>
