<svg xmlns="http://www.w3.org/2000/svg" width="64" height="64" viewBox="0 0 64 64">
    <g fill="none" fill-rule="evenodd">
        <g stroke="#000" stroke-width="1.5">
            <g>
                <g>
                    <g>
                        <g transform="translate(-824 -3661) translate(128 414) translate(0 3143) translate(696 104)">
                            <rect width="62.5" height="62.5" x=".75" y=".75" rx="31.25"/>
                        </g>
                        <g>
                            <g>
                                <path fill="#DDD" stroke-linecap="round" stroke-linejoin="round" d="M2 0h30c1.105 0 2 .895 2 2v19.275c0 .953-.772 1.725-1.725 1.725H1.725C.772 23 0 22.228 0 21.275V2C0 .895.895 0 2 0z" transform="translate(-824 -3661) translate(128 414) translate(0 3143) translate(696 104) translate(12 12) translate(3 8.5)"/>
                                <path fill="#333" d="M5.725 8h22.55C29.228 8 30 8.772 30 9.725v7.55c0 .953-.772 1.725-1.725 1.725H5.725C4.772 19 4 18.228 4 17.275v-7.55C4 8.772 4.772 8 5.725 8z" transform="translate(-824 -3661) translate(128 414) translate(0 3143) translate(696 104) translate(12 12) translate(3 8.5)"/>
                                <path stroke-linecap="round" d="M13 4.5L21 4.5" transform="translate(-824 -3661) translate(128 414) translate(0 3143) translate(696 104) translate(12 12) translate(3 8.5)"/>
                            </g>
                        </g>
                    </g>
                </g>
            </g>
        </g>
    </g>
</svg>
