<svg xmlns="http://www.w3.org/2000/svg" width="65" height="64" viewBox="0 0 65 64">
    <g fill="none" fill-rule="evenodd">
        <g>
            <g>
                <g>
                    <g>
                        <g stroke="#000" stroke-width="1.5" transform="translate(-128 -1328) translate(128 414) translate(0 809) translate(.195 105)">
                            <rect width="62.5" height="62.5" x=".75" y=".75" rx="31.25"/>
                        </g>
                        <g>
                            <g>
                                <g stroke="#000" stroke-linecap="round" stroke-width="1.5">
                                    <path stroke-linejoin="round" d="M1.5 0h25c.828 0 1.5.672 1.5 1.5v27c0 .828-.672 1.5-1.5 1.5h-25C.672 30 0 29.328 0 28.5v-27C0 .672.672 0 1.5 0z" transform="translate(-128 -1328) translate(128 414) translate(0 809) translate(.195 105) translate(12 12) translate(6 5)"/>
                                    <path d="M0 3.5h28M0 9.5h28M0 26.5h28" transform="translate(-128 -1328) translate(128 414) translate(0 809) translate(.195 105) translate(12 12) translate(6 5)"/>
                                </g>
                                <g fill="#000" fill-rule="nonzero">
                                    <path d="M1 0C.448 0 0 .448 0 1s.448 1 1 1 1-.448 1-1-.448-1-1-1zM4 0c-.552 0-1 .448-1 1s.448 1 1 1 1-.448 1-1-.448-1-1-1zM7 0c-.552 0-1 .448-1 1s.448 1 1 1 1-.448 1-1-.448-1-1-1z" transform="translate(-128 -1328) translate(128 414) translate(0 809) translate(.195 105) translate(12 12) translate(6 5) translate(10 5.5)"/>
                                </g>
                            </g>
                        </g>
                    </g>
                </g>
            </g>
        </g>
    </g>
</svg>
