<svg xmlns="http://www.w3.org/2000/svg" width="64" height="64" viewBox="0 0 64 64">
    <g fill="none" fill-rule="evenodd">
        <g stroke="#000" stroke-width="1.5">
            <g>
                <g>
                    <g>
                        <g transform="translate(-405 -3153) translate(128 414) translate(0 2739) translate(277)">
                            <rect width="62.5" height="62.5" x=".75" y=".75" rx="31.25"/>
                        </g>
                        <g>
                            <g>
                                <path d="M.806 24.595c.05.16 6.574 5.496 21.37 2.136 9.442-2.144 14.051-6.716 13.828-13.716-.173-9.11-5.67-13.438-16.49-12.982C3.287.715-1.697 16.757.807 24.595z" transform="translate(-405 -3153) translate(128 414) translate(0 2739) translate(277) translate(12 12) translate(2 4)"/>
                                <path stroke-linecap="round" d="M36.004 13.489v7.858c0 .17-.022.34-.065.505-.946 3.63-4.847 6.405-11.7 8.324-6.76 1.892-13.67 1.587-20.73-.915-.525-.186-.949-.583-1.169-1.096l-1.534-3.57h0M27.719 19.85c1.698-.656 3.294-1.99 4.786-4.001" transform="translate(-405 -3153) translate(128 414) translate(0 2739) translate(277) translate(12 12) translate(2 4)"/>
                            </g>
                        </g>
                    </g>
                </g>
            </g>
        </g>
    </g>
</svg>
