<svg xmlns="http://www.w3.org/2000/svg" width="64" height="64" viewBox="0 0 64 64">
    <g fill="none" fill-rule="evenodd">
        <g>
            <g>
                <g>
                    <g>
                        <g stroke="#000" stroke-width="1.5" transform="translate(-128 -2749) translate(128 414) translate(0 2335)">
                            <rect width="62.5" height="62.5" x=".75" y=".75" rx="31.25"/>
                        </g>
                        <g>
                            <g transform="translate(-128 -2749) translate(128 414) translate(0 2335) translate(12 12) translate(12 5)">
                                <path stroke="#000" stroke-linecap="round" stroke-linejoin="round" stroke-width="1.5" d="M1.5 0h13c.828 0 1.5.672 1.5 1.5v27c0 .828-.672 1.5-1.5 1.5h-13C.672 30 0 29.328 0 28.5v-27C0 .672.672 0 1.5 0z"/>
                                <path fill="#000" fill-rule="nonzero" d="M8 3.5c-.552 0-1 .448-1 1s.448 1 1 1 1-.448 1-1-.448-1-1-1z"/>
                                <rect width="5" height="1.5" x="5.5" y="26" fill="#000" rx=".75"/>
                            </g>
                        </g>
                    </g>
                </g>
            </g>
        </g>
    </g>
</svg>
