<svg xmlns="http://www.w3.org/2000/svg" width="64" height="64" viewBox="0 0 64 64"><defs><style>.cls-1{fill:#5b7d83;}.cls-2{fill:#333;}.cls-3,.cls-4{fill:none;stroke:#000;stroke-width:1.5px;}.cls-4{stroke-linecap:round;stroke-linejoin:round;}.cls-5{fill-rule:evenodd;}</style></defs><g id="Layer_4" data-name="Layer 4"><rect class="cls-1" x="19.26" y="15" width="25.49" height="33.5"/></g><g id="Layer_3" data-name="Layer 3"><circle class="cls-2" cx="32" cy="36.5" r="6.72"/></g><g id="Layer_1" data-name="Layer 1"><path class="cls-3" d="M32.2.75h0A31.25,31.25,0,0,1,63.45,32h0A31.25,31.25,0,0,1,32.2,63.25h0A31.25,31.25,0,0,1,1,32H1A31.25,31.25,0,0,1,32.2.75Z" transform="translate(-0.2)"/><path class="cls-4" d="M20.92,15H43.47a1.73,1.73,0,0,1,1.73,1.73V47.27A1.73,1.73,0,0,1,43.47,49H20.92a1.72,1.72,0,0,1-1.72-1.72V16.73A1.72,1.72,0,0,1,20.92,15Zm-.72,9.5h24" transform="translate(-0.2)"/><path class="cls-5" d="M37,19h4.5a.76.76,0,0,1,.75.75h0a.76.76,0,0,1-.75.75H37a.75.75,0,0,1-.75-.75h0A.75.75,0,0,1,37,19Z" transform="translate(-0.2)"/><path class="cls-5" d="M23,19h4.5a.76.76,0,0,1,.75.75h0a.76.76,0,0,1-.75.75H23a.75.75,0,0,1-.75-.75h0A.75.75,0,0,1,23,19Z" transform="translate(-0.2)"/><path d="M32.2,18a1.5,1.5,0,1,0,1.5,1.5A1.5,1.5,0,0,0,32.2,18Z" transform="translate(-0.2)"/><circle class="cls-4" cx="32" cy="36.5" r="7.5"/><path d="M37.42,34l1.28-1.74L37.7,31,36,33.2a1.08,1.08,0,0,0-.25.71V38.1a1.19,1.19,0,0,0,.25.72L37.7,41l1-1.25-1.24-1.53a1.19,1.19,0,0,1-.25-.73V34.67a1.09,1.09,0,0,1,.22-.68Z" transform="translate(-0.2)"/></g></svg>