<svg xmlns="http://www.w3.org/2000/svg" id="img_TV_AV_64" width="64" height="64" viewBox="0 0 64 64">
    <defs>
        <style>
            .cls-1,.cls-4,.cls-5{fill:none}.cls-4{stroke-miterlimit:10}.cls-4,.cls-5{stroke-width:1.5px}.cls-3{fill:#0a0607}.cls-4,.cls-5{stroke:#0a0607;stroke-linecap:round}.cls-5{stroke-linejoin:round}
        </style>
    </defs>
    <path id="Rectangle" d="M0 0H64V64H0z" class="cls-1" transform="translate(0 0)"/>
    <g id="REMOTE_CONTROLLER_64" transform="translate(1166.3 -1284.695)">
        <path id="Rectangle-94" d="M0 0H40V40H0z" class="cls-1" transform="translate(-1154.3 1296.695)"/>
        <g id="circle_128-7">
            <path id="Path_49" d="M-1134.3 1284.695a32 32 0 0 1 32 32 32 32 0 0 1-32 32 32 32 0 0 1-32-32 32 32 0 0 1 32-32z" class="cls-1"/>
            <path id="Path_50" fill="none" stroke="#070203" stroke-miterlimit="10" stroke-width="1.5px" d="M-1134.3 1285.445a31.25 31.25 0 0 1 31.25 31.25 31.25 31.25 0 0 1-31.25 31.25 31.25 31.25 0 0 1-31.25-31.25 31.25 31.25 0 0 1 31.25-31.25z"/>
        </g>
        <g id="img-7">
            <g id="그룹_133">
                <g id="key">
                    <g id="Group_6">
                        <g id="Group_7">
                            <path id="Path-78" d="M-1133.4 1310.389h-1.293a.446.446 0 0 0-.45.442v1.307a.444.444 0 0 0 .446.444h1.294a.446.446 0 0 0 .447-.444v-1.3a.445.445 0 0 0-.444-.449z" class="cls-3"/>
                            <path id="Path-79" d="M-1129.579 1310.389h-1.285a.45.45 0 0 0-.45.446v1.3a.449.449 0 0 0 .45.446h1.286a.45.45 0 0 0 .45-.446v-1.3a.449.449 0 0 0-.451-.446z" class="cls-3"/>
                            <path id="Path-80" d="M-1137.233 1310.389h-1.287a.45.45 0 0 0-.45.446v1.3a.45.45 0 0 0 .45.446h1.288a.45.45 0 0 0 .45-.446v-1.3a.443.443 0 0 0-.44-.446h-.011z" class="cls-3"/>
                        </g>
                        <g id="Group_7-2">
                            <path id="Path-81" d="M-1133.4 1307.1h-1.293a.449.449 0 0 0-.45.444v1.306a.445.445 0 0 0 .446.444h1.294a.447.447 0 0 0 .447-.444v-1.306a.446.446 0 0 0-.444-.444z" class="cls-3"/>
                            <path id="Path-82" d="M-1129.579 1307.1h-1.285a.449.449 0 0 0-.45.447v1.3a.449.449 0 0 0 .45.446h1.286a.45.45 0 0 0 .45-.446v-1.3a.45.45 0 0 0-.451-.447z" class="cls-3"/>
                            <path id="Path-83" d="M-1137.233 1307.1h-1.287a.45.45 0 0 0-.45.447v1.3a.45.45 0 0 0 .45.446h1.288a.45.45 0 0 0 .45-.446v-1.3a.442.442 0 0 0-.439-.446h-.012z" class="cls-3"/>
                        </g>
                        <g id="Group_7-3">
                            <path id="Path-84" d="M-1133.4 1313.679h-1.293a.449.449 0 0 0-.45.444v1.3a.444.444 0 0 0 .446.444h1.294a.446.446 0 0 0 .447-.444v-1.3a.446.446 0 0 0-.444-.444z" class="cls-3"/>
                            <path id="Path-85" d="M-1129.579 1313.679h-1.285a.449.449 0 0 0-.45.446v1.3a.45.45 0 0 0 .45.446h1.286a.45.45 0 0 0 .45-.446v-1.3a.449.449 0 0 0-.451-.446z" class="cls-3"/>
                            <path id="Path-86" d="M-1137.233 1313.679h-1.287a.45.45 0 0 0-.45.446v1.3a.45.45 0 0 0 .45.446h1.288a.446.446 0 0 0 .45-.443v-1.3a.444.444 0 0 0-.44-.447h-.011z" class="cls-3"/>
                        </g>
                    </g>
                </g>
                <g id="power">
                    <path id="Stroke_3-20-6" d="M-1131.922 1303.793h2.291" class="cls-4"/>
                    <path id="Stroke_3-20-7" d="M-1138.468 1303.793h2.29" class="cls-4"/>
                </g>
                <path id="패스_35" d="M-1126.94 1299.695h-14.219a1.62 1.62 0 0 0-1.641 1.6v23.882a8.638 8.638 0 0 0 8.751 8.52 8.639 8.639 0 0 0 8.75-8.522v-23.88a1.62 1.62 0 0 0-1.641-1.6z" class="cls-5"/>
                <g id="arrow">
                    <path id="Path-77" d="M-1134.049 1323.719a1.1 1.1 0 0 0-1.094 1.1 1.1 1.1 0 0 0 1.094 1.1 1.1 1.1 0 0 0 1.094-1.1 1.1 1.1 0 0 0-1.094-1.1z" class="cls-3"/>
                    <g id="그룹_131">
                        <g id="그룹_127">
                            <g id="그룹_125">
                                <path id="패스_36" d="M-1135.231 1321.216l1.181-1.185 1.181 1.185" class="cls-5"/>
                            </g>
                            <g id="그룹_126">
                                <path id="패스_37" d="M-1132.869 1328.416l-1.18 1.184-1.181-1.184" class="cls-5"/>
                            </g>
                        </g>
                        <g id="그룹_130">
                            <g id="그룹_128">
                                <path id="패스_38" d="M-1137.64 1326l-1.182-1.184 1.182-1.185" class="cls-5"/>
                            </g>
                            <g id="그룹_129">
                                <path id="패스_39" d="M-1130.46 1323.631l1.182 1.185-1.182 1.184" class="cls-5"/>
                            </g>
                        </g>
                    </g>
                </g>
            </g>
        </g>
    </g>
</svg>
