<svg id="그룹_7" data-name="그룹 7" xmlns="http://www.w3.org/2000/svg" width="166.548" height="24.755" viewBox="0 0 166.548 24.755">
  <g id="그룹_1" data-name="그룹 1">
    <path id="패스_1" data-name="패스 1" d="M123.184,10.706l.079,1.082a6.338,6.338,0,0,1,1.48-.859,7.383,7.383,0,0,1,2.72-.539,5.591,5.591,0,0,1,2.138.334,2.962,2.962,0,0,1,1.255.955l.078.109a5.779,5.779,0,0,1,1.624-.859,10.026,10.026,0,0,1,1.494-.412,7.845,7.845,0,0,1,1.409-.127,5.872,5.872,0,0,1,2.14.334,3.085,3.085,0,0,1,1.336.983,3.988,3.988,0,0,1,.675,1.567,10.957,10.957,0,0,1,.182,2.091v8.919h-3.039v-8.27c0-.466-.02-.9-.054-1.291a2.823,2.823,0,0,0-.27-1.022,1.534,1.534,0,0,0-.634-.673,2.25,2.25,0,0,0-1.15-.248,4.784,4.784,0,0,0-1.514.232,4.857,4.857,0,0,0-1.227.6l-.3.22a14.023,14.023,0,0,1,.08,1.528v8.919h-3.015v-8.27c0-.466-.021-.9-.051-1.291a3.172,3.172,0,0,0-.256-1.022,1.5,1.5,0,0,0-.637-.673,2.338,2.338,0,0,0-1.162-.248,4.675,4.675,0,0,0-1.5.232,4.845,4.845,0,0,0-1.208.6l-.222.138V24.284h-3.016V14.321l-.241-3.615Z" fill="#fff"/>
    <path id="패스_2" data-name="패스 2" d="M142.5,4.969h3.079V7.693H142.5Zm.029,5.737h3.014V24.284h-3.014Z" fill="#fff"/>
    <path id="패스_3" data-name="패스 3" d="M151.156,10.706l.106,1.082a7.523,7.523,0,0,1,.792-.488,6.864,6.864,0,0,1,.908-.371,8.724,8.724,0,0,1,2.907-.539,6.224,6.224,0,0,1,2.21.334,3.137,3.137,0,0,1,1.353.967,3.6,3.6,0,0,1,.691,1.564,10.814,10.814,0,0,1,.188,2.11v8.919H157.3v-8.27a8.738,8.738,0,0,0-.086-1.291,2.673,2.673,0,0,0-.318-1.022,1.675,1.675,0,0,0-.7-.673,2.541,2.541,0,0,0-1.206-.248,5.125,5.125,0,0,0-1.574.232,4.526,4.526,0,0,0-1.252.6l-.541.344V24.284H148.6V14.321l-.241-3.615Z" fill="#fff"/>
    <path id="패스_4" data-name="패스 4" d="M163.479,4.969h3.069V7.693h-3.069Zm.029,5.737h3.011V24.284h-3.011Z" fill="#fff"/>
  </g>
  <g id="그룹_6" data-name="그룹 6">
    <g id="그룹_5" data-name="그룹 5">
      <g id="그룹_2" data-name="그룹 2">
        <path id="패스_5" data-name="패스 5" d="M58.28,24.431H54.809a5.687,5.687,0,0,1-4.238-1.546,5.949,5.949,0,0,1-1.53-4.374V1.17h3.434V6.561h7.238L58.205,9.577h-5.73v9.049q0,2.75,2.522,2.751h4.827Z" fill="#fff"/>
        <path id="패스_6" data-name="패스 6" d="M67.234,0V3.093H63.8V0Zm0,6.561v17.87H63.8V6.561Z" fill="#fff"/>
        <path id="패스_7" data-name="패스 7" d="M74.807,0V3.093H71.376V0Zm0,6.561v17.87H71.376V6.561Z" fill="#fff"/>
        <path id="패스_8" data-name="패스 8" d="M84.658,24.431a6.59,6.59,0,0,1-2.6-.475,5.272,5.272,0,0,1-1.9-1.315,5.743,5.743,0,0,1-1.168-1.983,7.308,7.308,0,0,1-.4-2.448V6.561h3.471V18.25a3.4,3.4,0,0,0,.716,2.276,2.505,2.505,0,0,0,2.035.851h5.655V6.561h3.464v17.87Z" fill="#fff"/>
        <path id="패스_9" data-name="패스 9" d="M107.1,6.561a6.109,6.109,0,0,1,4.3,1.562,6.093,6.093,0,0,1,1.731,4.62V24.431H109.7v-11.8a3.124,3.124,0,0,0-.833-2.3,3.257,3.257,0,0,0-1.962-.711h-5.694V24.431H97.82V6.561Z" fill="#fff"/>
      </g>
      <g id="그룹_4" data-name="그룹 4">
        <g id="그룹_3" data-name="그룹 3">
          <path id="패스_10" data-name="패스 10" d="M26.98,15.981h4.162v3.888a11.915,11.915,0,0,1-3.683.577c-4.614,0-6.148-2.333-6.148-7.092,0-4.529,1.462-7.2,6.086-7.2A5.872,5.872,0,0,1,32.612,8.5L35.787,5.57C33.854,2.784,30.45,1.942,27.28,1.942c-7.169,0-10.941,3.918-10.941,11.373,0,7.42,3.4,11.44,10.9,11.44,3.439,0,6.794-.858,8.618-2.161V11.867H26.98Z" fill="#fff"/>
          <path id="패스_11" data-name="패스 11" d="M5.128,2.272H0V24.427H15.728V20.12H5.128Z" fill="#fff"/>
          <path id="패스_12" data-name="패스 12" d="M5.128,2.272H0V24.427H15.728V20.12H5.128Z" fill="#fff"/>
        </g>
      </g>
    </g>
  </g>
</svg>
