<svg xmlns="http://www.w3.org/2000/svg" width="259.802" height="50.032" viewBox="0 0 259.802 50.032">
  <g id="그룹_22" data-name="그룹 22" transform="translate(-1.173)">
    <g id="그룹_9" data-name="그룹 9">
      <g id="그룹_8" data-name="그룹 8">
        <g id="그룹_6" data-name="그룹 6">
          <g id="그룹_5" data-name="그룹 5">
            <g id="그룹_2" data-name="그룹 2">
              <g id="그룹_1" data-name="그룹 1">
                <path id="패스_1" data-name="패스 1" d="M28,13.961h4.141v3.863a12.192,12.192,0,0,1-3.671.573c-4.572,0-6.1-2.329-6.1-7.056,0-4.506,1.448-7.158,6.031-7.158a5.9,5.9,0,0,1,5.2,2.323L36.757,3.6C34.837.845,31.461,0,28.293,0,21.155,0,17.422,3.891,17.422,11.313c0,7.37,3.382,11.374,10.836,11.374,3.409,0,6.752-.873,8.569-2.145V9.853H28Z" fill="#fff"/>
                <path id="패스_2" data-name="패스 2" d="M6.271.329h-5.1V22.354H16.8V18.073H6.271Z" fill="#fff"/>
              </g>
            </g>
            <g id="그룹_4" data-name="그룹 4">
              <path id="패스_3" data-name="패스 3" d="M111.445,11.322c0-4.619,3.145-7.8,7.582-7.8h5.454l1.631-3.2h-7.384A10.7,10.7,0,0,0,107.8,11.322a10.779,10.779,0,0,0,10.927,11h5.753l1.631-3.173-7.074-.014a7.586,7.586,0,0,1-7.593-7.817" fill="#fff"/>
              <path id="패스_4" data-name="패스 4" d="M137.707,5.591h-6.381l-1.5,2.943h7.714c2.069,0,3.275,1.211,3.275,2.986v.845h-7.027c-3.619,0-5.493,2.333-5.493,5s1.882,4.99,5.493,4.99h10.318V11.745c0-3.586-2.315-6.154-6.4-6.154m3.108,13.834H133.81a2.065,2.065,0,0,1-2.215-2.113,2.03,2.03,0,0,1,2.28-2.046h6.94Z" fill="#fff"/>
              <path id="패스_5" data-name="패스 5" d="M157.624,5.614h-4.489a5.728,5.728,0,0,0-5.966,6.028V22.354h3.3V11.539a2.769,2.769,0,0,1,2.854-2.995h2.8Z" fill="#fff"/>
              <path id="패스_6" data-name="패스 6" d="M172.677,19.425h-6.963a4.572,4.572,0,0,1-4.824-3.718h13.229V14.191c0-4.7-2.1-8.647-8.247-8.647-5.826,0-8.5,3.774-8.5,8.4,0,4.68,2.706,8.407,8.178,8.407h5.741ZM165.859,8.511c3.019,0,4.552,1.53,4.907,4.271h-10c.407-2.793,2.128-4.271,5.09-4.271" fill="#fff"/>
              <g id="그룹_3" data-name="그룹 3">
                <rect id="사각형_1" data-name="사각형 1" width="3.285" height="2.925" transform="translate(100.548 0.329)" fill="#fff"/>
                <rect id="사각형_2" data-name="사각형 2" width="3.285" height="16.777" transform="translate(100.548 5.577)" fill="#fff"/>
                <path id="패스_7" data-name="패스 7" d="M75.93,22.354h9.153V5.614h-3.3V19.425H76.111a2.766,2.766,0,0,1-2.848-3V5.614H69.97V16.322a5.716,5.716,0,0,0,5.96,6.032" fill="#fff"/>
                <path id="패스_8" data-name="패스 8" d="M98.571,5.614H94.082a5.72,5.72,0,0,0-5.96,6.028V22.354h3.3V11.539a2.759,2.759,0,0,1,2.843-2.995h2.807Z" fill="#fff"/>
                <path id="패스_9" data-name="패스 9" d="M60.38.329H50.052V22.354h3.476V14.322H60.3c5.045,0,7.36-2.812,7.36-7C67.656,2.957,65.141.329,60.38.329Zm-.157,10.843H53.528V3.516h6.695c2.627,0,3.926,1.469,3.926,3.835C64.149,9.694,62.892,11.172,60.223,11.172Z" fill="#fff"/>
              </g>
            </g>
          </g>
        </g>
        <g id="그룹_7" data-name="그룹 7">
          <path id="패스_10" data-name="패스 10" d="M189.2,11.515h-1.521a5.665,5.665,0,0,1-.388,1.54,4,4,0,0,1-.778,1.22,3.284,3.284,0,0,1-1.167.8,4.085,4.085,0,0,1-1.593.286A3.973,3.973,0,0,1,181.982,15a3.213,3.213,0,0,1-1.236-1.01,4.287,4.287,0,0,1-.72-1.5,7,7,0,0,1-.241-1.873,6.707,6.707,0,0,1,.241-1.84,4.379,4.379,0,0,1,.72-1.5,3.374,3.374,0,0,1,1.236-1.018,3.973,3.973,0,0,1,1.771-.366,4.134,4.134,0,0,1,1.6.291A3.366,3.366,0,0,1,186.532,7,3.86,3.86,0,0,1,187.3,8.22a5.99,5.99,0,0,1,.379,1.525H189.2V5.135h1.971V18.472c0,.5-.02,1.033-.058,1.6s-.1,1.093-.173,1.549H189.2ZM183.772,13.7a1.63,1.63,0,0,0,1.4-.709,4.158,4.158,0,0,0,.5-2.347,4.125,4.125,0,0,0-.493-2.324,1.626,1.626,0,0,0-1.4-.694,1.655,1.655,0,0,0-1.414.694,4.056,4.056,0,0,0-.5,2.324,4.063,4.063,0,0,0,.513,2.347A1.649,1.649,0,0,0,183.772,13.7Zm8.877-8.821h2.029v13.9c0,.268,0,.554-.02.864s-.025.615-.045.92-.044.6-.077.882-.073.536-.122.77h-1.765Z" fill="#fff"/>
          <path id="패스_11" data-name="패스 11" d="M208.505,11.679h-2.559a5.07,5.07,0,0,1-.484,1.484,4.04,4.04,0,0,1-.929,1.2,4.332,4.332,0,0,1-1.394.8,5.394,5.394,0,0,1-1.876.3,5.3,5.3,0,0,1-2.076-.38,4.144,4.144,0,0,1-1.473-1.038,4.239,4.239,0,0,1-.872-1.507,5.717,5.717,0,0,1-.285-1.807,5.539,5.539,0,0,1,.285-1.77,4.088,4.088,0,0,1,2.345-2.511,5.19,5.19,0,0,1,2.076-.385,5.34,5.34,0,0,1,1.886.31,4.313,4.313,0,0,1,1.4.812,3.99,3.99,0,0,1,.931,1.206,4.874,4.874,0,0,1,.463,1.47h2.559V4.877h2.11v13.98c0,.263-.008.549-.02.85s-.033.6-.058.9-.057.586-.1.854-.076.517-.113.751h-1.823ZM201.3,13.7a2.528,2.528,0,0,0,1.936-.737,3.17,3.17,0,0,0,.681-2.216,3.053,3.053,0,0,0-.681-2.155,2.98,2.98,0,0,0-3.88,0,3,3,0,0,0-.693,2.155,3.116,3.116,0,0,0,.693,2.216A2.546,2.546,0,0,0,201.3,13.7Z" fill="#fff"/>
          <path id="패스_12" data-name="패스 12" d="M215.261,9.313h8.649V7.243h-8.649V5.478H226V8.67a9.076,9.076,0,0,1-.087,1.3,2.842,2.842,0,0,1-.292,1h-8.253V12.8a.388.388,0,0,0,.07.277.31.31,0,0,0,.235.061h8.877v1.732h-4.8v2.507H228.5v1.761H212.872V17.378H219.6V14.871h-3.093c-.833,0-1.25-.441-1.25-1.328Z" fill="#fff"/>
          <path id="패스_13" data-name="패스 13" d="M230.017,5.9h7.91V7.624h-5.784V10.13h5.634v1.685h-5.634v2.507c0,.174.021.287.065.319a.606.606,0,0,0,.335.057H237a10.023,10.023,0,0,0,2.094-.207,6.784,6.784,0,0,0,1.679-.587V4.877h2.107v5.347h2.77v1.765h-2.77v6.868c0,.267-.007.554-.018.854s-.034.606-.056.9-.057.581-.085.849-.069.517-.108.751h-1.84v-6.68a6.312,6.312,0,0,1-1.716.634,10.375,10.375,0,0,1-2.476.258h-4.969a3.146,3.146,0,0,1-.729-.066,1.11,1.11,0,0,1-.494-.239.912.912,0,0,1-.285-.465,2.865,2.865,0,0,1-.086-.765Z" fill="#fff"/>
          <path id="패스_14" data-name="패스 14" d="M255.263,16.942h3.625V14.59a4.984,4.984,0,0,1-1.091.516,9.068,9.068,0,0,1-1.224.324,9.451,9.451,0,0,1-1.252.169c-.417.037-.81.052-1.174.052h-.893v2.976c0,.253-.008.521-.019.8s-.033.568-.067.854-.06.563-.1.831-.064.507-.1.732h-1.824v-6.2h-4.531V13.98h7.077c.429,0,.873-.015,1.327-.038s.907-.075,1.354-.141a9.279,9.279,0,0,0,1.31-.3,6.283,6.283,0,0,0,1.2-.521v-8.1h2.087v13.98q0,.416-.019.859c-.013.3-.033.6-.057.892s-.053.586-.084.854-.068.517-.105.751h-1.822V18.641h-3.625Zm-7.642-8.051a3.994,3.994,0,0,1,.248-1.394,3.1,3.1,0,0,1,.783-1.183,4.138,4.138,0,0,1,1.4-.822,5.962,5.962,0,0,1,2.069-.319,6.151,6.151,0,0,1,2.087.319,4.041,4.041,0,0,1,1.411.822,3.187,3.187,0,0,1,.8,1.183,3.956,3.956,0,0,1,.254,1.394,4.031,4.031,0,0,1-.254,1.422,3.153,3.153,0,0,1-.8,1.2,3.9,3.9,0,0,1-1.411.817,6.548,6.548,0,0,1-2.087.3,6.346,6.346,0,0,1-2.069-.3,3.988,3.988,0,0,1-1.4-.817,3.072,3.072,0,0,1-.783-1.2A4.072,4.072,0,0,1,247.621,8.891Zm2.1,0a2.113,2.113,0,0,0,.617,1.643,3.169,3.169,0,0,0,3.606,0,2.11,2.11,0,0,0,.618-1.643,2.07,2.07,0,0,0-.618-1.6,3.192,3.192,0,0,0-3.606,0A2.073,2.073,0,0,0,249.724,8.891Z" fill="#fff"/>
        </g>
      </g>
    </g>
    <g id="그룹_21" data-name="그룹 21">
      <g id="그룹_20" data-name="그룹 20">
        <g id="그룹_19" data-name="그룹 19">
          <g id="그룹_18" data-name="그룹 18">
            <g id="그룹_17" data-name="그룹 17">
              <g id="그룹_16" data-name="그룹 16">
                <g id="그룹_15" data-name="그룹 15">
                  <g id="그룹_14" data-name="그룹 14">
                    <g id="그룹_13" data-name="그룹 13">
                      <g id="그룹_11" data-name="그룹 11">
                        <g id="그룹_10" data-name="그룹 10">
                          <path id="패스_15" data-name="패스 15" d="M205.991,41.488a4.663,4.663,0,0,0,.2,1.413,2.964,2.964,0,0,0,.6,1.084,2.639,2.639,0,0,0,1.015.695,3.8,3.8,0,0,0,1.417.249h2.446l-.622,1.22h-2.167a4.612,4.612,0,0,1-1.7-.31,3.839,3.839,0,0,1-1.384-.9,4.281,4.281,0,0,1-.939-1.464,5.483,5.483,0,0,1-.336-1.986,5.393,5.393,0,0,1,.328-1.934,4.271,4.271,0,0,1,.915-1.465,3.984,3.984,0,0,1,1.378-.934,4.664,4.664,0,0,1,1.735-.319h2.789l-.622,1.216h-1.824a3.674,3.674,0,0,0-1.393.253,2.816,2.816,0,0,0-1.011.7A2.992,2.992,0,0,0,206.2,40.1,4.444,4.444,0,0,0,205.991,41.488Z" fill="#fff"/>
                          <path id="패스_16" data-name="패스 16" d="M215.581,46.332a3.777,3.777,0,0,1-1.443-.253,2.917,2.917,0,0,1-1.066-.737,3.124,3.124,0,0,1-.67-1.131,4.556,4.556,0,0,1-.226-1.465,4.613,4.613,0,0,1,.226-1.488,2.983,2.983,0,0,1,.67-1.117,2.792,2.792,0,0,1,1.066-.733,3.8,3.8,0,0,1,1.443-.262,3.748,3.748,0,0,1,1.436.262,2.777,2.777,0,0,1,1.068.733,2.994,2.994,0,0,1,.669,1.117,4.452,4.452,0,0,1,.231,1.488,4.368,4.368,0,0,1-.231,1.474,3.149,3.149,0,0,1-.669,1.136,2.979,2.979,0,0,1-1.068.723A3.73,3.73,0,0,1,215.581,46.332Zm0-6.018a1.86,1.86,0,0,0-1.543.658,3.189,3.189,0,0,0,0,3.515,1.844,1.844,0,0,0,1.543.672,1.992,1.992,0,0,0,.888-.193,1.957,1.957,0,0,0,.649-.525,2.336,2.336,0,0,0,.393-.77,2.957,2.957,0,0,0,.143-.925,2.721,2.721,0,0,0-.536-1.774A1.846,1.846,0,0,0,215.581,40.314Z" fill="#fff"/>
                          <path id="패스_17" data-name="패스 17" d="M221.633,46.149c-1.077,0-1.613-.554-1.613-1.671V36.836h1.31v7.642a.594.594,0,0,0,.1.385.365.365,0,0,0,.338.136h.81l-.592,1.15Z" fill="#fff"/>
                          <path id="패스_18" data-name="패스 18" d="M225.149,46.149c-1.066,0-1.608-.554-1.608-1.671V36.836h1.306v7.642a.692.692,0,0,0,.1.385A.4.4,0,0,0,225.3,45h.8l-.59,1.15Z" fill="#fff"/>
                          <path id="패스_19" data-name="패스 19" d="M231.865,46.149H229.57a3.383,3.383,0,0,1-1.4-.277,2.791,2.791,0,0,1-.995-.76,3.167,3.167,0,0,1-.586-1.1,4.65,4.65,0,0,1-.2-1.357,4.773,4.773,0,0,1,.2-1.357,3.123,3.123,0,0,1,.593-1.112,2.885,2.885,0,0,1,1.025-.751,3.468,3.468,0,0,1,1.462-.286,3.618,3.618,0,0,1,1.519.286,2.63,2.63,0,0,1,.984.751,3.051,3.051,0,0,1,.535,1.112,6.141,6.141,0,0,1,.155,1.357v.737h-5.046a1.9,1.9,0,0,0,.59,1.192A1.779,1.779,0,0,0,229.64,45h2.8Zm-2.2-5.82a1.755,1.755,0,0,0-1.384.511,2.164,2.164,0,0,0-.511,1.4h3.724a2.35,2.35,0,0,0-.478-1.4A1.645,1.645,0,0,0,229.665,40.329Z" fill="#fff"/>
                          <path id="패스_20" data-name="패스 20" d="M238.566,46.149h-1.6a3.733,3.733,0,0,1-1.323-.225,2.944,2.944,0,0,1-1.053-.676,3.4,3.4,0,0,1-.694-1.075,3.931,3.931,0,0,1-.252-1.427,3.8,3.8,0,0,1,.26-1.427,3.2,3.2,0,0,1,.715-1.075,2.9,2.9,0,0,1,1.054-.671,3.459,3.459,0,0,1,1.293-.244h2.184l-.584,1.154h-1.5a2.066,2.066,0,0,0-.854.169,1.8,1.8,0,0,0-.657.47,2.117,2.117,0,0,0-.419.713,2.593,2.593,0,0,0-.149.911,2.346,2.346,0,0,0,.545,1.62,1.907,1.907,0,0,0,1.534.633h2.083Z" fill="#fff"/>
                          <path id="패스_21" data-name="패스 21" d="M243.465,46.149h-1.324a2.176,2.176,0,0,1-1.619-.591,2.266,2.266,0,0,1-.578-1.671v-6.6h1.3v2.042h2.756l-.569,1.154h-2.187v3.451c0,.7.323,1.046.965,1.046h1.838Z" fill="#fff"/>
                          <path id="패스_22" data-name="패스 22" d="M246.307,36.836v1.178H245V36.836Zm0,2.493v6.82H245v-6.82Z" fill="#fff"/>
                          <path id="패스_23" data-name="패스 23" d="M250.492,46.332a3.708,3.708,0,0,1-1.433-.253,2.919,2.919,0,0,1-1.073-.737,3.065,3.065,0,0,1-.668-1.131,4.371,4.371,0,0,1-.23-1.465,4.427,4.427,0,0,1,.23-1.488,2.929,2.929,0,0,1,.668-1.117,2.8,2.8,0,0,1,1.073-.733,4.061,4.061,0,0,1,2.87,0,2.838,2.838,0,0,1,1.072.733,2.967,2.967,0,0,1,.668,1.117,4.5,4.5,0,0,1,.228,1.488,4.42,4.42,0,0,1-.228,1.474A3.119,3.119,0,0,1,253,45.356a3.048,3.048,0,0,1-1.072.723A3.735,3.735,0,0,1,250.492,46.332Zm0-6.018a1.857,1.857,0,0,0-1.538.658,3.169,3.169,0,0,0,0,3.515,1.841,1.841,0,0,0,1.538.672,1.975,1.975,0,0,0,.889-.193,1.918,1.918,0,0,0,.649-.525,2.416,2.416,0,0,0,.394-.77,3.173,3.173,0,0,0,.139-.925,2.72,2.72,0,0,0-.533-1.774A1.847,1.847,0,0,0,250.492,40.314Z" fill="#fff"/>
                          <path id="패스_24" data-name="패스 24" d="M258.474,39.329a2.185,2.185,0,0,1,2.291,2.365v4.455H259.46v-4.5a1.177,1.177,0,0,0-.318-.878,1.3,1.3,0,0,0-.743-.281h-2.171v5.656h-1.295v-6.82Z" fill="#fff"/>
                        </g>
                      </g>
                      <g id="그룹_12" data-name="그룹 12">
                        <path id="패스_25" data-name="패스 25" d="M162.832,38.5a9.8,9.8,0,0,1-.507,3.23,7.089,7.089,0,0,1-1.482,2.525,6.649,6.649,0,0,1-2.394,1.639,9.455,9.455,0,0,1-6.483,0,6.652,6.652,0,0,1-2.384-1.634,7.141,7.141,0,0,1-1.465-2.5,10.75,10.75,0,0,1,0-6.525,7.2,7.2,0,0,1,1.465-2.525,6.54,6.54,0,0,1,2.384-1.639,9.328,9.328,0,0,1,6.508,0,6.448,6.448,0,0,1,2.375,1.639,6.985,6.985,0,0,1,1.476,2.525A9.975,9.975,0,0,1,162.832,38.5Zm-7.612,5.915a5.535,5.535,0,0,0,2.108-.394,4.759,4.759,0,0,0,1.651-1.16,5.048,5.048,0,0,0,1.075-1.854,7.663,7.663,0,0,0,.373-2.507,7.921,7.921,0,0,0-.373-2.544,5.193,5.193,0,0,0-1.062-1.864,4.5,4.5,0,0,0-1.653-1.145,6.028,6.028,0,0,0-4.25.014,4.428,4.428,0,0,0-1.638,1.16,5.135,5.135,0,0,0-1.059,1.859,8.587,8.587,0,0,0,0,5.046,5.083,5.083,0,0,0,1.069,1.859,4.646,4.646,0,0,0,1.647,1.145A5.78,5.78,0,0,0,155.22,44.417Z" fill="#fff"/>
                        <path id="패스_26" data-name="패스 26" d="M167.167,30.841v4.108h2.121a5.844,5.844,0,0,1,2.149.385,4.7,4.7,0,0,1,1.693,1.117,5.122,5.122,0,0,1,1.107,1.756,6.186,6.186,0,0,1,.4,2.3,6.311,6.311,0,0,1-.411,2.352,5.093,5.093,0,0,1-1.128,1.751,4.8,4.8,0,0,1-1.7,1.108,5.608,5.608,0,0,1-2.112.4H165V30.841Zm0,13.384h1.955a3.146,3.146,0,0,0,1.392-.291,3.1,3.1,0,0,0,1.049-.8,3.376,3.376,0,0,0,.662-1.188,4.826,4.826,0,0,0,.012-2.868,3.288,3.288,0,0,0-.634-1.174,3.119,3.119,0,0,0-1.053-.779,3.21,3.21,0,0,0-1.428-.3h-1.955Z" fill="#fff"/>
                        <path id="패스_27" data-name="패스 27" d="M177.208,34.949v11.5a2.09,2.09,0,0,1-.325,1.235,1.164,1.164,0,0,1-1.013.46h-.847l-.972,1.892h2.033a3.414,3.414,0,0,0,1.305-.254,3,3,0,0,0,1.042-.709,3.2,3.2,0,0,0,.681-1.117,4.285,4.285,0,0,0,.244-1.507v-11.5Z" fill="#fff"/>
                        <path id="패스_28" data-name="패스 28" d="M190.416,46.112h-3.77a5.377,5.377,0,0,1-2.3-.455,4.538,4.538,0,0,1-1.62-1.24,5.023,5.023,0,0,1-.968-1.812,7.878,7.878,0,0,1,0-4.445,5.038,5.038,0,0,1,.976-1.826,4.645,4.645,0,0,1,1.673-1.235,5.721,5.721,0,0,1,2.4-.455,5.918,5.918,0,0,1,2.487.455,4.153,4.153,0,0,1,1.608,1.235,4.815,4.815,0,0,1,.877,1.826,9.17,9.17,0,0,1,.258,2.23V41.6h-8.269a3.087,3.087,0,0,0,.964,1.948,2.924,2.924,0,0,0,2.029.676h4.593Zm-3.6-9.539a2.918,2.918,0,0,0-2.277.845,3.593,3.593,0,0,0-.834,2.291h6.1a3.759,3.759,0,0,0-.781-2.291A2.714,2.714,0,0,0,186.812,36.573Z" fill="#fff"/>
                        <path id="패스_29" data-name="패스 29" d="M199.642,46.112h-2.17a3.553,3.553,0,0,1-2.642-.958,3.71,3.71,0,0,1-.961-2.732V31.574h2.144v3.375h4.528l-.942,1.882h-3.586v5.652c0,1.15.531,1.718,1.575,1.718h3.027Z" fill="#fff"/>
                        <path id="패스_30" data-name="패스 30" d="M181.762,30.86H179.64l-2.432,2.957h2.119Z" fill="#fff"/>
                      </g>
                    </g>
                  </g>
                  <rect id="사각형_3" data-name="사각형 3" width="89.473" height="0.972" transform="translate(50.052 37.972)" fill="#fff"/>
                </g>
              </g>
            </g>
          </g>
        </g>
      </g>
    </g>
  </g>
</svg>
