<svg xmlns="http://www.w3.org/2000/svg" width="210.426" height="50.642" viewBox="0 0 210.426 50.642">
  <path id="패스_1" data-name="패스 1" d="M77.384,2.314H71.672V24.35h5.712Zm78.364,11.169a6.948,6.948,0,0,0,.364-2.327V7.8h-7.887V9.548h5.7V11.58a3.685,3.685,0,0,1-.326,1.512,4.744,4.744,0,0,1-1.054,1.46,10.823,10.823,0,0,1-1.9,1.471A28.267,28.267,0,0,1,147.8,17.55l.843,1.5c1.418-.678,2.6-1.31,3.561-1.881a11.327,11.327,0,0,0,2.3-1.771A5.411,5.411,0,0,0,155.748,13.483Zm54.5,9.986c.037-.279.07-.561.1-.867s.038-.6.056-.895.021-.594.021-.877V6.687H208.29V24.232h1.844C210.176,24,210.214,23.743,210.25,23.469ZM156.269,41.2a2.835,2.835,0,0,1,1.018-.708,3.593,3.593,0,0,1,1.4-.254h1.832l.625-1.225h-2.805a4.623,4.623,0,0,0-1.735.326,3.926,3.926,0,0,0-1.387.933,4.241,4.241,0,0,0-.919,1.475,5.4,5.4,0,0,0-.329,1.936,5.49,5.49,0,0,0,.336,1.994,4.31,4.31,0,0,0,.944,1.47,3.9,3.9,0,0,0,1.388.914,4.823,4.823,0,0,0,1.7.3h2.18l.625-1.225h-2.457a4.017,4.017,0,0,1-1.423-.24,2.67,2.67,0,0,1-1.018-.708,2.893,2.893,0,0,1-.6-1.083,4.616,4.616,0,0,1-.2-1.424,4.492,4.492,0,0,1,.209-1.39A3.021,3.021,0,0,1,156.269,41.2ZM144.943,24.991c.038-.159.076-.362.116-.6s.073-.489.1-.754.054-.518.068-.783.023-.5.023-.725V17.955H134.77v1.72h8.364v5.316ZM103.322,13.412A11.709,11.709,0,1,0,91.607,25.133,11.694,11.694,0,0,0,103.322,13.412ZM91.607,19.535a6.118,6.118,0,1,1,6.126-6.123A6.113,6.113,0,0,1,91.607,19.535Zm22.848,5.635s10.118.656,10.118-7.092c0-4.157-3.8-5.636-6.633-6.179s-4.482-.871-4.482-.871c-1.859-.381-2.652-1.353-2.652-2.582,0-.67.53-2.215,3.649-2.215,0,0,3.461-.165,3.64,2.5V8.9h5.8V8.728c.043-7.573-9.436-7.1-9.436-7.1C104.3,1.748,105,8.611,105,8.611a6.31,6.31,0,0,0,4.994,6.267c1.707.49,2.748.514,4.465.934,2.229.541,4.307,1.121,4.307,2.5,0,1.165-.758,2.262-4.307,2.262-3.723,0-4.039-1.682-4.019-2.479l-.006-.64h-5.824v.579C104.535,19.727,105.064,25.293,114.455,25.17Zm63.775-1.752c.033-.288.057-.59.074-.9s.036-.613.051-.923.016-.59.016-.845V6.688h-2.053V24.233H178.1A7.236,7.236,0,0,0,178.23,23.418ZM183.88,8.46c.27.037.54.06.814.08s.54.028.8.028h2.243V6.995h-1.994a10.2,10.2,0,0,1-1.594-.133,5.648,5.648,0,0,1-1.4-.386l-.233,1.668a2.862,2.862,0,0,0,.6.193C183.356,8.389,183.613,8.427,183.88,8.46ZM145.254,6.689h-2.12V16.858h2.12Zm38.552,6.352a3.435,3.435,0,0,1-.686,1.159,4.624,4.624,0,0,1-1.2.938,6.911,6.911,0,0,1-1.779.664l.616,1.456a7.753,7.753,0,0,0,2.827-1.108,5.055,5.055,0,0,0,1.762-1.884,4.747,4.747,0,0,0,1.724,1.809,8.148,8.148,0,0,0,2.609,1.032l.75-1.744a5.934,5.934,0,0,1-3.1-1.318,2.985,2.985,0,0,1-1.1-2.282v-.41h3.706V9.661h-9.519v1.692h3.608v.362A4.239,4.239,0,0,1,183.806,13.041ZM134.652,14.92a5.912,5.912,0,0,0,1.733-2.185,5.491,5.491,0,0,0,1.692,2.149,8.857,8.857,0,0,0,2.454,1.338l1.013-1.787a7.743,7.743,0,0,1-1.706-.716,5.83,5.83,0,0,1-1.384-1.08,4.755,4.755,0,0,1-.927-1.451,4.874,4.874,0,0,1-.338-1.847V7.055h-2.128V9.393a8.015,8.015,0,0,1-.2,1.847,4.482,4.482,0,0,1-.659,1.537,4.966,4.966,0,0,1-1.248,1.234,8.9,8.9,0,0,1-1.947,1.022l.727,1.424A9.379,9.379,0,0,0,134.652,14.92Zm47.064,27.46a2.573,2.573,0,0,0-.99-.753,3.56,3.56,0,0,0-1.525-.287,3.432,3.432,0,0,0-1.469.287,2.839,2.839,0,0,0-1.028.753,3.129,3.129,0,0,0-.594,1.113,4.777,4.777,0,0,0-.2,1.372,4.6,4.6,0,0,0,.2,1.352,3.24,3.24,0,0,0,.586,1.113,2.952,2.952,0,0,0,1,.762,3.3,3.3,0,0,0,1.408.274h2.3l.574-1.155h-2.807a1.814,1.814,0,0,1-1.245-.414,1.911,1.911,0,0,1-.59-1.2h5.063v-.734a6.059,6.059,0,0,0-.155-1.372A3.1,3.1,0,0,0,181.716,42.38ZM177.3,44.44a2.184,2.184,0,0,1,.513-1.4,1.77,1.77,0,0,1,1.389-.517,1.667,1.667,0,0,1,1.361.517,2.4,2.4,0,0,1,.474,1.4Zm13.534,1.707V42.682h2.191l.574-1.153h-2.765V39.473h-1.312V46.1a2.26,2.26,0,0,0,.58,1.672,2.167,2.167,0,0,0,1.626.594h1.33l.588-1.169H191.8C191.158,47.2,190.833,46.849,190.833,46.147Zm-5.715-2.829a1.925,1.925,0,0,1,.658-.471,2.174,2.174,0,0,1,.856-.165h1.506l.586-1.153H186.53a3.592,3.592,0,0,0-1.3.235,3,3,0,0,0-1.057.678,3.255,3.255,0,0,0-.719,1.085,3.756,3.756,0,0,0-.26,1.422,3.9,3.9,0,0,0,.253,1.437,3.363,3.363,0,0,0,.695,1.071,2.751,2.751,0,0,0,1.057.678,3.633,3.633,0,0,0,1.327.231h1.608l.586-1.155h-2.092a1.91,1.91,0,0,1-1.538-.63,2.375,2.375,0,0,1-.549-1.632,2.556,2.556,0,0,1,.152-.909A2.2,2.2,0,0,1,185.118,43.318Zm-10.653,3.756a.672.672,0,0,1-.1-.382V39.016h-1.308v7.676c0,1.123.541,1.674,1.615,1.674h.36l.6-1.155h-.81A.4.4,0,0,1,174.465,47.074Zm9.373-27.087h8.351v5h1.821c.042-.159.079-.362.121-.6s.071-.489.1-.754.059-.518.076-.783.026-.5.026-.725V18.262h-10.5Zm18.64-6.895a4.753,4.753,0,0,1-1.06,1.46,10.937,10.937,0,0,1-1.9,1.471,28.317,28.317,0,0,1-2.84,1.527l.839,1.5c1.421-.678,2.614-1.31,3.563-1.881a11.146,11.146,0,0,0,2.3-1.771,5.375,5.375,0,0,0,1.242-1.914,6.9,6.9,0,0,0,.362-2.327V7.8H197.1V9.548h5.7V11.58A3.736,3.736,0,0,1,202.478,13.092Zm-43.066,11.14h1.84q.063-.353.118-.763c.036-.279.071-.561.1-.867s.044-.6.056-.895.021-.594.021-.877V6.687h-2.131Zm15.068-.6c.035-.24.065-.5.093-.777s.046-.565.067-.849.037-.561.049-.824.02-.514.02-.731V6.957H172.7v4.4h-2.483v1.781H172.7V23.629Zm17.709-11.375h-2.973v1.785h2.973v3.219h2.147V6.687h-2.147Zm-20.166,4.434a5.182,5.182,0,0,1-2.644-2.286,8.313,8.313,0,0,1-.775-3.855V7.563h-2.073v2.984a17.374,17.374,0,0,1-.13,2.233,6.65,6.65,0,0,1-.509,1.8,5.144,5.144,0,0,1-1.018,1.442,6.672,6.672,0,0,1-1.661,1.178c.141.249.274.481.412.712.134.25.27.5.411.754a8.174,8.174,0,0,0,2.332-1.7,7.016,7.016,0,0,0,1.374-2.21,6.274,6.274,0,0,0,1.275,2.149,8,8,0,0,0,1.929,1.573Zm-4.446,25.65a2.892,2.892,0,0,0-1.073-.74,3.847,3.847,0,0,0-1.44-.258,3.888,3.888,0,0,0-1.447.258,2.946,2.946,0,0,0-1.074.74,3.014,3.014,0,0,0-.67,1.123,4.624,4.624,0,0,0-.231,1.489,4.563,4.563,0,0,0,.231,1.475,3.19,3.19,0,0,0,.67,1.135,2.986,2.986,0,0,0,1.074.736,3.809,3.809,0,0,0,1.447.258,3.769,3.769,0,0,0,1.44-.258,3.026,3.026,0,0,0,1.073-.722,3.168,3.168,0,0,0,.672-1.141,4.388,4.388,0,0,0,.231-1.483,4.465,4.465,0,0,0-.231-1.489A3.018,3.018,0,0,0,167.577,42.338ZM167,45.882a2.254,2.254,0,0,1-.4.768,1.881,1.881,0,0,1-.65.533,2.058,2.058,0,0,1-.891.193,1.862,1.862,0,0,1-1.548-.673,3.2,3.2,0,0,1,0-3.53,2.137,2.137,0,0,1,3.089,0,2.714,2.714,0,0,1,.538,1.777A3.008,3.008,0,0,1,167,45.882Zm3.938,1.192a.573.573,0,0,1-.1-.382V39.016h-1.315v7.676c0,1.123.54,1.674,1.621,1.674h.356l.593-1.155h-.811A.365.365,0,0,1,170.938,47.074ZM194.6,48.365h1.311V41.527H194.6Zm0-8.166h1.311V39.015H194.6Zm15.161,1.932a2.308,2.308,0,0,0-1.635-.6h-3.557v6.837h1.3V42.691h2.181a1.3,1.3,0,0,1,.745.288,1.172,1.172,0,0,1,.32.877v4.509h1.311V43.894A2.315,2.315,0,0,0,209.76,42.131Zm-7.132.207a2.953,2.953,0,0,0-1.076-.74,4.148,4.148,0,0,0-2.88,0,2.973,2.973,0,0,0-1.079.74,3.054,3.054,0,0,0-.67,1.123,4.517,4.517,0,0,0-.23,1.489,4.458,4.458,0,0,0,.23,1.475,3.234,3.234,0,0,0,.67,1.135,3.014,3.014,0,0,0,1.079.736,4.148,4.148,0,0,0,2.88,0,3.093,3.093,0,0,0,1.076-.722,3.2,3.2,0,0,0,.673-1.141,4.466,4.466,0,0,0,.228-1.483,4.544,4.544,0,0,0-.228-1.489A3.046,3.046,0,0,0,202.628,42.338Zm-.578,3.544a2.326,2.326,0,0,1-.394.768,1.847,1.847,0,0,1-.653.533,2.05,2.05,0,0,1-.892.193,1.865,1.865,0,0,1-1.545-.673,3.184,3.184,0,0,1,0-3.53,2.138,2.138,0,0,1,3.09,0,2.741,2.741,0,0,1,.535,1.777A3.13,3.13,0,0,1,202.05,45.882Zm-61.755-7.366a4.145,4.145,0,0,0-1.615-1.239,6.026,6.026,0,0,0-2.5-.457,5.832,5.832,0,0,0-2.412.457,4.57,4.57,0,0,0-1.68,1.239,4.942,4.942,0,0,0-.98,1.834,7.562,7.562,0,0,0-.319,2.239,7.414,7.414,0,0,0,.319,2.219,4.948,4.948,0,0,0,.974,1.819,4.432,4.432,0,0,0,1.622,1.24,5.356,5.356,0,0,0,2.309.466H139.8l.946-1.9h-4.61a2.938,2.938,0,0,1-2.036-.683,3.083,3.083,0,0,1-.969-1.961h8.3v-1.2a9.217,9.217,0,0,0-.26-2.239A4.781,4.781,0,0,0,140.295,38.516ZM133.059,41.9a3.59,3.59,0,0,1,.836-2.3,2.924,2.924,0,0,1,2.286-.857,2.714,2.714,0,0,1,2.221.857,3.762,3.762,0,0,1,.785,2.3Zm12.361,2.79V39.011h3.6l.948-1.885H145.42V33.738h-2.154V44.625a3.745,3.745,0,0,0,.965,2.747,3.584,3.584,0,0,0,2.651.961h2.18l.977-1.918H147C145.952,46.415,145.42,45.84,145.42,44.69Zm-18.878,3.973a2.116,2.116,0,0,1-.327,1.244,1.17,1.17,0,0,1-1.018.462h-.85l-.978,1.894h2.043a3.31,3.31,0,0,0,1.31-.25,3.065,3.065,0,0,0,1.048-.712,3.253,3.253,0,0,0,.681-1.121,4.319,4.319,0,0,0,.244-1.517V37.126h-2.153Zm-2.581-5.952a6.287,6.287,0,0,0-.4-2.319,5.179,5.179,0,0,0-1.115-1.758,4.636,4.636,0,0,0-1.7-1.125,5.955,5.955,0,0,0-2.155-.382h-2.132V33.008h-2.174v15.33h4.306a5.737,5.737,0,0,0,2.12-.4,4.877,4.877,0,0,0,1.7-1.107,5.228,5.228,0,0,0,1.137-1.763A6.356,6.356,0,0,0,123.961,42.711Zm-2.425,1.438a3.365,3.365,0,0,1-.662,1.191,3.1,3.1,0,0,1-2.453,1.1h-1.963V39.012h1.963a3.123,3.123,0,0,1,3.128,2.262,4.6,4.6,0,0,1,.214,1.437A4.532,4.532,0,0,1,121.536,44.149Zm-11.417-9.27a6.482,6.482,0,0,0-2.385-1.65,9.415,9.415,0,0,0-6.534,0,6.55,6.55,0,0,0-2.394,1.65,7.112,7.112,0,0,0-1.471,2.539,10.757,10.757,0,0,0,0,6.546,7.181,7.181,0,0,0,1.471,2.511,6.614,6.614,0,0,0,2.394,1.641,8.807,8.807,0,0,0,3.27.57,8.672,8.672,0,0,0,3.236-.57,6.7,6.7,0,0,0,2.406-1.641,7.173,7.173,0,0,0,1.488-2.539,9.882,9.882,0,0,0,.507-3.242,10.018,10.018,0,0,0-.507-3.276A6.959,6.959,0,0,0,110.119,34.879Zm-.8,8.332a5.043,5.043,0,0,1-1.078,1.861,4.68,4.68,0,0,1-1.66,1.159,5.463,5.463,0,0,1-2.111.4,5.647,5.647,0,0,1-2.124-.386,4.582,4.582,0,0,1-1.651-1.141,5.216,5.216,0,0,1-1.077-1.871,8.667,8.667,0,0,1,0-5.07,5.31,5.31,0,0,1,1.063-1.867,4.43,4.43,0,0,1,1.647-1.159,5.615,5.615,0,0,1,2.142-.4,5.555,5.555,0,0,1,2.124.382,4.451,4.451,0,0,1,1.658,1.155,5.1,5.1,0,0,1,1.067,1.861,7.946,7.946,0,0,1,.378,2.559A7.691,7.691,0,0,1,109.319,43.211Zm21.793-10.194h-2.131l-2.439,2.974h2.126ZM49,41.137H88.71v-.976H49ZM69.491,13.319A11.037,11.037,0,0,0,58.464,2.314H49V24.35h9.468A11.048,11.048,0,0,0,69.491,13.319ZM54.7,20.1V6.575h2.217a6.607,6.607,0,0,1,6.566,6.744A6.627,6.627,0,0,1,56.921,20.1ZM26.9,15.948h4.153v3.865a12.061,12.061,0,0,1-3.679.584c-4.584,0-6.122-2.352-6.122-7.079C21.25,8.8,22.7,6.137,27.3,6.137a5.9,5.9,0,0,1,5.216,2.342l3.165-2.917c-1.926-2.763-5.307-3.62-8.485-3.62-7.157,0-10.9,3.9-10.9,11.344,0,7.394,3.389,11.4,10.865,11.4,3.423,0,6.772-.877,8.6-2.153V11.825H26.9ZM5.113,2.272H0V24.356H15.671V20.062H5.113Z" transform="translate(0 -1.621)" fill="#fff"/>
</svg>
