<svg id="그룹_1" data-name="그룹 1" xmlns="http://www.w3.org/2000/svg" width="116.2" height="28.8" viewBox="0 0 116.2 28.8">
  <path id="패스_1" data-name="패스 1" d="M5.1.3H0V22.5H15.7V18.2H5.1Z" fill="#fff"/>
  <path id="패스_2" data-name="패스 2" d="M26.9,14h4.2v3.9a11.876,11.876,0,0,1-3.7.6c-4.6,0-6.1-2.3-6.1-7.1,0-4.5,1.5-7.2,6.1-7.2a5.885,5.885,0,0,1,5.2,2.3l3.2-2.9C33.8.8,30.4,0,27.2,0,20,0,16.3,3.9,16.3,11.4c0,7.4,3.4,11.4,10.9,11.4,3.4,0,6.8-.9,8.6-2.2V9.9H26.9Z" fill="#fff"/>
  <path id="패스_3" data-name="패스 3" d="M52.1,26.2h4.2a3.667,3.667,0,0,0,2.7-.9,3.667,3.667,0,0,0,.9-2.7v-.2H56.2a7.609,7.609,0,0,1-3.4-.5,7.992,7.992,0,0,1-2.7-1.8,9.247,9.247,0,0,1-1.7-2.9,11.224,11.224,0,0,1-.6-3.8c0-2.9.7-5.1,2.2-6.7a7.988,7.988,0,0,1,6.2-2.4h6.4V22.4A6.485,6.485,0,0,1,61,27.2a6.054,6.054,0,0,1-4.5,1.6H50.8Zm4-19.3A5.2,5.2,0,0,0,52,8.6a7.421,7.421,0,0,0-1.4,4.8A7.421,7.421,0,0,0,52,18.2a4.781,4.781,0,0,0,3.9,1.7h3.8V6.9Z" fill="#fff"/>
  <path id="패스_4" data-name="패스 4" d="M65.6,22.5V10.8A7.457,7.457,0,0,1,66,8.2a5.613,5.613,0,0,1,1.2-2,4.968,4.968,0,0,1,1.9-1.3,6.436,6.436,0,0,1,2.4-.5h4.2L74.4,7H71.7a2.965,2.965,0,0,0-2.4,1,4.1,4.1,0,0,0-.9,2.8V22.6H65.6Z" fill="#fff"/>
  <path id="패스_5" data-name="패스 5" d="M81.3,22.5a6.175,6.175,0,0,1-2.5-.5,4.344,4.344,0,0,1-1.7-1.2,5.854,5.854,0,0,1-1-1.7,6.167,6.167,0,0,1,0-3.8,4.248,4.248,0,0,1,1-1.7,4.345,4.345,0,0,1,1.7-1.2,6.175,6.175,0,0,1,2.5-.5h7.3V10.5a4,4,0,0,0-.9-2.7,3.573,3.573,0,0,0-2.6-.9H77.8l1.3-2.6h6A6.738,6.738,0,0,1,90,5.9a6.144,6.144,0,0,1,1.6,4.6V22.4H81.3Zm.1-8.1a2.263,2.263,0,0,0-2,.9,2.929,2.929,0,0,0,0,3.8,2.263,2.263,0,0,0,2,.9h7.3V14.5H81.4Z" fill="#fff"/>
  <path id="패스_6" data-name="패스 6" d="M113.2,22.5V10.1c0-2.1-1-3.2-3-3.2h-3.6V22.5h-2.8V6.9H97.3V22.5H94.5V4.4h16.1a5.867,5.867,0,0,1,2.3.4A5.675,5.675,0,0,1,114.7,6a4.185,4.185,0,0,1,1.1,1.8,5.867,5.867,0,0,1,.4,2.3V22.5Z" fill="#fff"/>
</svg>
