<svg id="img_bestshop_MO_128" xmlns="http://www.w3.org/2000/svg" width="128" height="128" viewBox="0 0 128 128">
  <rect id="Rectangle" width="128" height="128" fill="none"/>
  <g id="ic" transform="translate(16 18)">
    <path id="Rectangle-2" data-name="Rectangle" d="M32.8,68H63.2a4,4,0,0,1,4,4V92H28.8V72A4,4,0,0,1,32.8,68Z" fill="none" stroke="#000" stroke-linecap="round" stroke-linejoin="round" stroke-width="4" fill-rule="evenodd"/>
    <path id="Path" d="M0,24.005,46.211.895a4,4,0,0,1,3.578,0l44,22A4,4,0,0,1,96,26.477V92H2a2,2,0,0,1-2-2V24.005Z" fill="none" stroke="#000" stroke-linejoin="round" stroke-width="4" fill-rule="evenodd"/>
  </g>
  <path id="BESTSHOP" d="M30.879,69.781c2.4,0,4.217-1.078,4.217-3.406a2.6,2.6,0,0,0-2.043-2.734v-.078a2.638,2.638,0,0,0,1.484-2.5c0-2.156-1.7-2.844-3.938-2.844H27V69.781Zm-.441-6.859H29.175V59.984h1.293c1.308,0,1.954.406,1.954,1.422C32.422,62.328,31.82,62.922,30.438,62.922ZM30.688,68H29.175V64.641h1.514c1.5,0,2.292.469,2.292,1.594C32.981,67.438,32.172,68,30.688,68Zm12.784,1.781V67.844H38.814V64.75h3.821V62.813H38.814V60.141h4.5V58.219H36.639V69.781ZM48.557,70c2.513,0,4-1.609,4-3.5a3.175,3.175,0,0,0-2.189-3.141l-1.425-.641c-.926-.391-1.7-.687-1.7-1.516,0-.766.617-1.219,1.572-1.219a3.356,3.356,0,0,1,2.307.953l1.1-1.453A4.682,4.682,0,0,0,48.806,58a3.467,3.467,0,0,0-3.762,3.344,3.324,3.324,0,0,0,2.2,3.109l1.455.656c.97.438,1.631.7,1.631,1.563,0,.813-.6,1.328-1.734,1.328a4.159,4.159,0,0,1-2.763-1.281l-1.249,1.594A5.615,5.615,0,0,0,48.557,70Zm9.889-.219V60.141h3.086V58.219H53.215v1.922h3.056v9.641Zm8.1.219c2.513,0,4-1.609,4-3.5a3.175,3.175,0,0,0-2.189-3.141l-1.425-.641c-.926-.391-1.7-.687-1.7-1.516,0-.766.617-1.219,1.572-1.219a3.356,3.356,0,0,1,2.307.953l1.1-1.453A4.682,4.682,0,0,0,66.792,58a3.467,3.467,0,0,0-3.762,3.344,3.324,3.324,0,0,0,2.2,3.109l1.455.656c.97.438,1.631.7,1.631,1.563,0,.813-.6,1.328-1.734,1.328a4.159,4.159,0,0,1-2.763-1.281l-1.249,1.594A5.615,5.615,0,0,0,66.543,70Zm8.1-.219v-5h4.114v5h2.16V58.219h-2.16v4.547H74.639V58.219H72.464V69.781Zm12.9.219c2.88,0,4.864-2.3,4.864-6.047S90.421,58,87.541,58s-4.864,2.188-4.864,5.953C82.677,67.7,84.661,70,87.541,70Zm0-2c-1.616,0-2.645-1.578-2.645-4.047,0-2.484,1.029-3.969,2.645-3.969s2.645,1.484,2.645,3.969C90.186,66.422,89.157,68,87.541,68Zm8.8,1.781V65.672H97.8c2.336,0,4.2-1.187,4.2-3.828,0-2.734-1.851-3.625-4.261-3.625H94.168V69.781Zm1.308-5.937H96.343v-3.8h1.234c1.5,0,2.292.453,2.292,1.8C99.869,63.172,99.149,63.844,97.65,63.844Z" fill="#da0f47"/>
</svg>
