<svg xmlns="http://www.w3.org/2000/svg" width="184.77" height="56.01" viewBox="0 0 184.77 56.01">
  <g id="oled_tv_objet_w" transform="translate(0 -0.01)">
    <g id="Group_7" data-name="Group 7">
      <g id="Group_6" data-name="Group 6">
        <g id="Group_5" data-name="Group 5">
          <g id="Group_4" data-name="Group 4">
            <g id="Group_2" data-name="Group 2">
              <g id="Group_1" data-name="Group 1">
                <path id="Path_1" data-name="Path 1" d="M117.53,46.84a5.077,5.077,0,0,0,.21,1.52,3.048,3.048,0,0,0,.65,1.16,2.634,2.634,0,0,0,1.09.75,4.019,4.019,0,0,0,1.53.27h2.62l-.66,1.31h-2.33a5.2,5.2,0,0,1-1.82-.33,4.271,4.271,0,0,1-1.49-.97,4.45,4.45,0,0,1-1-1.57,5.867,5.867,0,0,1-.37-2.13,5.971,5.971,0,0,1,.35-2.08,4.5,4.5,0,0,1,.98-1.58,4.261,4.261,0,0,1,1.48-1,4.975,4.975,0,0,1,1.87-.34h2.99l-.66,1.3h-1.96a4.094,4.094,0,0,0-1.5.27,2.957,2.957,0,0,0-1.08.75,3.289,3.289,0,0,0-.67,1.17A4.813,4.813,0,0,0,117.53,46.84Z" fill="#fff"/>
                <path id="Path_2" data-name="Path 2" d="M127.83,52.05a4.2,4.2,0,0,1-1.55-.27,3.135,3.135,0,0,1-1.15-.8,3.477,3.477,0,0,1-.72-1.21,4.956,4.956,0,0,1-.25-1.59,4.7,4.7,0,0,1,.25-1.59,3.432,3.432,0,0,1,.72-1.2,3.011,3.011,0,0,1,1.15-.78,4,4,0,0,1,1.55-.28,3.952,3.952,0,0,1,1.54.28,2.974,2.974,0,0,1,1.14.78,3.289,3.289,0,0,1,.72,1.2,5.181,5.181,0,0,1,0,3.18,3.332,3.332,0,0,1-.72,1.21,3.2,3.2,0,0,1-1.14.79A3.917,3.917,0,0,1,127.83,52.05Zm0-6.46a1.98,1.98,0,0,0-1.66.71,2.954,2.954,0,0,0-.56,1.89,3,3,0,0,0,.56,1.88,2,2,0,0,0,1.66.72,2.212,2.212,0,0,0,.95-.21,2.166,2.166,0,0,0,.7-.56,2.618,2.618,0,0,0,.43-.83,3.27,3.27,0,0,0,.15-1,2.847,2.847,0,0,0-.58-1.89A1.973,1.973,0,0,0,127.83,45.59Z" fill="#fff"/>
                <path id="Path_3" data-name="Path 3" d="M134.32,51.85c-1.16,0-1.73-.6-1.73-1.8v-8.2h1.4v8.2a.592.592,0,0,0,.11.41.394.394,0,0,0,.37.15h.87l-.64,1.24h-.38Z" fill="#fff"/>
                <path id="Path_4" data-name="Path 4" d="M138.11,51.85c-1.15,0-1.73-.6-1.73-1.8v-8.2h1.4v8.2a.648.648,0,0,0,.11.41.415.415,0,0,0,.37.15h.86l-.64,1.24h-.37Z" fill="#fff"/>
                <path id="Path_5" data-name="Path 5" d="M145.31,51.85h-2.47a3.537,3.537,0,0,1-1.51-.31,2.979,2.979,0,0,1-1.07-.81,3.481,3.481,0,0,1-.63-1.19,4.888,4.888,0,0,1-.21-1.45,5.236,5.236,0,0,1,.21-1.45,3.383,3.383,0,0,1,.64-1.2,3.011,3.011,0,0,1,1.1-.8,3.608,3.608,0,0,1,1.57-.3,3.842,3.842,0,0,1,1.62.3,2.783,2.783,0,0,1,1.06.8,3.419,3.419,0,0,1,.57,1.2,6.193,6.193,0,0,1,.17,1.45v.79h-5.42a1.983,1.983,0,0,0,.63,1.28,1.913,1.913,0,0,0,1.33.45h3.01Zm-2.36-6.26a1.9,1.9,0,0,0-1.49.56,2.34,2.34,0,0,0-.55,1.5h4a2.5,2.5,0,0,0-.51-1.5A1.77,1.77,0,0,0,142.95,45.59Z" fill="#fff"/>
                <path id="Path_6" data-name="Path 6" d="M152.51,51.85h-1.72a3.974,3.974,0,0,1-1.41-.25,3.084,3.084,0,0,1-1.13-.72,3.813,3.813,0,0,1-.75-1.15,4.333,4.333,0,0,1-.27-1.55,4.037,4.037,0,0,1,.28-1.52,3.618,3.618,0,0,1,.77-1.16,3.12,3.12,0,0,1,1.13-.72,3.761,3.761,0,0,1,1.38-.26h2.35l-.63,1.24h-1.6a2.254,2.254,0,0,0-.92.18,2.016,2.016,0,0,0-.71.51,2.442,2.442,0,0,0-.45.77,2.764,2.764,0,0,0-.16.96,2.6,2.6,0,0,0,.58,1.75,2.069,2.069,0,0,0,1.65.68h2.23Z" fill="#fff"/>
                <path id="Path_7" data-name="Path 7" d="M157.77,51.85h-1.42a2.341,2.341,0,0,1-1.74-.64,2.392,2.392,0,0,1-.62-1.79V42.33h1.4v2.19h2.96l-.61,1.24h-2.35v3.7c0,.75.35,1.13,1.04,1.13h1.97Z" fill="#fff"/>
                <path id="Path_8" data-name="Path 8" d="M160.82,41.85v1.26h-1.4V41.85Zm0,2.68v7.33h-1.4V44.53Z" fill="#fff"/>
                <path id="Path_9" data-name="Path 9" d="M165.31,52.05a4.145,4.145,0,0,1-1.54-.27,3.054,3.054,0,0,1-1.15-.8,3.2,3.2,0,0,1-.72-1.21,4.7,4.7,0,0,1-.24-1.59,4.961,4.961,0,0,1,.24-1.59,3.289,3.289,0,0,1,.72-1.2,3.011,3.011,0,0,1,1.15-.78,3.952,3.952,0,0,1,1.54-.28,4,4,0,0,1,1.55.28,3.089,3.089,0,0,1,1.15.78,3.432,3.432,0,0,1,.72,1.2,4.7,4.7,0,0,1,.24,1.59,4.917,4.917,0,0,1-.24,1.59,3.477,3.477,0,0,1-.72,1.21,3.149,3.149,0,0,1-1.15.79A3.934,3.934,0,0,1,165.31,52.05Zm0-6.46a1.986,1.986,0,0,0-1.65.71,2.9,2.9,0,0,0-.57,1.89,2.946,2.946,0,0,0,.57,1.88,2.006,2.006,0,0,0,1.65.72,2.062,2.062,0,0,0,1.65-.77,2.6,2.6,0,0,0,.42-.83,3.27,3.27,0,0,0,.15-1,2.847,2.847,0,0,0-.58-1.89A1.916,1.916,0,0,0,165.31,45.59Z" fill="#fff"/>
                <path id="Path_10" data-name="Path 10" d="M173.89,44.53a2.327,2.327,0,0,1,2.45,2.54v4.79h-1.4V47.02a1.217,1.217,0,0,0-.34-.93,1.332,1.332,0,0,0-.8-.31h-2.33v6.08h-1.39V44.53Z" fill="#fff"/>
              </g>
            </g>
            <g id="Group_3" data-name="Group 3">
              <path id="Path_11" data-name="Path 11" d="M71.18,43.64a10.352,10.352,0,0,1-.55,3.47,7.778,7.778,0,0,1-1.59,2.72,7.238,7.238,0,0,1-2.58,1.75,9.163,9.163,0,0,1-3.46.61,9.267,9.267,0,0,1-3.5-.61,7.247,7.247,0,0,1-2.56-1.75,7.728,7.728,0,0,1-1.57-2.69,10.708,10.708,0,0,1-.55-3.5,10.491,10.491,0,0,1,.55-3.5,7.773,7.773,0,0,1,1.57-2.72,7.018,7.018,0,0,1,2.56-1.76,9.26,9.26,0,0,1,3.5-.63,9.053,9.053,0,0,1,3.49.63,7.018,7.018,0,0,1,2.56,1.76,7.415,7.415,0,0,1,1.58,2.72A10.408,10.408,0,0,1,71.18,43.64Zm-8.17,6.35a5.87,5.87,0,0,0,2.26-.42,5.191,5.191,0,0,0,1.78-1.24,5.486,5.486,0,0,0,1.15-1.99,8.291,8.291,0,0,0,.4-2.7,8.479,8.479,0,0,0-.4-2.73,5.615,5.615,0,0,0-1.14-1.99,4.708,4.708,0,0,0-1.77-1.23,5.8,5.8,0,0,0-2.27-.41,5.953,5.953,0,0,0-2.29.42,4.742,4.742,0,0,0-1.76,1.24,5.7,5.7,0,0,0-1.14,1.99,8.439,8.439,0,0,0-.4,2.71,8.353,8.353,0,0,0,.4,2.71,5.661,5.661,0,0,0,1.15,2.01,4.97,4.97,0,0,0,1.77,1.22A6.062,6.062,0,0,0,63.01,49.99Z" fill="#fff"/>
              <path id="Path_12" data-name="Path 12" d="M75.84,35.41v4.4h2.28a6.487,6.487,0,0,1,2.31.41,5.1,5.1,0,0,1,1.82,1.21,5.437,5.437,0,0,1,1.19,1.88,6.706,6.706,0,0,1,.43,2.47,7.049,7.049,0,0,1-.44,2.54,5.482,5.482,0,0,1-1.21,1.88,5.371,5.371,0,0,1-1.82,1.19,6.273,6.273,0,0,1-2.27.42H73.52V35.41h2.32Zm0,14.37h2.1a3.365,3.365,0,0,0,1.49-.31,3.181,3.181,0,0,0,1.13-.86,3.511,3.511,0,0,0,.71-1.27,4.914,4.914,0,0,0,.24-1.54,5.12,5.12,0,0,0-.22-1.54A3.743,3.743,0,0,0,80.61,43a3.5,3.5,0,0,0-2.66-1.15h-2.1v7.93Z" fill="#fff"/>
              <path id="Path_13" data-name="Path 13" d="M86.62,39.82V52.16a2.188,2.188,0,0,1-.35,1.33,1.228,1.228,0,0,1-1.08.5h-.92l-1.04,2.03h2.18a3.6,3.6,0,0,0,1.4-.27,3.182,3.182,0,0,0,1.12-.76,3.609,3.609,0,0,0,.73-1.2,4.746,4.746,0,0,0,.26-1.62V39.82Z" fill="#fff"/>
              <path id="Path_14" data-name="Path 14" d="M100.8,51.81H96.75a5.914,5.914,0,0,1-2.47-.49,4.928,4.928,0,0,1-1.74-1.33,5.428,5.428,0,0,1-1.04-1.94,8.056,8.056,0,0,1-.34-2.38,8.469,8.469,0,0,1,.34-2.39,5.371,5.371,0,0,1,1.05-1.96,4.979,4.979,0,0,1,1.8-1.33,6.155,6.155,0,0,1,2.58-.49,6.45,6.45,0,0,1,2.68.49,4.524,4.524,0,0,1,1.72,1.33,5.329,5.329,0,0,1,.94,1.96,9.723,9.723,0,0,1,.28,2.39v1.29H93.67a3.321,3.321,0,0,0,1.04,2.1,3.176,3.176,0,0,0,2.18.73h4.93ZM96.93,41.56a3.131,3.131,0,0,0-2.44.91,3.91,3.91,0,0,0-.9,2.45h6.56a3.979,3.979,0,0,0-.84-2.45A2.94,2.94,0,0,0,96.93,41.56Z" fill="#fff"/>
              <path id="Path_15" data-name="Path 15" d="M110.71,51.81h-2.33a3.809,3.809,0,0,1-2.84-1.03,4,4,0,0,1-1.02-2.94V36.2h2.3v3.62h4.87l-1.02,2.02h-3.85v6.07c0,1.23.57,1.85,1.69,1.85h3.25Z" fill="#fff"/>
              <path id="Path_16" data-name="Path 16" d="M91.51,35.43H89.23l-2.61,3.18h2.27Z" fill="#fff"/>
            </g>
          </g>
        </g>
      </g>
    </g>
    <g id="Group_16" data-name="Group 16">
      <g id="Group_15" data-name="Group 15">
        <g id="Group_13" data-name="Group 13">
          <g id="Group_8" data-name="Group 8">
            <path id="Path_17" data-name="Path 17" d="M138,21.96H109.21v3.59h27Z" fill="#fff"/>
            <path id="Path_18" data-name="Path 18" d="M132.12,17.23l1.74-3.5h-15.6c-.58,0-.76-.18-.76-.76V5.53h15.52V2.04H113.46V13.42c0,2.94.77,3.82,3.93,3.82h14.73Z" fill="#fff"/>
          </g>
          <g id="Group_9" data-name="Group 9">
            <rect id="Rectangle_2" data-name="Rectangle 2" width="3.89" height="28.21" transform="translate(103.36 0.39)" fill="#fff"/>
            <path id="Path_19" data-name="Path 19" d="M97.28.39v9.89H93.64v3.57h3.64V28.1h3.89V.39Z" fill="#fff"/>
            <path id="Path_20" data-name="Path 20" d="M85.49,18.79V13.95h6.78V4.45A1.758,1.758,0,0,0,90.52,2.7h-8.8V6.01h6.86v4.73H81.79V22.12H93.92l1.66-3.34H85.49Z" fill="#fff"/>
          </g>
          <g id="Group_12" data-name="Group 12">
            <g id="Group_10" data-name="Group 10">
              <path id="Path_21" data-name="Path 21" d="M58.89,25.48V24.35H75.14V16.79H55v3.09H71.1v1.53H54.85v5.85a1.6,1.6,0,0,0,1.82,1.75H75.1l1.52-3.09H59.29c-.29-.01-.4-.12-.4-.44" fill="#fff"/>
              <path id="Path_22" data-name="Path 22" d="M67.11,12.25V10.84c4.69-.44,7.27-2.37,7.27-5.39,0-3.49-3.46-5.44-9.31-5.44s-9.31,1.95-9.31,5.44c0,3.02,2.58,4.95,7.27,5.39v1.41H50.89v3.13H78.14l1.55-3.13Zm-7.2-6.81c0-1.49,1.89-2.28,5.16-2.28s5.16.79,5.16,2.28c0,1.57-2.07,2.29-5.16,2.29S59.91,7.01,59.91,5.44Z" fill="#fff"/>
            </g>
            <g id="Group_11" data-name="Group 11">
              <path id="Path_23" data-name="Path 23" d="M5.45,2.71H0V26.27H16.72V21.69H5.45Z" fill="#fff"/>
              <path id="Path_24" data-name="Path 24" d="M28.68,17.29h4.43v4.12a12.792,12.792,0,0,1-3.93.62c-4.89,0-6.53-2.49-6.53-7.54,0-4.81,1.56-7.66,6.45-7.66a6.321,6.321,0,0,1,5.56,2.48L38.03,6.2C35.99,3.26,32.38,2.37,29,2.37c-7.62,0-11.63,4.16-11.63,12.08,0,7.89,3.62,12.17,11.59,12.17,3.64,0,7.22-.93,9.17-2.29V12.9H28.69v4.39Z" fill="#fff"/>
            </g>
          </g>
        </g>
        <g id="Group_14" data-name="Group 14">
          <path id="Path_25" data-name="Path 25" d="M155.58,26.27h-4.53a6.453,6.453,0,0,1-2.75-.55,5.523,5.523,0,0,1-1.96-1.49,6.132,6.132,0,0,1-1.16-2.17,8.912,8.912,0,0,1-.38-2.66,9.264,9.264,0,0,1,.38-2.67,5.925,5.925,0,0,1,1.17-2.19,5.6,5.6,0,0,1,2.01-1.48,6.881,6.881,0,0,1,2.88-.56,7,7,0,0,1,2.99.56,5.063,5.063,0,0,1,1.93,1.48,5.79,5.79,0,0,1,1.05,2.19,10.918,10.918,0,0,1,.31,2.67v1.44h-9.93a3.708,3.708,0,0,0,1.15,2.35,3.54,3.54,0,0,0,2.43.82h5.52Zm-4.33-11.45a3.53,3.53,0,0,0-2.73,1.02,4.322,4.322,0,0,0-1.01,2.74h7.34a4.479,4.479,0,0,0-.94-2.74A3.3,3.3,0,0,0,151.25,14.82Z" fill="#fff"/>
          <path id="Path_26" data-name="Path 26" d="M166.42,26.27h-3.68l-4.98-13.4h2.72l4.07,11.32,4.1-11.32h2.74Z" fill="#fff"/>
          <path id="Path_27" data-name="Path 27" d="M178.07,26.59a7.4,7.4,0,0,1-2.83-.51,5.913,5.913,0,0,1-2.11-1.44,6.447,6.447,0,0,1-1.31-2.23,9.371,9.371,0,0,1,0-5.8,6.138,6.138,0,0,1,1.31-2.22,5.89,5.89,0,0,1,2.11-1.43,8.107,8.107,0,0,1,5.66,0,5.978,5.978,0,0,1,2.11,1.43,6.3,6.3,0,0,1,1.32,2.22,8.89,8.89,0,0,1,.44,2.91,8.807,8.807,0,0,1-.44,2.91,5.9,5.9,0,0,1-3.43,3.65A7.472,7.472,0,0,1,178.07,26.59Zm0-11.86a3.71,3.71,0,0,0-3.03,1.29,5.446,5.446,0,0,0-1.04,3.5,5.422,5.422,0,0,0,1.04,3.44,3.624,3.624,0,0,0,3.03,1.31,3.915,3.915,0,0,0,1.75-.37,3.814,3.814,0,0,0,1.28-1.04,4.4,4.4,0,0,0,.77-1.51,5.834,5.834,0,0,0,.27-1.83,5.446,5.446,0,0,0-1.04-3.5A3.71,3.71,0,0,0,178.07,14.73Z" fill="#fff"/>
        </g>
      </g>
    </g>
  </g>
</svg>
