<svg xmlns="http://www.w3.org/2000/svg" width="143.166" height="25.873" viewBox="0 0 143.166 25.873">
  <path id="패스_1" data-name="패스 1" d="M5.175,1.725H0V24.148H15.77V19.713H5.175Zm22.177,3.7a5.629,5.629,0,0,1,5.175,2.464l3.2-2.957c-1.971-2.71-5.421-3.7-8.625-3.7-7.146,0-10.842,3.943-10.842,11.581,0,7.393,3.45,11.582,10.842,11.582,3.45,0,6.9-.986,8.625-2.218V11.335H26.859v4.189h4.189v3.943a13.373,13.373,0,0,1-3.7.492c-4.682,0-6.16-2.464-6.16-7.146S22.67,5.421,27.352,5.421ZM62.835,17.742A2.614,2.614,0,0,1,59.878,20.7H55.689a2.614,2.614,0,0,1-2.957-2.957V1.725h-3.7V17.988c0,3.45,2.218,6.16,6.407,6.16h4.682c4.435,0,6.407-2.956,6.407-6.406V1.725h-3.7ZM79.591,1.971H69.242V24.148h3.943V16.263h6.406c4.682,0,7.146-2.71,7.146-7.146S84.027,1.971,79.591,1.971Zm-.246,10.842h-6.16V5.175h6.16c2.218,0,3.45,1.478,3.45,3.7C82.795,11.335,81.809,12.813,79.345,12.813ZM115.075,0h-3.7V25.873h3.7V12.813h3.45V9.61h-3.45ZM94.13,4.928H103c0,6.407-1.232,8.378-9.857,12.814l1.972,3.2C105.465,15.278,106.7,13.06,106.7,3.7V1.725H94.376ZM133.8,9.364h4.929v9.117h3.7V0h-3.7V6.16H133.8ZM129.121,22.67c-.247,0-.247-.246-.247-.493V16.51h-3.7v7.638c0,.986.739,1.479,1.725,1.479h14.785l1.478-2.957Zm-1.479-12.321c.739,1.479,2.464,2.711,5.668,4.436l1.724-2.711c-5.174-2.71-5.667-3.45-5.667-6.653V4.435h4.928v-3.2H120.743v3.2h4.928v.986c0,3.2-.493,4.189-5.914,7.392l1.971,2.711C125.424,13.306,126.9,12.074,127.642,10.349Z" fill="#fff"/>
</svg>
