<svg xmlns="http://www.w3.org/2000/svg" xmlns:xlink="http://www.w3.org/1999/xlink" width="160" height="160" viewBox="0 0 160 160">
  <defs>
    <clipPath id="clip-icon_find-center">
      <rect width="160" height="160"/>
    </clipPath>
  </defs>
  <g id="icon_find-center" clip-path="url(#clip-icon_find-center)">
    <g id="그룹_73" data-name="그룹 73" transform="translate(215.126 0.376)">
      <path id="패스_67" data-name="패스 67" d="M-152.828,141.35a2.5,2.5,0,0,1-2.5-2.5v-27a2.5,2.5,0,0,0-2.5-2.5h-14a2.5,2.5,0,0,0-2.5,2.5v27a2.5,2.5,0,0,1-2.5,2.5,2.5,2.5,0,0,1-2.5-2.5v-27a7.508,7.508,0,0,1,7.5-7.5h14a7.508,7.508,0,0,1,7.5,7.5v27A2.5,2.5,0,0,1-152.828,141.35Z" transform="translate(0 -0.754)" fill="#da0f47"/>
      <g id="그룹_71" data-name="그룹 71" transform="translate(-200.126 45.878)">
        <path id="패스_68" data-name="패스 68" d="M-145.654,58.35H-184a4.42,4.42,0,0,0-4.326,4.5v6A4.42,4.42,0,0,0-184,73.35h38.348a4.42,4.42,0,0,0,4.326-4.5v-6A4.421,4.421,0,0,0-145.654,58.35Zm-.674,10h-37v-5h37Z" transform="translate(200.126 -45.878)"/>
        <path id="패스_69" data-name="패스 69" d="M-145.654,78.35H-184a4.42,4.42,0,0,0-4.326,4.5v6A4.42,4.42,0,0,0-184,93.35h38.348a4.421,4.421,0,0,0,4.326-4.5v-6A4.421,4.421,0,0,0-145.654,78.35Zm-.674,10h-37v-5h37Z" transform="translate(200.126 -46.182)"/>
        <path id="패스_70" data-name="패스 70" d="M-77.626,76.22h-13.36V81.18h13.36a2.492,2.492,0,0,1,2.5,2.48v52h-54.4V81.18h20.9V76.22h-20.9V53.413a7.482,7.482,0,0,0-7.488-7.441h0l-55.593-.094h-.014a7.482,7.482,0,0,0-5.3,2.175,7.364,7.364,0,0,0-2.2,5.266v82.345a4.87,4.87,0,0,0,4.762,4.961H-72.626a2.49,2.49,0,0,0,2.5-2.48V83.66A7.478,7.478,0,0,0-77.626,76.22Zm-56.9,2.411c0,.023,0,.047,0,.069v56.964h-60.6V53.319a2.453,2.453,0,0,1,.734-1.755,2.49,2.49,0,0,1,1.766-.725h.005l55.594.094a2.494,2.494,0,0,1,2.5,2.48Z" transform="translate(200.126 -45.878)"/>
      </g>
      <g id="그룹_72" data-name="그룹 72" transform="translate(-127.126 18.624)">
        <path id="패스_71" data-name="패스 71" d="M-99.626,58.624a12.514,12.514,0,0,1-12.5-12.5,12.514,12.514,0,0,1,12.5-12.5,12.514,12.514,0,0,1,12.5,12.5A12.514,12.514,0,0,1-99.626,58.624Zm0-20a7.508,7.508,0,0,0-7.5,7.5,7.509,7.509,0,0,0,7.5,7.5,7.509,7.509,0,0,0,7.5-7.5A7.508,7.508,0,0,0-99.626,38.624Z" transform="translate(127.126 -18.624)" fill="#da0f47"/>
        <path id="패스_72" data-name="패스 72" d="M-99.626,88.623a4.514,4.514,0,0,1-3.277-1.407c-.075-.074-.26-.239-.525-.479-15.282-13.82-23.7-27.773-23.7-39.289,0-15.894,12.337-28.824,27.5-28.824s27.5,12.93,27.5,28.824c0,11.516-8.416,25.469-23.7,39.289-.265.24-.449.4-.537.492A4.505,4.505,0,0,1-99.626,88.623Zm0-65c-12.406,0-22.5,10.687-22.5,23.824,0,10.084,7.832,22.72,22.052,35.581.177.159.326.3.448.409.121-.112.272-.249.448-.409,14.22-12.861,22.052-25.5,22.052-35.581C-77.126,34.311-87.22,23.624-99.626,23.624Z" transform="translate(127.126 -18.624)" fill="#da0f47"/>
      </g>
    </g>
  </g>
</svg>
