<svg xmlns="http://www.w3.org/2000/svg" xmlns:xlink="http://www.w3.org/1999/xlink" width="160" height="160" viewBox="0 0 160 160">
  <defs>
    <clipPath id="clip-icon_solutions">
      <rect width="160" height="160"/>
    </clipPath>
  </defs>
  <g id="icon_solutions" clip-path="url(#clip-icon_solutions)">
    <g id="그룹_99" data-name="그룹 99" transform="translate(0.118 1.046)">
      <g id="그룹_98" data-name="그룹 98" transform="translate(17.882 16.954)">
        <g id="그룹_97" data-name="그룹 97">
          <g id="그룹_96" data-name="그룹 96">
            <g id="그룹_95" data-name="그룹 95">
              <g id="그룹_94" data-name="그룹 94">
                <g id="그룹_93" data-name="그룹 93">
                  <g id="그룹_92" data-name="그룹 92">
                    <g id="그룹_91" data-name="그룹 91">
                      <g id="그룹_90" data-name="그룹 90">
                        <path id="패스_79" data-name="패스 79" d="M107.638,16.954l-33.029,16.6V43.966l-7.038,7.05-4.86-4.862a22.517,22.517,0,0,0-33.776-22.24l-2.756,1.633,0,0,0,0L37.149,36.641l-3.6,3.33-6.537-6.536-4.36-4.361h0l0,0-1.639,2.777A22.529,22.529,0,0,0,43.263,65.6l4.878,4.877L23.44,95.225a14.171,14.171,0,0,0-.094,19.848l.154.155a13.669,13.669,0,0,0,9.675,3.978h.078a13.666,13.666,0,0,0,9.708-4.085L67.734,90.07l6.47,6.459c.488.489,4.512-2.558,3.535-3.535L67.714,82.98,55.208,70.474h0L44.966,60.23h0l0,0a19.645,19.645,0,0,1-8.469.11A17.5,17.5,0,0,1,23.9,37.4c6.572,6.573,6.8,6.756,7.029,6.916a4.6,4.6,0,0,0,5.021.107c.143-.088.289-.165,4.993-4.484a4.652,4.652,0,0,0,.3-6.25l-6.784-6.877A17.51,17.51,0,0,1,57.4,39.148a19.584,19.584,0,0,1-.061,8.705L65,55.515l2.574,2.575h0L88.484,79.022C89.46,80,93,76.463,92.019,75.487l-4.947-4.97,6.836-6.911,9.548,2.122,19.272-33.642ZM64.2,86.535,39.406,111.6a8.7,8.7,0,0,1-6.18,2.6h-.051a8.689,8.689,0,0,1-6.146-2.52l-.123-.123a9.148,9.148,0,0,1,.073-12.806l24.7-24.744Zm36.747-26.487L92.3,58.126l-8.761,8.856L71.106,54.551l8.5-8.517v-9.4l27.042-13.588,9.84,9.868Z" transform="translate(-17.882 -16.954)"/>
                        <path id="패스_80" data-name="패스 80" d="M107.109,142.5a35,35,0,1,1,35-35A35.04,35.04,0,0,1,107.109,142.5Zm0-65a30,30,0,1,0,30,30A30.034,30.034,0,0,0,107.109,77.5Z" transform="translate(-18.109 -18.5)" fill="#da0f47"/>
                        <path id="패스_81" data-name="패스 81" d="M103.557,122.5a2.5,2.5,0,0,1-1.659-.629l-12.7-11.25a2.5,2.5,0,1,1,3.317-3.742l10.819,9.587,18.145-20.617a2.5,2.5,0,1,1,3.754,3.3l-19.8,22.5a2.5,2.5,0,0,1-1.722.844C103.66,122.5,103.608,122.5,103.557,122.5Z" transform="translate(-18.109 -18.185)" fill="#da0f47"/>
                      </g>
                    </g>
                  </g>
                </g>
              </g>
            </g>
          </g>
        </g>
      </g>
    </g>
  </g>
</svg>
