<svg id="img_식물생활가전_64" xmlns="http://www.w3.org/2000/svg" width="64" height="64">
    <defs>
        <style>
            .cls-1{fill:#fff}.cls-1,.cls-2,.cls-3{stroke:#000;stroke-width:1.5px}.cls-2,.cls-3,.cls-4{fill:none}.cls-2,.cls-3{stroke-linecap:round}.cls-3{stroke-linejoin:round;stroke-miterlimit:10}.cls-6{stroke:none}
        </style>
    </defs>
    <g id="ic" transform="translate(19.075 13)">
        <g id="Rectangle_18" data-name="Rectangle 18" class="cls-1" transform="translate(-1.075)">
            <rect class="cls-6" width="28" height="37.971" rx="2"/>
            <rect class="cls-4" x=".75" y=".75" width="26.5" height="36.471" rx="1.25"/>
        </g>
        <g id="Rectangle_19" data-name="Rectangle 19" class="cls-1" transform="translate(1.925 4)">
            <rect class="cls-6" width="22" height="24" rx="2"/>
            <rect class="cls-4" x=".75" y=".75" width="20.5" height="22.5" rx="1.25"/>
        </g>
        <path id="Path_109" data-name="Path 109" class="cls-2" d="M-17217.166-22535.033h19" transform="translate(17220.592 22551.033)"/>
        <path id="Path_112" data-name="Path 112" class="cls-2" d="M-17217.422-22533.687h25" transform="translate(17217.848 22564.283)"/>
        <path id="Path_114" data-name="Path 114" class="cls-2" d="M-17217.422-22534.723h20" transform="translate(17220.42 22568.748)"/>
        <g id="Group_613" data-name="Group 613" transform="translate(-10.892 -10.641)">
            <path id="Path_115" data-name="Path 115" class="cls-3" d="M19.109 18.611s-.952 5.041 4.028 5.688c0 .001 1.383-4.827-4.028-5.688z" transform="translate(.594)"/>
            <path id="Path_116" data-name="Path 116" class="cls-3" d="M25.684 19.547s.952 5.041-4.028 5.685c0 0-1.383-4.824 4.028-5.685z" transform="translate(2.392 -.865)"/>
            <path id="Path_117" data-name="Path 117" class="cls-2" d="M990.2 1034.17v3.343" transform="translate(-966.31 -1011.543)"/>
        </g>
        <g id="Group_615" data-name="Group 615" transform="translate(-10.892 .359)">
            <path id="Path_115-2" data-name="Path 115" class="cls-3" d="M19.109 18.611s-.952 5.041 4.028 5.688c0 .001 1.383-4.827-4.028-5.688z" transform="translate(.594)"/>
            <path id="Path_116-2" data-name="Path 116" class="cls-3" d="M25.684 19.547s.952 5.041-4.028 5.685c0 0-1.383-4.824 4.028-5.685z" transform="translate(2.392 -.865)"/>
            <path id="Path_117-2" data-name="Path 117" class="cls-2" d="M990.2 1034.17v3.343" transform="translate(-966.31 -1011.543)"/>
        </g>
    </g>
    <path id="Rectangle" class="cls-4" transform="translate(12 12)" d="M0 0h40v40H0z"/>
    <g id="Rectangle-2" data-name="Rectangle" style="stroke-miterlimit:10;fill:none;stroke:#000;stroke-width:1.5px">
        <rect class="cls-6" width="64" height="64" rx="32"/>
        <rect class="cls-4" x=".75" y=".75" width="62.5" height="62.5" rx="31.25"/>
    </g>
</svg>
