<svg xmlns="http://www.w3.org/2000/svg" width="65" height="64" viewBox="0 0 65 64">
    <g fill="none" fill-rule="evenodd">
        <g stroke="#000" stroke-width="1.5">
            <g>
                <g>
                    <g>
                        <g transform="translate(-683 -1328) translate(128 414) translate(0 809) translate(555.195 105)">
                            <rect width="62.5" height="62.5" x=".75" y=".75" rx="31.25"/>
                        </g>
                        <g>
                            <g>
                                <path stroke-linejoin="round" d="M19.582 3H28.5c.828 0 1.5.672 1.5 1.5v21c0 .828-.672 1.5-1.5 1.5h-27C.672 27 0 26.328 0 25.5v-21C0 3.672.672 3 1.5 3h8.887" transform="translate(-683 -1328) translate(128 414) translate(0 809) translate(555.195 105) translate(12 12) translate(5 6)"/>
                                <path stroke-linejoin="round" d="M22.5 23.25h-15c-.621 0-1.184.252-1.591.659-.407.407-.659.97-.659 1.591v1.25h19.5V25.5c0-.621-.252-1.184-.659-1.591-.407-.407-.97-.659-1.591-.659zM17.75 8.25h-5.5v5.5h5.5v-5.5zm-.956-8.5h-3.588l.486 8.5h2.616l.486-8.5z" transform="translate(-683 -1328) translate(128 414) translate(0 809) translate(555.195 105) translate(12 12) translate(5 6)"/>
                                <path stroke-linejoin="round" d="M17.045 3L22 3 22 23 8 23 8 3 13.217 3" transform="translate(-683 -1328) translate(128 414) translate(0 809) translate(555.195 105) translate(12 12) translate(5 6)"/>
                                <path stroke-linecap="round" d="M15 14L15 17" transform="translate(-683 -1328) translate(128 414) translate(0 809) translate(555.195 105) translate(12 12) translate(5 6)"/>
                            </g>
                        </g>
                    </g>
                </g>
            </g>
        </g>
    </g>
</svg>
