<svg id="img_WaterPurifier_80" xmlns="http://www.w3.org/2000/svg" width="80" height="80" viewBox="0 0 80 80">
  <g id="ic" transform="translate(26 6)">
    <g id="body" transform="translate(0 4)">
      <path id="Combined_Shape" data-name="Combined Shape" d="M25,62H3a3,3,0,0,1-3-3V14H2V6H0V3A3,3,0,0,1,3,0H8V19a3,3,0,0,0,3,3h6a3,3,0,0,0,3-3V0h5a3,3,0,0,1,3,3V6H26v8h2V59A3,3,0,0,1,25,62Z" transform="translate(0 0)" fill="none" stroke="#000" stroke-linejoin="round" stroke-miterlimit="10" stroke-width="3"/>
      <g id="Group_21" data-name="Group 21" transform="translate(2 5)">
        <g id="Group_20" data-name="Group 20">
          <path id="Line" d="M0,1H6" transform="translate(0 0)" fill="none" stroke="#000" stroke-linecap="round" stroke-linejoin="round" stroke-miterlimit="10" stroke-width="3"/>
          <path id="Line-2" data-name="Line" d="M0,1H6" transform="translate(18 0)" fill="none" stroke="#000" stroke-linecap="round" stroke-linejoin="round" stroke-miterlimit="10" stroke-width="3"/>
          <path id="Line-3" data-name="Line" d="M0,1H6" transform="translate(0 8)" fill="none" stroke="#000" stroke-linecap="round" stroke-linejoin="round" stroke-miterlimit="10" stroke-width="3"/>
          <path id="Line-4" data-name="Line" d="M0,1H6" transform="translate(18 8)" fill="none" stroke="#000" stroke-linecap="round" stroke-linejoin="round" stroke-miterlimit="10" stroke-width="3"/>
        </g>
      </g>
    </g>
    <rect id="Rectangle" width="12" height="26" rx="3" transform="translate(8)" fill="none" stroke="#000" stroke-linejoin="round" stroke-miterlimit="10" stroke-width="3"/>
    <path id="Line-5" data-name="Line" d="M1,0V6" transform="translate(13 26)" fill="none" stroke="#000" stroke-linecap="round" stroke-linejoin="round" stroke-miterlimit="10" stroke-width="3"/>
  </g>
</svg>
