<?xml version="1.0" encoding="UTF-8"?>
<svg width="20px" height="20px" viewBox="0 0 20 20" version="1.1" xmlns="http://www.w3.org/2000/svg" xmlns:xlink="http://www.w3.org/1999/xlink">
    <title>icon-star-on-20</title>
    <g id="Page-1" stroke="none" stroke-width="1" fill="none" fill-rule="evenodd">
        <g id="Group-117">
            <rect id="Rectangle" x="0" y="0" width="20" height="20"></rect>
            <path d="M9.76732944,14.1223222 L6.19445406,16.0006939 C5.95003177,16.1291943 5.64771819,16.035221 5.51921778,15.7907988 C5.46804825,15.6934685 5.45039091,15.5819845 5.46897933,15.4736057 L6.15133781,11.4951505 C6.17915678,11.3329534 6.12538254,11.1674533 6.00753949,11.0525847 L3.1170226,8.23502713 C2.91928081,8.04227652 2.91523465,7.72571989 3.10798526,7.5279781 C3.18473956,7.44923628 3.28531077,7.39799269 3.39412928,7.38218044 L7.38872539,6.80173165 C7.55158047,6.77806742 7.69236327,6.67578273 7.76519427,6.528211 L9.55163196,2.90849288 C9.67384311,2.66086605 9.97365603,2.55919655 10.2212829,2.68140769 C10.3198892,2.73007281 10.3997029,2.80988657 10.448368,2.90849288 L12.2348057,6.528211 C12.3076367,6.67578273 12.4484195,6.77806742 12.6112746,6.80173165 L16.6058707,7.38218044 C16.8791431,7.42188925 17.0684839,7.67561067 17.0287751,7.9488831 C17.0129628,8.05770162 16.9617192,8.15827282 16.8829774,8.23502713 L13.9924605,11.0525847 C13.8746175,11.1674533 13.8208432,11.3329534 13.8486622,11.4951505 L14.5310207,15.4736057 C14.5777012,15.7457739 14.3949073,16.0042518 14.122739,16.0509324 C14.0143602,16.0695208 13.9028762,16.0518634 13.8055459,16.0006939 L10.2326706,14.1223222 C10.0870086,14.0457431 9.91299145,14.0457431 9.76732944,14.1223222 Z" id="Star" fill="#F7B500"></path>
        </g>
    </g>
</svg>