<svg xmlns="http://www.w3.org/2000/svg" width="64" height="64" viewBox="0 0 64 64">
    <g fill="none" fill-rule="evenodd">
        <g>
            <path d="M0 64L64 64 64 0 0 0z"/>
            <g transform="translate(8 9)">
                <path stroke="#000" stroke-linecap="round" stroke-linejoin="round" stroke-width="2" d="M45 0c1.806 0 3 1.16 3 2.929V38.07C48 39.841 46.806 41 45 41H30V13.678c0-1.422-1.108-2.585-2.508-2.673l-.17-.005H18V2.929C18 1.159 19.194 0 21 0h24z"/>
                <path stroke="#000" stroke-linecap="round" stroke-linejoin="round" stroke-width="2" d="M2 11h26c1.105 0 2 .895 2 2v31c0 1.105-.895 2-2 2H2c-1.105 0-2-.895-2-2V13c0-1.105.895-2 2-2z"/>
                <path fill="#000" d="M30.087 14.48L48.09 14.48 48.09 16.2 30.087 16.2z"/>
                <rect width="6" height="2" x="38" y="9" fill="#000" rx="1"/>
                <rect width="6" height="2" x="38" y="19" fill="#000" rx="1"/>
                <circle cx="15" cy="32" r="9" stroke="#000" stroke-linecap="round" stroke-linejoin="round" stroke-width="2"/>
                <g fill="#DA0F47">
                    <path d="M1 4h8c.552 0 1 .448 1 1s-.448 1-1 1H1c-.552 0-1-.448-1-1s.448-1 1-1z" transform="translate(10 27) rotate(90 5 5)"/>
                    <path d="M1 4h8c.552 0 1 .448 1 1s-.448 1-1 1H1c-.552 0-1-.448-1-1s.448-1 1-1z" transform="translate(10 27) rotate(-180 5 5)"/>
                </g>
                <path fill="#000" d="M8 16h14c.552 0 1 .448 1 1s-.448 1-1 1H8c-.552 0-1-.448-1-1s.448-1 1-1z"/>
            </g>
        </g>
    </g>
</svg>
