<svg xmlns="http://www.w3.org/2000/svg" width="64" height="64" viewBox="0 0 64 64">
    <g fill="none" fill-rule="evenodd">
        <g>
            <path d="M0 64L64 64 64 0 0 0z"/>
            <g>
                <g stroke="#000" stroke-linejoin="round" stroke-width="2">
                    <path stroke-linecap="round" d="M30.03 8.258l9.229-3.513c1.121-.427 2.376.136 2.803 1.258l.005.011c.439 1.175-.053 2.493-1.153 3.093l-15.87 8.652c-.789.43-1.724.502-2.569.199l-10.123-3.63c-.681-.244-1.4-.369-2.124-.369l-2.137-.176m0-10.947l4.076-.475c1.175-.172 2.376-.007 3.462.475l5.002 2.22h7.246c1.19 0 2.153.964 2.153 2.154 0 1.189-.964 2.153-2.153 2.153h-8.128c-1.339.15-2.008.87-2.008 2.16" transform="translate(11 9) translate(0 28)"/>
                    <path d="M2 0h4c1.105 0 2 .895 2 2v13c0 1.105-.895 2-2 2H2c-1.105 0-2-.895-2-2V2C0 .895.895 0 2 0z" transform="translate(11 9) translate(0 28)"/>
                </g>
                <g>
                    <path fill-rule="nonzero" stroke="#000" stroke-width="1.8" d="M23.114 0c-1.708 0-3.274.522-4.654 1.552-1.323.988-2.204 2.245-2.723 3.16-.519-.915-1.4-2.172-2.723-3.16C11.634.522 10.068 0 8.36 0 3.594 0 0 3.762 0 8.75c0 5.39 4.484 9.077 11.272 14.659 1.153.947 2.46 2.022 3.818 3.168.179.151.409.234.647.234.239 0 .469-.083.648-.234 1.358-1.146 2.664-2.22 3.818-3.17 6.787-5.58 11.271-9.268 11.271-14.657 0-4.988-3.594-8.75-8.36-8.75z" transform="translate(11 9) translate(6.723)"/>
                    <g fill="#DA0F47" transform="translate(11 9) translate(6.723) translate(10.777 8.996)">
                        <rect width="10" height="2" y="4.004" rx="1"/>
                        <rect width="9.792" height="2" x=".004" y="4" rx=".9" transform="rotate(90 4.9 5)"/>
                    </g>
                </g>
            </g>
        </g>
    </g>
</svg>
