<svg xmlns="http://www.w3.org/2000/svg" width="65" height="64" viewBox="0 0 65 64">
    <g fill="none" fill-rule="evenodd">
        <g stroke="#000" stroke-width="1.5">
            <g>
                <g>
                    <g>
                        <g transform="translate(-903 -1732) translate(128 414) translate(0 1318) translate(775.195)">
                            <rect width="62.5" height="62.5" x=".75" y=".75" rx="31.25"/>
                        </g>
                        <g>
                            <g>
                                <path d="M1.628.75c-.245 0-.468.095-.629.251-.153.149-.249.354-.249.582v34.834c0 .228.096.433.25.582.16.156.383.251.628.251h16.744c.245 0 .468-.095.629-.251.153-.149.249-.354.249-.582V1.583c0-.228-.096-.433-.25-.582-.16-.156-.383-.251-.628-.251H1.628z" transform="translate(-903 -1732) translate(128 414) translate(0 1318) translate(775.195) translate(12 12) translate(10 1)"/>
                                <g stroke-linecap="round" stroke-linejoin="round">
                                    <path d="M5 4c1.105 0 2-.895 2-2s-.895-2-2-2-1.964.592-1.964 1.697M5.015 5.5L5 5.5 10 8.5 0 8.5zM5 4L5 5.5" transform="translate(-903 -1732) translate(128 414) translate(0 1318) translate(775.195) translate(12 12) translate(10 1) translate(5 6)"/>
                                </g>
                            </g>
                        </g>
                    </g>
                </g>
            </g>
        </g>
    </g>
</svg>
