<svg xmlns="http://www.w3.org/2000/svg" width="65" height="64" viewBox="0 0 65 64">
    <g fill="none" fill-rule="evenodd">
        <g stroke="#000" stroke-width="1.5">
            <g>
                <g>
                    <g>
                        <g transform="translate(-387 -1837) translate(128 414) translate(0 1318) translate(259.195 105)">
                            <rect width="62.5" height="62.5" x=".75" y=".75" rx="31.25"/>
                        </g>
                        <g fill-rule="nonzero">
                            <g>
                                <path d="M8.503 18.01h-.37c-2.444 0-3.88 2.367-3.88 4.17v3.485h4.252V18.01h-.002z" transform="translate(-387 -1837) translate(128 414) translate(0 1318) translate(259.195 105) translate(12 12) translate(3 4)"/>
                                <path d="M5.171 25.665h3.334v4.252h-5.88c-.705 0-1.277-.571-1.277-1.276 0-.209.052-.414.15-.599l.134-.251c.696-1.309 2.057-2.127 3.54-2.127zM26.544 16.732c-.951 2.615-2.334 4.62-4.075 6.534-.752.827-1.473 1.374-2.402 1.77-1.494.635-3.38.629-5.031.629H8.505v-5.951c0-1.718.668-3.35 1.881-4.594l5.82-5.805c1.317-1.225 3.74-2.65 6.263-2.65h7.251l-3.176 10.067z" transform="translate(-387 -1837) translate(128 414) translate(0 1318) translate(259.195 105) translate(12 12) translate(3 4)"/>
                                <path d="M24.709 2.182l4.071-.936c.916-.21 1.829.361 2.039 1.277.07.301.055.616-.041.91L29.72 6.665h0-8.215l2.11-3.673c.236-.41.632-.704 1.094-.81zM21.347 24.117c-1.892 1.452-3.312 1.547-5.748 1.547H8.505v4.253h17.414c4.081 0 4.233 0 2.19-2.126l-5.051-5.2c-.73.7-1.3 1.21-1.71 1.526z" transform="translate(-387 -1837) translate(128 414) translate(0 1318) translate(259.195 105) translate(12 12) translate(3 4)"/>
                            </g>
                        </g>
                    </g>
                </g>
            </g>
        </g>
    </g>
</svg>
