<svg id="img_BeerMaker_80" xmlns="http://www.w3.org/2000/svg" width="80" height="80" viewBox="0 0 80 80">
  <g id="ic" transform="translate(10 13)">
    <path id="Path" d="M39.165,0H57a3,3,0,0,1,3,3V45a3,3,0,0,1-3,3H3a3,3,0,0,1-3-3V3A3,3,0,0,1,3,0H20.775" transform="translate(0 5)" fill="none" stroke="#000" stroke-linejoin="round" stroke-miterlimit="10" stroke-width="3"/>
    <g id="Rectangle" transform="translate(12 47)" fill="none" stroke="#000" stroke-linejoin="round" stroke-miterlimit="10" stroke-width="3">
      <path d="M3,0H33a3,3,0,0,1,3,3V4a0,0,0,0,1,0,0H0A0,0,0,0,1,0,4V3A3,3,0,0,1,3,0Z" stroke="none"/>
      <path d="M3-1.5H33A4.5,4.5,0,0,1,37.5,3V4A1.5,1.5,0,0,1,36,5.5H0A1.5,1.5,0,0,1-1.5,4V3A4.5,4.5,0,0,1,3-1.5Z" fill="none"/>
    </g>
    <g id="Rectangle-2" data-name="Rectangle" transform="translate(26)" fill="none" stroke-linejoin="round" stroke-miterlimit="10">
      <path d="M0,25V17H8v8ZM2.8,14,2,0H6L5.2,14Z" stroke="none"/>
      <path d="M 8.000105857849121 25.00020027160645 L 8.000105857849121 17.00009918212891 L 5.623457127512665e-06 17.00009918212891 L 5.623457127512665e-06 25.00020027160645 L 8.000105857849121 25.00020027160645 M 5.20020580291748 14.00040054321289 L 6.00029468536377 1.358032193365943e-07 L 1.999805569648743 1.358032193365943e-07 L 2.79990553855896 14.00040054321289 L 5.20020580291748 14.00040054321289 M 8.000105857849121 28.00020027160645 L 5.623457127512665e-06 28.00020027160645 C -1.656849980354309 28.00020027160645 -2.999994277954102 26.65705490112305 -2.999994277954102 25.00020027160645 L -2.999994277954102 17.00009918212891 C -2.999994277954102 15.41201019287109 -1.766042232513428 14.11213397979736 -0.2046119719743729 14.0069694519043 L -0.9953054785728455 0.1711668074131012 C -1.042394399642944 -0.652855396270752 -0.747916579246521 -1.459877610206604 -0.1811943799257278 -2.059911012649536 C 0.3855389654636383 -2.659955501556396 1.174438953399658 -2.999999761581421 1.999805569648743 -2.999999761581421 L 6.00029468536377 -2.999999761581421 C 6.825661182403564 -2.999999761581421 7.614561080932617 -2.659955501556396 8.181294441223145 -2.059911012649536 C 8.748016357421875 -1.459877610206604 9.042494773864746 -0.652855396270752 8.995405197143555 0.1711668074131012 L 8.204723358154297 14.0069694519043 C 9.766153335571289 14.11213397979736 11.00010585784912 15.41201019287109 11.00010585784912 17.00009918212891 L 11.00010585784912 25.00020027160645 C 11.00010585784912 26.65705490112305 9.656961441040039 28.00020027160645 8.000105857849121 28.00020027160645 Z" stroke="none" fill="#000"/>
    </g>
    <path id="Path-2" data-name="Path" d="M18.089,0H28V40H0V0H10.434" transform="translate(16 5)" fill="none" stroke="#000" stroke-linejoin="round" stroke-miterlimit="10" stroke-width="3"/>
    <path id="Line" d="M1,1V7" transform="translate(29 26)" fill="none" stroke="#000" stroke-linecap="round" stroke-miterlimit="10" stroke-width="3"/>
  </g>
</svg>
