<svg id="img_Dryer_80" xmlns="http://www.w3.org/2000/svg" width="80" height="80" viewBox="0 0 80 80">
  <g id="ic" transform="translate(14 6)">
    <g id="body">
      <path id="Rectangle" d="M0,3.45A3.45,3.45,0,0,1,3.45,0h45.1A3.45,3.45,0,0,1,52,3.45v61.1A3.45,3.45,0,0,1,48.55,68H3.45A3.45,3.45,0,0,1,0,64.55Z" fill="none" stroke="#000" stroke-linecap="round" stroke-linejoin="round" stroke-miterlimit="10" stroke-width="3"/>
      <path id="Stroke_3" data-name="Stroke 3" d="M0,1H48" transform="translate(2 18)" fill="none" stroke="#000" stroke-linecap="round" stroke-linejoin="round" stroke-miterlimit="10" stroke-width="3"/>
    </g>
    <g id="Group_13" data-name="Group 13" transform="translate(6 6)">
      <rect id="Rectangle-2" data-name="Rectangle" width="12" height="3" rx="1.5" transform="translate(28 2)"/>
      <rect id="Rectangle-3" data-name="Rectangle" width="12" height="3" rx="1.5" transform="translate(0 2)"/>
      <path id="Path" d="M3,0A3,3,0,1,0,6,3,3,3,0,0,0,3,0Z" transform="translate(17)"/>
    </g>
    <g id="circle" transform="translate(12 28)">
      <circle id="Oval" cx="15" cy="15" r="15" fill="none" stroke="#000" stroke-linecap="round" stroke-linejoin="round" stroke-miterlimit="10" stroke-width="3"/>
      <path id="Path-2" data-name="Path" d="M0,1S3.823,3,7,1s7,0,7,0" transform="translate(8 18)" fill="none" stroke="#000" stroke-linecap="round" stroke-linejoin="round" stroke-miterlimit="10" stroke-width="3"/>
      <path id="Path-3" data-name="Path" d="M0,1S3.823,3,7,1s7,0,7,0" transform="translate(8 12)" fill="none" stroke="#000" stroke-linecap="round" stroke-linejoin="round" stroke-miterlimit="10" stroke-width="3"/>
    </g>
  </g>
</svg>
