<svg id="img_DishWasher_80" xmlns="http://www.w3.org/2000/svg" width="80" height="80" viewBox="0 0 80 80">
  <g id="ic" transform="translate(12 10)">
    <g id="body">
      <path id="Rectangle" d="M0,3A3,3,0,0,1,3,0H53a3,3,0,0,1,3,3V57a3,3,0,0,1-3,3H3a3,3,0,0,1-3-3Z" fill="none" stroke="#000" stroke-linecap="round" stroke-linejoin="round" stroke-miterlimit="10" stroke-width="3"/>
      <path id="Stroke_3" data-name="Stroke 3" d="M0,1H56" transform="translate(0 6)" fill="none" stroke="#000" stroke-linecap="round" stroke-miterlimit="10" stroke-width="3"/>
      <path id="Stroke_3-2" data-name="Stroke 3" d="M0,1H56" transform="translate(0 18)" fill="none" stroke="#000" stroke-linecap="round" stroke-miterlimit="10" stroke-width="3"/>
      <path id="Stroke_3-3" data-name="Stroke 3" d="M0,1H56" transform="translate(0 52)" fill="none" stroke="#000" stroke-linecap="round" stroke-miterlimit="10" stroke-width="3"/>
    </g>
    <g id="Group_3" data-name="Group 3" transform="translate(20 11)">
      <path id="Path" d="M2,0A2,2,0,1,0,4,2,2,2,0,0,0,2,0Z"/>
      <path id="Path-2" data-name="Path" d="M2,0A2,2,0,1,0,4,2,2,2,0,0,0,2,0Z" transform="translate(6)"/>
      <path id="Path-3" data-name="Path" d="M2,0A2,2,0,1,0,4,2,2,2,0,0,0,2,0Z" transform="translate(12)"/>
    </g>
  </g>
</svg>
