<svg id="img_MassageChair_80" xmlns="http://www.w3.org/2000/svg" width="80" height="80" viewBox="0 0 80 80">
  <g id="ic" transform="translate(7 9)">
    <path id="Path" d="M8.5,0h-.74C2.873,0,0,4.734,0,8.338v6.971H8.505V0Z" transform="translate(7.505 35.02)" fill="none" stroke="#000" stroke-miterlimit="10" stroke-width="3"/>
    <path id="Rectangle" d="M2.262,4.253A8.018,8.018,0,0,1,9.341,0h6.668V8.505H4.247a2.552,2.552,0,0,1-2.253-3.75Z" transform="translate(0.001 50.329)" fill="none" stroke="#000" stroke-miterlimit="10" stroke-width="3"/>
    <path id="Path-2" data-name="Path" d="M36.077,20.134a38.344,38.344,0,0,1-8.15,13.07,13.277,13.277,0,0,1-4.8,3.537C20.137,38.013,16.363,38,13.061,38H0V26.1a13.1,13.1,0,0,1,3.762-9.187L15.4,5.3C18.037,2.85,22.881,0,27.928,0h14.5Z" transform="translate(16.01 12.329)" fill="none" stroke="#000" stroke-miterlimit="10" stroke-width="3"/>
    <path id="Rectangle-2" data-name="Rectangle" d="M4.22,4.84A3.4,3.4,0,0,1,6.408,3.219L14.55,1.348a3.4,3.4,0,0,1,4,4.373l-2.115,6.464H0Z" transform="translate(42.01 0.144)" fill="none" stroke="#000" stroke-miterlimit="10" stroke-width="3"/>
    <path id="Path-3" data-name="Path" d="M25.684,3.052c-3.784,2.9-6.624,3.1-11.5,3.1H0v8.505H34.828c8.162,0,8.465,0,4.381-4.252L29.105,0S26.919,2.1,25.684,3.052Z" transform="translate(16.01 44.182)" fill="none" stroke="#000" stroke-miterlimit="10" stroke-width="3"/>
  </g>
</svg>
