<svg xmlns="http://www.w3.org/2000/svg" width="56" height="56" viewBox="0 0 56 56">
    <path data-name="Subtraction 4" d="M-3831.891-548.13h-.018a.368.368 0 0 1-.3-.139.989.989 0 0 1-.037-.815 945.74 945.74 0 0 1 1.734-6.555 18.411 18.411 0 0 1-6.879-5.659 14.166 14.166 0 0 1-1.927-3.717 12.837 12.837 0 0 1-.682-4.121 13.011 13.011 0 0 1 1.571-6.175 16.179 16.179 0 0 1 4.286-5.042 20.849 20.849 0 0 1 6.357-3.4A24.427 24.427 0 0 1-3820-585a24.426 24.426 0 0 1 7.785 1.247 20.845 20.845 0 0 1 6.357 3.4 16.168 16.168 0 0 1 4.286 5.042 13.006 13.006 0 0 1 1.572 6.175 13.006 13.006 0 0 1-1.572 6.175 16.168 16.168 0 0 1-4.286 5.042 20.847 20.847 0 0 1-6.357 3.4 24.424 24.424 0 0 1-7.785 1.247 25.31 25.31 0 0 1-3.713-.274l-.332.227c-4.65 3.173-7.127 4.862-7.364 5.02a.946.946 0 0 1-.482.169zm22.35-18.956 2.748 3.761a.543.543 0 0 0 .451.215h.022a1.692 1.692 0 0 0 1.295-.882.614.614 0 0 0-.021-.661l-2.918-3.856.038-.041c.6-.654 2.081-2.246 2.725-2.887a.431.431 0 0 0 .031-.491 1.782 1.782 0 0 0-1.213-1.023.312.312 0 0 0-.229.088c-.254.254-1.481 1.485-3.455 3.468l-.088.089c0-.011.028-1.946 0-3.038-.011-.421-.524-.609-1.027-.609a1.381 1.381 0 0 0-.957.313.476.476 0 0 0-.144.354c.015.573-.005 4.471-.017 6.8v.077c0 .886-.008 1.524-.008 1.669 0 .434.554.632 1.069.632a1.62 1.62 0 0 0 .737-.158.539.539 0 0 0 .335-.475v-2.838l.628-.505zm-14.113-5.875a1.191 1.191 0 0 0-1.15.628c-.258.569-.841 2.17-1.459 3.864v.006c-.6 1.637-1.214 3.33-1.52 4.036a.752.752 0 0 0 .068.738 1.359 1.359 0 0 0 1.09.567.774.774 0 0 0 .76-.468l.417-1.464h3.815a.06.06 0 0 0-.005.008c-.019.04-.048.258.38 1.393a.822.822 0 0 0 .819.529 1.358 1.358 0 0 0 1.07-.534.783.783 0 0 0 .092-.748c-.171-.454-.466-1.252-.806-2.176l-.021-.058v-.012c-.8-2.164-1.89-5.128-2.149-5.682a1.558 1.558 0 0 0-1.354-.628zm-3.49 0h-6.34a.938.938 0 0 0-.915 1.024.938.938 0 0 0 .916 1.023h2.086v.363c.007 3.684.007 5.931 0 6.679 0 .5.561.728 1.079.728a1.3 1.3 0 0 0 .908-.309.585.585 0 0 0 .178-.427l.01-7.032h2.074a.961.961 0 0 0 .973-1.025.96.96 0 0 0-.97-1.023zm9.724 0a1.237 1.237 0 0 0-.878.328.875.875 0 0 0-.252.633c0 1.039.007 3.7.011 7.486v.195a1.306 1.306 0 0 0 .214.918.771.771 0 0 0 .615.248c.494 0 1.3 0 2.082-.005h.025c.743 0 1.584-.005 2.078-.005a.631.631 0 0 0 .549-.325 1.368 1.368 0 0 0 .183-.716c0-.506-.231-1.05-.738-1.05-.891 0-2.455-.009-2.76-.01h-.007c0-.017.008-5.412.006-6.74a1.016 1.016 0 0 0-1.129-.953zm-4.924 5.98h-2.418l1.258-3.646 1.16 3.645z" transform="translate(3847.999 595)" style="fill:#666;stroke:transparent;stroke-miterlimit:10"/>
    <path data-name="Rectangle 8" style="fill:none" d="M0 0h56v56H0z"/>
</svg>
