<svg xmlns="http://www.w3.org/2000/svg" width="80" height="80" viewBox="0 0 80 80">
  <defs>
    <style>
      .cls-1 {
        opacity: 0;
      }

      .cls-2 {
        fill: #fff;
        fill-rule: evenodd;
      }
    </style>
  </defs>
  <g id="cate_icon_washers-dryers_w">
    <rect id="icon_area" class="cls-1" width="80" height="80"/>
    <path class="cls-2" d="M177.5,9h-40a4.505,4.505,0,0,0-4.5,4.5v54a4.505,4.505,0,0,0,4.5,4.5h40a4.505,4.505,0,0,0,4.5-4.5v-54A4.505,4.505,0,0,0,177.5,9Zm-40,3h40a1.5,1.5,0,0,1,1.5,1.5v12H136v-12A1.5,1.5,0,0,1,137.5,12Zm40,57h-40a1.5,1.5,0,0,1-1.5-1.5v-39h43v39A1.5,1.5,0,0,1,177.5,69ZM168,20.5h7a1.5,1.5,0,0,0,0-3h-7A1.5,1.5,0,0,0,168,20.5Zm-28,0h7a1.5,1.5,0,0,0,0-3h-7A1.5,1.5,0,0,0,140,20.5Zm17.5,1a3,3,0,1,0-3-3A3,3,0,0,0,157.5,21.5Zm0,13.5A14.5,14.5,0,1,0,172,49.5,14.517,14.517,0,0,0,157.5,35ZM169,49.5a11.418,11.418,0,0,1-.676,3.848L167.1,52.132a2,2,0,0,1-.594-1.422V46.545a2,2,0,0,1,.527-1.353l0.751-.818A11.414,11.414,0,0,1,169,49.5ZM157.5,61a11.5,11.5,0,1,1,8.609-19.1l-2.026,2.035a2,2,0,0,0-.583,1.411v6.333a2,2,0,0,0,.587,1.416l2.9,2.893A11.493,11.493,0,0,1,157.5,61Z" transform="translate(-117)"/>
  </g>
</svg>
