<svg xmlns="http://www.w3.org/2000/svg" width="80" height="80" viewBox="0 0 80 80">
  <defs>
    <style>
      .cls-1 {
        opacity: 0;
      }

      .cls-2 {
        fill: #fff;
        fill-rule: evenodd;
      }
    </style>
  </defs>
  <g id="cate_icon_air-conditioners_w">
    <rect id="icon_area" class="cls-1" width="80" height="80"/>
    <path class="cls-2" d="M657.5,132h-60a3.5,3.5,0,0,0-3.5,3.5v22a3.5,3.5,0,0,0,3.5,3.5H600v3.546a3.467,3.467,0,0,0,2.832,3.38,1.491,1.491,0,0,0,.466.074h48.4a1.436,1.436,0,0,0,.458-0.073,3.465,3.465,0,0,0,2.84-3.381V161h2.5a3.5,3.5,0,0,0,3.5-3.5v-22A3.5,3.5,0,0,0,657.5,132ZM652,164.546a0.513,0.513,0,0,1-.507.45l-0.036,0H603.534l-0.026,0a0.513,0.513,0,0,1-.508-0.451V161h49v3.546Zm6-7.046a0.5,0.5,0,0,1-.5.5h-60a0.5,0.5,0,0,1-.5-0.5v-22a0.5,0.5,0,0,1,.5-0.5h60a0.5,0.5,0,0,1,.5.5v22Zm-4-6h-7a1.5,1.5,0,0,0,0,3h7A1.5,1.5,0,0,0,654,151.5Z" transform="translate(-587 -110)"/>
  </g>
</svg>
