<svg xmlns="http://www.w3.org/2000/svg" width="80" height="80" viewBox="0 0 80 80">
  <defs>
    <style>
      .cls-1 {
        opacity: 0;
      }

      .cls-2 {
        fill: #fff;
        fill-rule: evenodd;
      }
    </style>
  </defs>
  <g id="cate_icon_air-care-solutions_w">
    <rect id="icon_area" class="cls-1" width="80" height="80"/>
    <path class="cls-2" d="M57.468,180H55.385l2.474-3.665c0.012-.018.023-0.034,0.034-0.052a0,0,0,0,0,0,0,1.469,1.469,0,0,0,.2-0.554h0a1.585,1.585,0,0,0,.017-0.247h0v0h0c0-.026,0-0.052,0-0.079l-1.175-17.659a1.271,1.271,0,0,0-.044-0.656L56.037,144.2a4.546,4.546,0,0,0-4.548-4.2h-0.5a13.373,13.373,0,0,0,3.079-8.5,13.672,13.672,0,0,0-27.342,0A13.406,13.406,0,0,0,29.8,140H29.3a4.547,4.547,0,0,0-4.548,4.205L22.677,175.4c0,0.027,0,.053,0,0.079h0v0h0a1.585,1.585,0,0,0,.017.247h0a1.467,1.467,0,0,0,.2.554,0,0,0,0,0,0,0c0.011,0.018.022,0.034,0.034,0.052L25.4,180H23.532a1.5,1.5,0,1,0,0,3H57.468A1.5,1.5,0,1,0,57.468,180ZM26.813,159H53.977l1,15H25.814Zm7.234-19.076a10.634,10.634,0,1,1,12.638.042c-0.462.024-1.4,0.032-2.422,0.034H36.024C35.155,139.99,34.412,139.969,34.047,139.924ZM29.3,143h6.706c0.45,0,.957.007,1.547,0.007l1.509,0,1.335,0H51.489a1.516,1.516,0,0,1,1.516,1.4L53.777,156H27.013l0.772-11.6A1.516,1.516,0,0,1,29.3,143Zm-0.245,37-2.025-3H53.76l-2.025,3H29.056Zm19.488-48.5a8.1,8.1,0,1,0-8.1,8A8.06,8.06,0,0,0,48.544,131.5Zm-13.165,0a5.064,5.064,0,1,1,5.063,5A5.038,5.038,0,0,1,35.379,131.5Z" transform="translate(0 -110)"/>
  </g>
</svg>
