<svg xmlns="http://www.w3.org/2000/svg" xmlns:xlink="http://www.w3.org/1999/xlink" width="65" height="65" viewBox="0 0 65 65">
    <defs>
        <linearGradient id="linear-gradient" x1=".337" x2=".664" y1=".05" y2=".95" gradientUnits="objectBoundingBox">
            <stop offset="0" stop-color="#f38895"/>
            <stop offset=".09" stop-color="#eb7588"/>
            <stop offset=".31" stop-color="#d84869"/>
            <stop offset=".52" stop-color="#ca2752"/>
            <stop offset=".69" stop-color="#c21344"/>
            <stop offset=".8" stop-color="#bf0c3f"/>
            <stop offset="1" stop-color="#bf0c3f"/>
        </linearGradient>
        <linearGradient id="linear-gradient-2" x1=".102" x2=".804" y1=".196" y2=".902" gradientUnits="objectBoundingBox">
            <stop offset="0" stop-color="#cd425c"/>
            <stop offset=".09" stop-color="#be3351"/>
            <stop offset=".25" stop-color="#aa1f43"/>
            <stop offset=".43" stop-color="#9b1039"/>
            <stop offset=".65" stop-color="#930833"/>
            <stop offset="1" stop-color="#900531"/>
        </linearGradient>
        <linearGradient id="linear-gradient-3" x2="1" y1=".5" y2=".5" gradientUnits="objectBoundingBox">
            <stop offset="0" stop-color="#b4bdc3"/>
            <stop offset=".04" stop-color="#aeb7bd"/>
            <stop offset=".5" stop-color="#6c737a"/>
            <stop offset=".83" stop-color="#434950"/>
            <stop offset="1" stop-color="#333940"/>
        </linearGradient>
        <linearGradient id="linear-gradient-4" x2="1" y1=".5" y2=".5" gradientUnits="objectBoundingBox">
            <stop offset="0" stop-color="#b3bbc1"/>
            <stop offset=".08" stop-color="#a6aeb4"/>
            <stop offset=".52" stop-color="#636b70"/>
            <stop offset=".84" stop-color="#3a4246"/>
            <stop offset="1" stop-color="#2a3236"/>
        </linearGradient>
        <linearGradient id="linear-gradient-5" x1=".057" x2=".763" y1=".142" y2=".848" gradientUnits="objectBoundingBox">
            <stop offset="0" stop-color="#abbac2"/>
            <stop offset="1" stop-color="#262a30"/>
        </linearGradient>
        <linearGradient id="linear-gradient-6" x1=".078" x2=".785" y1=".188" y2=".898" gradientUnits="objectBoundingBox">
            <stop offset="0" stop-color="#b4bdc3"/>
            <stop offset="1" stop-color="#3e454d"/>
        </linearGradient>
        <linearGradient id="linear-gradient-7" x1=".985" x2="-.008" y1=".514" y2=".514" gradientUnits="objectBoundingBox">
            <stop offset="0" stop-color="#b4bdc3"/>
            <stop offset="1" stop-color="#485159"/>
        </linearGradient>
        <linearGradient id="linear-gradient-8" y1=".5" y2=".5" xlink:href="#linear-gradient-4"/>
        <radialGradient id="radial-gradient" cx=".474" cy=".493" r=".521" gradientUnits="objectBoundingBox">
            <stop offset="0" stop-color="#bf0c3f"/>
            <stop offset=".5" stop-color="#bf0c3f"/>
            <stop offset=".75" stop-color="#bd0b3e"/>
            <stop offset=".86" stop-color="#b6093a"/>
            <stop offset=".94" stop-color="#a90534"/>
            <stop offset="1" stop-color="#99002c"/>
        </radialGradient>
        <radialGradient id="radial-gradient-2" cx=".297" cy=".288" r=".768" gradientUnits="objectBoundingBox">
            <stop offset="0" stop-color="#fff"/>
            <stop offset=".35" stop-color="#fff"/>
            <stop offset=".51" stop-color="#fbfcfc"/>
            <stop offset=".68" stop-color="#eef2f3"/>
            <stop offset=".85" stop-color="#dae1e5"/>
            <stop offset="1" stop-color="#c0ccd2"/>
        </radialGradient>
        <radialGradient id="radial-gradient-3" cx=".281" cy=".31" r=".781" gradientUnits="objectBoundingBox">
            <stop offset="0" stop-color="#fff"/>
            <stop offset=".35" stop-color="#fff"/>
            <stop offset=".54" stop-color="#fbfcfc"/>
            <stop offset=".73" stop-color="#eef2f4"/>
            <stop offset=".93" stop-color="#dae2e6"/>
            <stop offset="1" stop-color="#d0dadf"/>
        </radialGradient>
        <style>
            .cls-21{fill:#fff}.cls-11{fill:#b4bdc3}
        </style>
    </defs>
    <g id="icon-app-logo" transform="translate(0.5 0.5)">
        <path id="Path_110" fill="#fff" fill-rule="evenodd" stroke="#ddd" d="M64 49.422A14.578 14.578 0 0 1 49.422 64H14.577A14.579 14.579 0 0 1 0 49.422V14.58A14.579 14.579 0 0 1 14.577 0h34.845A14.579 14.579 0 0 1 64 14.58z"/>
        <g id="Group_617" transform="translate(8.25 21.54)">
            <path id="Path_111" fill="#6d6e70" d="M54.325 7.081H51.2V20.6h9.6v-2.628h-6.475zm13.346 8.37h2.544v2.365a7.161 7.161 0 0 1-2.254.358c-2.812 0-3.75-1.43-3.75-4.33 0-2.767.893-4.4 3.705-4.4a3.62 3.62 0 0 1 3.191 1.429l1.943-1.786a6.087 6.087 0 0 0-5.2-2.207c-4.375 0-6.673 2.387-6.673 6.938 0 4.531 2.076 6.986 6.65 6.986a9.949 9.949 0 0 0 5.267-1.316v-6.564H67.67v2.526z" transform="translate(-25.6 -3.44)"/>
            <path id="Path_112" fill="url(#radial-gradient)" d="M10.457 0a10.46 10.46 0 1 0 10.468 10.541v-.163A10.462 10.462 0 0 0 10.457 0z" transform="translate(0 0)"/>
            <path id="Path_113" fill="url(#linear-gradient)" d="M3.89 3.881C.4 7.377.041 12.7 3.111 15.774S11.5 18.491 15 14.993s3.855-8.829.788-11.9A7.3 7.3 0 0 0 10.558 1 9.539 9.539 0 0 0 3.89 3.879" transform="translate(-0.51 -0.502)"/>
            <path id="Path_114" fill="url(#linear-gradient-2)" d="M11.66 16.741l.259-.147V7.757l-.062-.1.063-.019v-.016h.045l.781-.268.14.241a.091.091 0 0 1 .02.066l-.006 8.048h1.9l.153.238a.136.136 0 0 1 .023.1v.813a.06.06 0 0 1-.014.047.061.061 0 0 1-.044.022h-2.91a.281.281 0 0 1-.146-.042l-.2-.144zm9.44-5.168h-6.47v1.036l.16.215a.082.082 0 0 0 .055.022h5.415a7.889 7.889 0 0 1-13.427 5 7.905 7.905 0 0 1-.047-11.105 7.981 7.981 0 0 1 5.625-2.3l.425-.006h.047c.03 0 .055 0 .055-.069v-.848a.167.167 0 0 0-.021-.092l-.191-.24-.431.063-.218.072a8.748 8.748 0 0 0-8.6 9 8.769 8.769 0 0 0 8.9 8.792 8.859 8.859 0 0 0 8.925-8.845v-.51l-.211-.186zM9 7.473a1.4 1.4 0 1 0 1.406 1.4A1.4 1.4 0 0 0 9 7.473z" transform="translate(-1.74 -1.593)"/>
            <path id="Path_115" fill="#626d77" d="M20.054 29.883l-.213.2h3.138l-.2-.208z" transform="translate(-9.92 -14.939)"/>
            <path id="Path_116" fill="#8699a3" d="M23.616 28.43l.2-.2h-2.049l-.243.2z" transform="translate(-10.762 -14.116)"/>
            <path id="Path_117" fill="#8d9aa1" d="M20.925 11.52h-1.084l.2.194h.648z" transform="translate(-9.92 -5.76)"/>
            <path id="Path_118" fill="url(#linear-gradient-3)" d="M21.552 20.058l.226-.183V11.52l-.233.193z" transform="translate(-10.773 -5.76)"/>
            <path id="Path_119" fill="url(#linear-gradient-4)" d="M25.707 28.43v.625l.2.208v-1.032z" transform="translate(-12.854 -14.116)"/>
            <path id="Path_120" d="M19.841 11.52v9.388l.213-.2-.009-8.99z" class="cls-11" transform="translate(-9.92 -5.76)"/>
            <path id="Path_121" fill="none" fill-rule="evenodd" d="M11.914 13.08a1.161 1.161 0 1 0 .342-.822 1.163 1.163 0 0 0-.342.822z" transform="translate(-5.957 -5.96)"/>
            <path id="Path_122" fill="url(#linear-gradient-5)" d="M11.51 12.875a1.363 1.363 0 1 0 .4-.966 1.366 1.366 0 0 0-.4.966zm2.528 0a1.16 1.16 0 1 1-.34-.82 1.163 1.163 0 0 1 .34.82z" transform="translate(-5.755 -5.755)"/>
            <path id="Path_123" fill="#505c61" d="M31.325 21.552l-5.425-.006-.2.212h5.416l.108-.112z" transform="translate(-12.851 -10.773)"/>
            <path id="Path_124" fill="#8f9ca4" d="M25.9 20.108l6.065-.01.2-.206H25.7z" transform="translate(-12.851 -9.946)"/>
            <path id="Path_125" fill="url(#linear-gradient-6)" d="M20.916 12.052v-.511l-.2.206v.305a8.658 8.658 0 1 1-8.663-8.663h.33l.2-.2h-.533a8.913 8.913 0 1 0 8.869 8.868z" transform="translate(-1.595 -1.592)"/>
            <path id="Path_126" fill="url(#linear-gradient-7)" d="M13.1 4.863l-.229-.005h-.215a8.031 8.031 0 1 0 .015 16.063h.208a8.053 8.053 0 0 0 7.908-7.487l.007-.222-.1.094-.108.111a7.825 7.825 0 1 1-7.808-8.352l.528.005-.2-.207z" transform="translate(-2.315 -2.429)"/>
            <path id="Path_127" d="M25.9 20.109l-.2-.215v1.038l.2-.212z" class="cls-11" transform="translate(-12.851 -9.947)"/>
            <path id="Path_128" fill="url(#linear-gradient-8)" d="M21.566 4.029l.2.2V3.188l-.2.2z" transform="translate(-10.783 -1.594)"/>
            <path id="Path_129" fill="url(#radial-gradient-2)" d="M11.736 7.571v9.167h2.915v-.818h-2.08V7.57h-.835zm.305-4.171a8.756 8.756 0 1 0 8.865 8.757v-.4h-6.248v.813h5.418v.118a7.937 7.937 0 1 1-7.919-8.468h.418v-.815c-.083 0-.22 0-.328-.005h-.207z" transform="translate(-1.7 -1.7)"/>
            <path id="Path_130" fill="url(#radial-gradient-3)" d="M11.717 12.985a1.256 1.256 0 1 0 .369-.888 1.257 1.257 0 0 0-.369.888" transform="translate(-5.859 -5.865)"/>
            <path id="Path_131" d="M13.194 11.947a1.252 1.252 0 0 1 .764.267 1.25 1.25 0 1 0-1.758 1.744 1.235 1.235 0 0 1-.264-.756 1.258 1.258 0 0 1 1.258-1.255" class="cls-21" transform="translate(-5.853 -5.856)"/>
            <path id="Path_132" d="M12.571 3.4c-.11 0-.318-.006-.423-.006a8.759 8.759 0 0 0-6.184 14.953c.053.053.108.1.161.155a8.7 8.7 0 0 1-2.418-6.039A8.87 8.87 0 0 1 12.571 3.4m0 12.515a8.48 8.48 0 0 0 2.078.174v-.169h-2.078zm0-8.093v-.254h-.835v9.168S12 15.342 12 7.827h.573zm8.334 3.93h-6.25v.813h.227v-.585c5.444 0 6.021-.227 6.021-.227" class="cls-21" transform="translate(-1.701 -1.699)"/>
            <path id="Path_133" d="M21.188 21.746a.968.968 0 0 1 0 .121 7.934 7.934 0 0 1-15.557 1.6 8.042 8.042 0 0 0 7.769 5.898 7.953 7.953 0 0 0 7.889-7.618h-.1z" class="cls-21" transform="translate(-2.813 -10.873)"/>
        </g>
    </g>
</svg>
