<svg xmlns="http://www.w3.org/2000/svg" width="64" height="64" viewBox="0 0 64 64">
    <g fill="none" fill-rule="evenodd">
        <g stroke="#000" stroke-width="1.5">
            <g>
                <g>
                    <g>
                        <g transform="translate(-467 -3661) translate(128 414) translate(0 3143) translate(339 104)">
                            <rect width="62.5" height="62.5" x=".75" y=".75" rx="31.25"/>
                        </g>
                        <g stroke-linecap="round">
                            <g>
                                <path fill="#DDD6CC" stroke-linejoin="round" d="M1.5 0h13c.828 0 1.5.672 1.5 1.5v33c0 .828-.672 1.5-1.5 1.5h-13C.672 36 0 35.328 0 34.5v-33C0 .672.672 0 1.5 0z" transform="translate(-467 -3661) translate(128 414) translate(0 3143) translate(339 104) translate(12 12) translate(12 2)"/>
                                <path d="M3 1L3 35" transform="translate(-467 -3661) translate(128 414) translate(0 3143) translate(339 104) translate(12 12) translate(12 2)"/>
                            </g>
                        </g>
                    </g>
                </g>
            </g>
        </g>
    </g>
</svg>
