<svg xmlns="http://www.w3.org/2000/svg" width="64" height="64" viewBox="0 0 64 64">
    <g fill="none" fill-rule="evenodd">
        <g stroke="#000" stroke-width="1.5">
            <g>
                <g>
                    <g>
                        <g transform="translate(-128 -2345) translate(128 414) translate(0 1827) translate(0 104)">
                            <rect width="62.5" height="62.5" x=".75" y=".75" rx="31.25"/>
                        </g>
                        <g fill-rule="nonzero" stroke-linecap="round" stroke-linejoin="round">
                            <g>
                                <path d="M21.415.594c0 .065 0 4.62.42 12.156.213 3.799 2.845 7.235 6.502 10.412l7.406 5.6c.159.102.252.27.257.462-.044.77-.32 2.93-.728 4.776l-.506-.284c-.057-.032-3.667-2.914-9.51-5.742-2.741-1.327-4.62-1.327-6.51-1.327-1.888 0-4.189 1.327-6.516 2.39l-7.917 3.655c-.08.041-.161.063-.246.063-.09 0-.18-.025-.263-.07-.65-.425-2.4-1.749-3.804-3.024l.522-.305c.055-.032 3.685-1.418 9.047-5.377C12.926 21.5 16.07 17 16.07 12.485l.556-10.275c.008-.19.106-.354.27-.454C17.588 1.41 19.601.57 21.41 0l.006.594z" transform="translate(-128 -2345) translate(128 414) translate(0 1827) translate(0 104) translate(12 12) translate(2 2.5)"/>
                                <path d="M19 19.5c-1.105 0-2 .895-2 2s.896 2 2 2c1.105 0 2-.895 2-2s-.895-2-2-2h0z" transform="translate(-128 -2345) translate(128 414) translate(0 1827) translate(0 104) translate(12 12) translate(2 2.5)"/>
                            </g>
                        </g>
                    </g>
                </g>
            </g>
        </g>
    </g>
</svg>
