<svg xmlns="http://www.w3.org/2000/svg" width="64" height="64" viewBox="0 0 64 64">
    <g fill="none" fill-rule="evenodd">
        <g stroke="#000" stroke-width="1.5">
            <g>
                <g>
                    <g>
                        <g transform="translate(-128 -3153) translate(128 414) translate(0 2739)">
                            <rect width="62.5" height="62.5" x=".75" y=".75" rx="31.25"/>
                        </g>
                        <g>
                            <g>
                                <path d="M6.038 3.215C3.865 4.893.571 7.591.986 14.227c.408 6.53 1.295 12.196 3.724 15.941 1.052 1.622 4.317 2.945 6.359 3.407 6.81 1.543 13.795.39 15.33-2.946 1.534-3.335-.054-22.792-5.783-27.851-5.729-5.06-12.404-1.241-14.578.437z" transform="translate(-128 -3153) translate(128 414) translate(0 2739) translate(12 12) translate(6 2)"/>
                                <path d="M2.46 24.39c5.769 5.632 13.932 7.216 24.491 4.752" transform="translate(-128 -3153) translate(128 414) translate(0 2739) translate(12 12) translate(6 2) rotate(-1 14.706 27.329)"/>
                                <path d="M1 20c8.08-3.834 16.414-4.912 25-3.234" transform="translate(-128 -3153) translate(128 414) translate(0 2739) translate(12 12) translate(6 2)"/>
                                <path d="M1 16c7.137-4.353 15.137-5.864 24-4.532" transform="translate(-128 -3153) translate(128 414) translate(0 2739) translate(12 12) translate(6 2) rotate(2 13 13.5)"/>
                            </g>
                        </g>
                    </g>
                </g>
            </g>
        </g>
    </g>
</svg>
