<svg id="그룹_3" data-name="그룹 3" xmlns="http://www.w3.org/2000/svg" width="64" height="64" viewBox="0 0 64 64">
  <path id="Rectangle" d="M0,0H64V64H0Z" fill="none"/>
  <g id="GENDER_64" data-name="GENDER 64">
    <path id="Rectangle-61-6" d="M12,12H52l2,40H12Z" fill="none"/>
    <g id="그룹_1" data-name="그룹 1">
      <path id="패스_1" data-name="패스 1" d="M32,.75h0A31.25,31.25,0,0,1,63.25,32h0A31.25,31.25,0,0,1,32,63.25h0A31.25,31.25,0,0,1,.75,32h0A31.25,31.25,0,0,1,32,.75Z" fill="none" stroke="#000" stroke-width="1.5"/>
    </g>
  </g>
  <g id="그룹_2" data-name="그룹 2">
    <g id="패스_2" data-name="패스 2" fill="none" stroke-linecap="round" stroke-linejoin="round">
      <path d="M26.694,31.137v13.53l-.5-.473a13.924,13.924,0,0,1-3.96-6.46L18.971,25.8a9.8,9.8,0,0,0-2.787-4.545L13.462,18.7l5.6,20.108a14.827,14.827,0,0,0,4.191,6.8l6.8,6.39V38.505A10.035,10.035,0,0,0,26.758,31.2Z" stroke="none"/>
      <path d="M 13.46199989318848 18.70000076293945 L 19.05900001525879 38.80800247192383 C 19.76700019836426 41.35000228881836 21.21000099182129 43.69100189208984 23.25 45.60900115966797 L 30.04899978637695 51.99900054931641 L 30.04899978637695 38.50500106811523 C 30.04899978637695 35.79500198364258 28.87300109863281 33.18600082397461 26.75800132751465 31.19800186157227 L 26.69400024414062 31.13700103759766 L 26.69400024414062 44.66699981689453 L 26.19200134277344 44.19400024414062 C 24.25500106811523 42.37400054931641 22.89100074768066 40.14900207519531 22.23200035095215 37.73400115966797 L 18.97100067138672 25.80400085449219 C 18.50699996948242 24.10500335693359 17.54700088500977 22.54000091552734 16.18400001525879 21.25900268554688 L 13.46199989318848 18.70000076293945 M 13.46159744262695 17.19997787475586 C 13.83420944213867 17.19997787475586 14.20373916625977 17.33853530883789 14.48943138122559 17.60712432861328 L 17.2114315032959 20.16612243652344 C 18.77337074279785 21.63409423828125 19.88224029541016 23.44704437255859 20.41801071166992 25.40882110595703 L 23.67892074584961 37.33849334716797 C 23.99934196472168 38.51271820068359 24.51157760620117 39.64155578613281 25.19400024414062 40.68984985351562 L 25.19400024414062 31.13700103759766 C 25.19400024414062 30.5368537902832 25.55172157287598 29.99447250366211 26.10339164733887 29.75817108154297 C 26.65505599975586 29.52185821533203 27.29447937011719 29.63713073730469 27.72891044616699 30.05120086669922 L 27.78896331787109 30.10844039916992 C 30.2137451171875 32.38931274414062 31.54899978637695 35.37103271484375 31.54899978637695 38.50500106811523 L 31.54899978637695 51.99900054931641 C 31.54899978637695 52.59724426269531 31.19351959228516 53.13828277587891 30.64443969726562 53.37576293945312 C 30.09535217285156 53.61323165893555 29.4576530456543 53.50173187255859 29.02173042297363 53.09203338623047 L 22.22273063659668 46.70203399658203 C 19.98727035522461 44.60026168823242 18.3936710357666 42.00979232788086 17.61400032043457 39.21046447753906 L 12.01694107055664 19.10223388671875 C 11.83647155761719 18.45387268066406 12.10993003845215 17.76467132568359 12.68583106994629 17.41643142700195 C 12.92618751525879 17.27108764648438 13.19468879699707 17.19997787475586 13.46159744262695 17.19997787475586 Z" stroke="none" fill="#000"/>
    </g>
    <g id="패스_3" data-name="패스 3" fill="none" stroke-linecap="round" stroke-linejoin="round">
      <path d="M50.427,18.7,37.13,31.2a10.034,10.034,0,0,0-3.29,7.307V52l6.809-6.4a14.828,14.828,0,0,0,4.177-6.779l2.615-9.39L39.1,37.272h2.682l-.088.316A13.322,13.322,0,0,1,40.2,41.111a14.469,14.469,0,0,1-2.326,2.913l-.682.643V39.113a8.751,8.751,0,0,1,2.866-6.369l6.686-6.287a9.815,9.815,0,0,0,2.773-4.5Z" stroke="none"/>
      <path d="M 50.42699813842773 18.70000076293945 L 37.12999725341797 31.19800186157227 C 35.01499938964844 33.18600082397461 33.84000015258789 35.79500198364258 33.84000015258789 38.50500106811523 L 33.84000015258789 51.99900054931641 L 40.64899826049805 45.59900283813477 C 42.68000030517578 43.68700408935547 44.11800003051758 41.35200500488281 44.82600021362305 38.82000350952148 L 47.44099807739258 29.43000411987305 L 39.10199737548828 37.27200317382812 L 41.78400039672852 37.27200317382812 L 41.69599914550781 37.5880012512207 C 41.37199783325195 38.83500289916992 40.86499786376953 40.00800323486328 40.20199966430664 41.11100006103516 C 39.58799743652344 42.13100433349609 38.82600021362305 43.09800338745117 37.87599945068359 44.02400207519531 L 37.19400024414062 44.66699981689453 L 37.19400024414062 39.11300277709961 C 37.19400024414062 36.75100326538086 38.21799850463867 34.47700119018555 40.05999755859375 32.74400329589844 L 46.74599838256836 26.45700073242188 C 48.09600067138672 25.18700408935547 49.05099868774414 23.63800430297852 49.51900100708008 21.95700073242188 L 50.42699813842773 18.70000076293945 M 50.42740631103516 17.19998168945312 C 50.69446182250977 17.19998168945312 50.96304702758789 17.27114486694336 51.20349884033203 17.41663360595703 C 51.77938842773438 17.76506423950195 52.05265808105469 18.45445251464844 51.87189865112305 19.10282135009766 L 50.96389770507812 22.35982131958008 C 50.42387008666992 24.29955291748047 49.32069778442383 26.09430313110352 47.77378845214844 27.54954147338867 L 47.36725997924805 27.93181228637695 C 47.65835952758789 27.91742706298828 47.9544792175293 27.98758316040039 48.21715927124023 28.14642333984375 C 48.79312896728516 28.49470138549805 49.06658935546875 29.18401336669922 48.88600921630859 29.83242416381836 L 46.2710075378418 39.22241973876953 C 45.49023056030273 42.01472473144531 43.90184783935547 44.59685516357422 41.67717742919922 46.69116973876953 L 34.86732864379883 53.09197998046875 C 34.43141555786133 53.501708984375 33.7937126159668 53.61325073242188 33.24459838867188 53.37577056884766 C 32.69548797607422 53.13830184936523 32.34000015258789 52.59725189208984 32.34000015258789 51.99900054931641 L 32.34000015258789 38.50500106811523 C 32.34000015258789 35.36889266967773 33.67626953125 32.38572311401367 36.10265731811523 30.10503387451172 L 49.39968872070312 17.60701370239258 C 49.68535614013672 17.3385124206543 50.05487060546875 17.19998168945312 50.42740631103516 17.19998168945312 Z M 39.71395111083984 38.77200317382812 L 39.10199737548828 38.77200317382812 C 38.96586990356445 38.77200317382812 38.83275985717773 38.75360107421875 38.70560073852539 38.71875762939453 C 38.6978874206543 38.84972381591797 38.69400024414062 38.98123168945312 38.69400024414062 39.11300277709961 L 38.69400024414062 40.69387817382812 C 38.77026748657227 40.57637023925781 38.84450912475586 40.45760726928711 38.9168701171875 40.33740234375 C 39.22333908081055 39.82754898071289 39.48958969116211 39.3044548034668 39.71395111083984 38.77200317382812 Z" stroke="none" fill="#000"/>
    </g>
  </g>
</svg>
