<?xml version="1.0" encoding="utf-8"?>
<!-- Generator: Adobe Illustrator 24.2.0, SVG Export Plug-In . SVG Version: 6.00 Build 0)  -->
<svg version="1.1" id="img_식물생활가전_64" xmlns="http://www.w3.org/2000/svg" xmlns:xlink="http://www.w3.org/1999/xlink"
	 x="0px" y="0px" viewBox="0 0 64 64" style="enable-background:new 0 0 64 64;" xml:space="preserve">
<style type="text/css">
	.st0{fill:#FFFFFF;}
	.st1{fill:#EEE6DA;stroke:#000000;stroke-width:1.5;}
	.st2{fill:#DDDDDD;}
	.st3{fill:none;stroke:#000000;stroke-width:1.5;stroke-linecap:round;}
	.st4{fill:#5B7D83;stroke:#000000;stroke-width:1.5;stroke-linecap:round;stroke-linejoin:round;stroke-miterlimit:10;}
	.st5{fill:#5B7D83;stroke:#000000;stroke-width:1.5;stroke-linecap:round;}
	.st6{fill:none;}
	.st7{fill:none;stroke:#000000;stroke-width:1.5;stroke-miterlimit:10;}
</style>
<g id="Rectangle_18" transform="translate(-1.075)">
	<path class="st0" d="M21.1,13h24c1.1,0,2,0.9,2,2v34c0,1.1-0.9,2-2,2h-24c-1.1,0-2-0.9-2-2V15C19.1,13.9,20,13,21.1,13z"/>
	<path class="st1" d="M21.1,13.8h24c0.7,0,1.3,0.6,1.3,1.3v34c0,0.7-0.6,1.3-1.3,1.3h-24c-0.7,0-1.3-0.6-1.3-1.3V15
		C19.8,14.3,20.4,13.8,21.1,13.8z"/>
</g>
<g id="Rectangle_19" transform="translate(1.925 4)">
	<path class="st2" d="M21.1,13h18c1.1,0,2,0.9,2,2v20c0,1.1-0.9,2-2,2h-18c-1.1,0-2-0.9-2-2V15C19.1,13.9,20,13,21.1,13z"/>
	<path class="st1" d="M21.1,13.8h18c0.7,0,1.3,0.6,1.3,1.3v20c0,0.7-0.6,1.3-1.3,1.3h-18c-0.7,0-1.3-0.6-1.3-1.3V15
		C19.8,14.3,20.4,13.8,21.1,13.8z"/>
</g>
<path id="Path_109" class="st3" d="M22.5,29h19"/>
<path id="Path_112" class="st3" d="M19.5,43.6h25"/>
<path id="Path_114" class="st3" d="M22.1,47h20"/>
<g id="Group_613" transform="translate(-10.892 -10.641)">
	<path id="Path_115" class="st4" d="M38.8,31.6c0,0-1,5,4,5.7C42.8,37.3,44.2,32.5,38.8,31.6z"/>
	<path id="Path_116" class="st4" d="M47.2,31.7c0,0,1,5-4,5.7C43.1,37.4,41.7,32.5,47.2,31.7z"/>
	<path id="Path_117" class="st5" d="M43,35.6V39"/>
</g>
<g id="Group_615" transform="translate(-10.892 .359)">
	<path id="Path_115-2" class="st4" d="M38.8,31.6c0,0-1,5,4,5.7C42.8,37.3,44.2,32.5,38.8,31.6z"/>
	<path id="Path_116-2" class="st4" d="M47.2,31.7c0,0,1,5-4,5.7C43.1,37.4,41.7,32.5,47.2,31.7z"/>
	<path id="Path_117-2" class="st5" d="M43,35.6V39"/>
</g>
<path id="Rectangle" class="st6" d="M12,12h40v40H12V12z"/>
<g id="Rectangle-2">
	<path class="st6" d="M32,0L32,0c17.7,0,32,14.3,32,32l0,0c0,17.7-14.3,32-32,32l0,0C14.3,64,0,49.7,0,32l0,0C0,14.3,14.3,0,32,0z"
		/>
	<path class="st7" d="M32,0.8L32,0.8c17.3,0,31.3,14,31.3,31.3l0,0c0,17.3-14,31.3-31.3,31.3l0,0c-17.3,0-31.3-14-31.3-31.3l0,0
		C0.8,14.7,14.7,0.8,32,0.8z"/>
</g>
</svg>
