<?xml version="1.0" encoding="utf-8"?>
<!-- Generator: Adobe Illustrator 26.0.1, SVG Export Plug-In . SVG Version: 6.00 Build 0)  -->
<svg version="1.1" id="레이어_1" xmlns="http://www.w3.org/2000/svg" xmlns:xlink="http://www.w3.org/1999/xlink" x="0px"
	 y="0px" viewBox="0 0 64 64" style="enable-background:new 0 0 64 64;" xml:space="preserve">
<style type="text/css">
	.st0{fill:none;}
	.st1{fill:none;stroke:#000000;stroke-width:1.5;stroke-miterlimit:10;}
</style>
<rect y="0" class="st0" width="64" height="64"/>
<path d="M32,1.5c16.8,0,30.5,13.7,30.5,30.5S48.8,62.5,32,62.5S1.5,48.8,1.5,32C1.5,15.2,15.2,1.5,32,1.5 M32,0C14.3,0,0,14.3,0,32
	s14.3,32,32,32s32-14.3,32-32S49.7,0,32,0z"/>
<g>
	<path class="st1" d="M48,22.4v19.2c0,0.3-0.3,0.5-0.6,0.5c-4.3-1-9.6-1.7-15.4-1.7c-5.8,0-11.1,0.6-15.4,1.7
		c-0.3,0.1-0.6-0.2-0.6-0.5V22.4c0-0.3,0.3-0.5,0.6-0.5c4.3,1,9.6,1.7,15.4,1.7c5.8,0,11.1-0.6,15.4-1.7C47.7,21.9,48,22.1,48,22.4z
		"/>
	<polyline class="st1" points="16,31.9 26.3,31.9 37.7,31.9 48,31.9 	"/>
	<g>
		<polyline class="st1" points="26.3,23.4 26.3,31.9 26.3,40.6 		"/>
		<polyline class="st1" points="37.7,23.4 37.7,31.9 37.7,40.6 		"/>
	</g>
</g>
</svg>
