<?xml version="1.0" encoding="utf-8"?>
<!-- Generator: Adobe Illustrator 24.2.0, SVG Export Plug-In . SVG Version: 6.00 Build 0)  -->
<svg version="1.1" id="Layer_1" xmlns="http://www.w3.org/2000/svg" xmlns:xlink="http://www.w3.org/1999/xlink" x="0px" y="0px"
	 viewBox="0 0 64 64" style="enable-background:new 0 0 64 64;" xml:space="preserve">
<style type="text/css">
	.st0{fill:none;stroke:#000000;stroke-width:1.5;}
	.st1{fill:none;stroke:#000000;stroke-width:1.5;stroke-linecap:round;stroke-linejoin:round;}
	.st2{fill:none;stroke:#000000;stroke-width:1.5;stroke-linecap:round;}
</style>
<g transform="translate(-467 -3557) translate(128 414) translate(0 3143) translate(339)">
	<path class="st0" d="M32,0.8L32,0.8c17.3,0,31.3,14,31.3,31.3l0,0c0,17.3-14,31.3-31.3,31.3l0,0c-17.3,0-31.3-14-31.3-31.3l0,0
		C0.8,14.7,14.7,0.8,32,0.8z"/>
</g>
<g>
	<g>
		<g>
			<path class="st1" d="M25.5,15v34c0,0.8-0.7,1.5-1.5,1.5H14c-0.8,0-1.5-0.7-1.5-1.5V15c0-0.8,0.7-1.5,1.5-1.5h10
				C24.8,13.5,25.5,14.2,25.5,15z"/>
			<path class="st2" d="M22.5,31.5v-5"/>
		</g>
	</g>
	<g>
		<g>
			<path class="st1" d="M27,13.5h10c0.8,0,1.5,0.7,1.5,1.5v34c0,0.8-0.7,1.5-1.5,1.5H27c-0.8,0-1.5-0.7-1.5-1.5V15
				C25.5,14.2,26.2,13.5,27,13.5z"/>
			<path class="st2" d="M28.5,26.5v5"/>
		</g>
	</g>
	<g>
		<g>
			<path class="st1" d="M40,13.5h10c0.8,0,1.5,0.7,1.5,1.5v34c0,0.8-0.7,1.5-1.5,1.5H40c-0.8,0-1.5-0.7-1.5-1.5V15
				C38.5,14.2,39.2,13.5,40,13.5z"/>
			<path class="st2" d="M41.5,26.5v5"/>
		</g>
	</g>
</g>
</svg>
