<svg xmlns="http://www.w3.org/2000/svg" width="64" height="64" viewBox="0 0 64 64">
    <g fill="none" fill-rule="evenodd">
        <g>
            <g>
                <g>
                    <g>
                        <g stroke="#000" stroke-width="1.5" transform="translate(-387 -2241) translate(128 414) translate(0 1827) translate(259)">
                            <rect width="62.5" height="62.5" x=".75" y=".75" rx="31.25"/>
                        </g>
                        <g>
                            <g transform="translate(-387 -2241) translate(128 414) translate(0 1827) translate(259) translate(12 12) translate(3 3)">
                                <rect width="32.5" height="32.5" x=".75" y=".75" stroke="#000" stroke-width="1.5" rx="1.5"/>
                                <g fill="#000">
                                    <path d="M7.591 6H6.409C6.183 6 6 6.184 6 6.408v1.181c0 .227.183.411.409.411h1.182C7.817 8 8 7.816 8 7.59V6.407C8 6.184 7.817 6 7.591 6zM10.587 6H9.413C9.185 6 9 6.185 9 6.413V7.59c0 .228.185.41.413.41h1.174c.228 0 .413-.185.413-.41V6.413c-.003-.228-.185-.413-.413-.413zM4.59 6H3.413C3.185 6 3 6.185 3 6.413V7.59c0 .228.185.41.413.41H4.59c.228 0 .41-.185.41-.41V6.413C5.003 6.185 4.818 6 4.59 6zM13.587 6H12.41c-.228 0-.41.185-.41.413V7.59c0 .228.185.41.41.41h1.177c.228 0 .413-.185.413-.41V6.413c-.003-.228-.185-.413-.413-.413zM1.595 6H.408C.183 6 0 6.185 0 6.413V7.59c0 .228.183.41.408.41h1.187C1.82 8 2 7.815 2 7.59V6.413C2.003 6.185 1.82 6 1.595 6zM7.591 9H6.409C6.183 9 6 9.182 6 9.407v1.186c0 .225.183.407.409.407h1.182c.226 0 .409-.182.409-.407V9.407C8 9.18 7.817 9 7.591 9zM10.587 9H9.413C9.185 9 9 9.183 9 9.409v1.185c0 .225.185.406.413.406h1.174c.228 0 .413-.183.413-.406V9.409c-.003-.226-.185-.409-.413-.409zM4.59 9H3.413C3.185 9 3 9.183 3 9.409v1.185c0 .225.185.406.413.406H4.59c.228 0 .41-.183.41-.406V9.409C5.003 9.183 4.818 9 4.59 9zM13.587 9H12.41c-.228 0-.41.183-.41.409v1.185c0 .225.185.406.41.406h1.177c.228 0 .413-.183.413-.406V9.409c-.003-.226-.185-.409-.413-.409zM1.595 9H.408C.183 9 0 9.183 0 9.409v1.185c0 .225.183.406.408.406h1.187c.225 0 .405-.183.405-.406V9.409C2.003 9.183 1.82 9 1.595 9zM7.591 12H6.409c-.226 0-.409.182-.409.407v1.186c0 .225.183.407.409.407h1.182c.226 0 .409-.182.409-.407v-1.186c0-.225-.183-.407-.409-.407zM10.587 12H9.413c-.228 0-.413.184-.413.407v1.186c0 .226.185.407.413.407h1.174c.228 0 .413-.184.413-.407v-1.186c-.003-.223-.185-.407-.413-.407zM4.59 12H3.413c-.228 0-.413.184-.413.407v1.186c0 .226.185.407.413.407H4.59c.228 0 .41-.184.41-.407v-1.186c.003-.223-.182-.407-.41-.407zM7.591 3H6.409C6.183 3 6 3.183 6 3.405v1.19c0 .225.183.405.409.405h1.182C7.817 5 8 4.817 8 4.595v-1.19C8 3.183 7.817 3 7.591 3zM10.587 3H9.413C9.185 3 9 3.184 9 3.407v1.186c0 .226.185.407.413.407h1.174c.228 0 .413-.184.413-.407V3.407C10.997 3.18 10.815 3 10.587 3zM4.59 3H3.413C3.185 3 3 3.184 3 3.407v1.186c0 .226.185.407.413.407H4.59c.228 0 .41-.184.41-.407V3.407C5.003 3.18 4.818 3 4.59 3zM13.587 3H12.41c-.228 0-.41.184-.41.407v1.186c0 .226.185.407.41.407h1.177c.228 0 .413-.184.413-.407V3.407C13.997 3.18 13.815 3 13.587 3zM1.595 3H.408C.183 3 0 3.184 0 3.407v1.186C0 4.82.183 5 .408 5h1.187C1.82 5 2 4.816 2 4.593V3.407C2.003 3.18 1.82 3 1.595 3zM7.591 0H6.409C6.183 0 6 .183 6 .405v1.19c0 .225.183.405.409.405h1.182C7.817 2 8 1.817 8 1.595V.405C8 .183 7.817 0 7.591 0zM10.587 0H9.413C9.185 0 9 .184 9 .407v1.186c0 .226.185.407.413.407h1.174c.228 0 .413-.184.413-.407V.407C10.997.184 10.815 0 10.587 0zM4.59 0H3.413C3.185 0 3 .184 3 .407v1.186c0 .226.185.407.413.407H4.59c.228 0 .41-.184.41-.407V.407C5.003.184 4.818 0 4.59 0zM1.597 0H1.27C.57 0 0 .585 0 1.288v.305C0 1.82.183 2 .406 2h1.188C1.82 2 2 1.816 2 1.593V.407C2.003.184 1.82 0 1.597 0zM12.714 0h-.304c-.228 0-.41.184-.41.407v1.186c0 .226.185.407.413.407h1.177c.228 0 .41-.184.41-.407v-.305C13.997.588 13.422 0 12.714 0zM13.587 12H12.41c-.228 0-.41.184-.41.407v1.186c0 .226.185.407.413.407h.304c.708 0 1.283-.667 1.283-1.37v-.223c0-.223-.185-.407-.413-.407zM1.592 12H.405C.18 12 0 12.184 0 12.407v.223C0 13.333.568 14 1.269 14h.326c.225 0 .405-.184.405-.407v-1.186c-.003-.223-.186-.407-.408-.407z" transform="translate(10 10)"/>
                                </g>
                                <path fill="#000" d="M29 4c-.553 0-1 .448-1 1s.447 1 1 1c.553 0 1-.448 1-1 0-.55-.45-1-1-1z"/>
                                <path stroke="#000" stroke-width="1.5" d="M26 5c0 .828-.604 1.5-1.35 1.5H9.35C8.604 6.5 8 5.828 8 5M26 29c0-.828-.604-1.5-1.35-1.5H9.35C8.604 27.5 8 28.172 8 29M5 26c.828 0 1.5-.604 1.5-1.35V9.35C6.5 8.604 5.828 8 5 8M29 26c-.828 0-1.5-.604-1.5-1.35V9.35c0-.746.672-1.35 1.5-1.35"/>
                            </g>
                        </g>
                    </g>
                </g>
            </g>
        </g>
    </g>
</svg>
