<svg xmlns="http://www.w3.org/2000/svg" width="64" height="64" viewBox="0 0 64 64">
    <g fill="none" fill-rule="evenodd">
        <g>
            <g>
                <g>
                    <g>
                        <g stroke="#000" stroke-width="1.5" transform="translate(-387 -818) translate(128 414) translate(0 404) translate(259)">
                            <rect width="62.5" height="62.5" x=".75" y=".75" rx="31.25"/>
                        </g>
                        <g>
                            <g>
                                <g stroke="#000" stroke-linecap="round" stroke-linejoin="round" stroke-width="1.5">
                                    <path d="M1.5.219h20c.828 0 1.5.671 1.5 1.5v10c0 .828-.672 1.5-1.5 1.5h-20c-.828 0-1.5-.672-1.5-1.5v-10C0 .89.672.219 1.5.219zM7 17.5L11.528 16.5 16 17.5M11.5 13.5L11.5 16.5" transform="translate(-387 -818) translate(128 414) translate(0 404) translate(259) translate(12 12) translate(3 8) translate(0 6)"/>
                                </g>
                                <g transform="translate(-387 -818) translate(128 414) translate(0 404) translate(259) translate(12 12) translate(3 8) translate(19)">
                                    <path stroke="#000" stroke-linecap="round" stroke-linejoin="round" stroke-width="1.5" d="M0 5.408V1.031C0 .461.517 0 1.155 0h11.69C13.483 0 14 .462 14 1.031V20.97c0 .57-.517 1.031-1.155 1.031H1.155C.517 22 0 21.538 0 20.969v-1.537"/>
                                    <circle cx="7.5" cy="18" r="1" fill="#000"/>
                                    <path stroke="#000" stroke-linecap="square" stroke-width="1.5" d="M4.875 7.875L13.875 7.875"/>
                                    <path stroke="#000" stroke-linecap="round" stroke-width="1.5" d="M12 22L12 24M2 22L2 24"/>
                                </g>
                            </g>
                        </g>
                    </g>
                </g>
            </g>
        </g>
    </g>
</svg>
