<svg xmlns="http://www.w3.org/2000/svg" width="64" height="64" viewBox="0 0 64 64">
    <g fill="none" fill-rule="evenodd">
        <g>
            <g>
                <g>
                    <g>
                        <g stroke="#000" stroke-width="1.5" transform="translate(-467 -4363) translate(128 414) translate(0 3741) translate(339 208)">
                            <rect width="62.5" height="62.5" x=".75" y=".75" rx="31.25"/>
                        </g>
                        <g>
                            <g>
                                <g stroke="#000" stroke-linecap="round" stroke-linejoin="round" stroke-width="1.5">
                                    <path fill="#EEE6DA" d="M5.5 0C4.672 0 4 .672 4 1.5h0v10c0 .828.672 1.5 1.5 1.5h3c.828 0 1.5-.672 1.5-1.5h0v-10C10 .672 9.328 0 8.5 0h4c.828 0 1.5.672 1.5 1.5V3h-.5v4h.5v24.5c0 .828-.672 1.5-1.5 1.5h-11C.672 33 0 32.328 0 31.5V7h.5V3H0V1.5C0 .672.672 0 1.5 0z" transform="translate(-467 -4363) translate(128 414) translate(0 3741) translate(339 208) translate(25 13) translate(0 2)"/>
                                    <g fill-rule="nonzero">
                                        <g>
                                            <path d="M0 1L3 1M9 1L12 1M0 5L3 5M9 5L12 5" transform="translate(-467 -4363) translate(128 414) translate(0 3741) translate(339 208) translate(25 13) translate(0 2) translate(1 1.5) translate(0 .5)"/>
                                        </g>
                                    </g>
                                </g>
                                <path fill="#FDF5E8" stroke="#000" stroke-width="1.5" d="M5.5 1h3c.828 0 1.5.672 1.5 1.5v11c0 .828-.672 1.5-1.5 1.5h-3c-.828 0-1.5-.672-1.5-1.5v-11C4 1.672 4.672 1 5.5 1z" transform="translate(-467 -4363) translate(128 414) translate(0 3741) translate(339 208) translate(25 13)"/>
                                <path fill="#000" fill-rule="nonzero" d="M5 0h4c.552 0 1 .448 1 1s-.448 1-1 1H5c-.552 0-1-.448-1-1s.448-1 1-1z" transform="translate(-467 -4363) translate(128 414) translate(0 3741) translate(339 208) translate(25 13)"/>
                                <path stroke="#000" stroke-linecap="round" stroke-linejoin="round" stroke-width="1.5" d="M7 15L7 18" transform="translate(-467 -4363) translate(128 414) translate(0 3741) translate(339 208) translate(25 13)"/>
                            </g>
                        </g>
                    </g>
                </g>
            </g>
        </g>
    </g>
</svg>
