<svg xmlns="http://www.w3.org/2000/svg" width="65" height="64" viewBox="0 0 65 64">
    <g fill="none" fill-rule="evenodd">
        <g stroke="#000" stroke-width="1.5">
            <g>
                <g>
                    <g>
                        <g>
                            <g transform="translate(-1062 -1328) translate(128 414) translate(0 809) translate(934.195 105)">
                                <rect width="62.5" height="62.5" x=".75" y=".75" rx="31.25"/>
                            </g>
                            <g stroke-linecap="round" stroke-linejoin="round">
                                <g>
                                    <path d="M9.5 0h13c.828 0 1.5.672 1.5 1.5V24c0 .828-.672 1.5-1.5 1.5h-13c-.828 0-1.5-.672-1.5-1.5V1.5C8 .672 8.672 0 9.5 0zM.5 0h3C4.328 0 5 .672 5 1.5v23c0 .828-.672 1.5-1.5 1.5h-3" transform="translate(-1062 -1328) translate(128 414) translate(0 809) translate(934.195 105) translate(12 12) translate(4 7)"/>
                                    <path d="M27 0h3c.828 0 1.5.672 1.5 1.5v23c0 .828-.672 1.5-1.5 1.5h-3" transform="translate(-1062 -1328) translate(128 414) translate(0 809) translate(934.195 105) translate(12 12) translate(4 7) matrix(-1 0 0 1 58.5 0)"/>
                                    <path d="M19.3 3.5h1.4c.442 0 .8.358.8.8v6.4c0 .442-.358.8-.8.8h-1.4c-.442 0-.8-.358-.8-.8V4.3c0-.442.358-.8.8-.8z" transform="translate(-1062 -1328) translate(128 414) translate(0 809) translate(934.195 105) translate(12 12) translate(4 7)"/>
                                    <g>
                                        <path d="M0 14.4L16 14.4M8 25.6L8 .6" transform="translate(-1062 -1328) translate(128 414) translate(0 809) translate(934.195 105) translate(12 12) translate(4 7) translate(8)"/>
                                    </g>
                                </g>
                            </g>
                        </g>
                    </g>
                </g>
            </g>
        </g>
    </g>
</svg>
