<svg xmlns="http://www.w3.org/2000/svg" width="64" height="64" viewBox="0 0 64 64">
    <g fill="none" fill-rule="evenodd">
        <g>
            <g>
                <g>
                    <g>
                        <g stroke="#000" stroke-width="1.5" transform="translate(-128 -1733) translate(128 414) translate(0 1318) translate(0 1)">
                            <rect width="62.5" height="62.5" x=".75" y=".75" rx="31.25"/>
                        </g>
                        <g>
                            <g>
                                <g stroke="#000" stroke-width="1.5">
                                    <path d="M22.275.75H1.725c-.27 0-.513.11-.69.286-.176.176-.285.42-.285.689v34.55c0 .27.11.513.286.69.176.176.42.285.689.285h20.55c.27 0 .513-.11.69-.286.176-.176.285-.42.285-.689V1.725c0-.27-.11-.513-.286-.69-.176-.176-.42-.285-.689-.285z" transform="translate(-128 -1733) translate(128 414) translate(0 1318) translate(0 1) translate(12.195 12) translate(8 1)"/>
                                </g>
                                <g fill="#000" transform="translate(-128 -1733) translate(128 414) translate(0 1318) translate(0 1) translate(12.195 12) translate(8 1) translate(0 17.5)">
                                    <rect width="8" height="1.5" x="16" y=".3" rx=".75"/>
                                    <rect width="8" height="1.5" y=".3" rx=".75"/>
                                    <path fill-rule="nonzero" d="M12 0c-.552 0-1 .448-1 1s.448 1 1 1 1-.448 1-1-.448-1-1-1z"/>
                                </g>
                                <g transform="translate(-128 -1733) translate(128 414) translate(0 1318) translate(0 1) translate(12.195 12) translate(8 1) translate(7 23)">
                                    <circle cx="5" cy="5" r="5" stroke="#000" stroke-linecap="round" stroke-linejoin="round" stroke-width="1.5"/>
                                    <path fill="#000" fill-rule="nonzero" d="M7.923 3.628L9 2.748 8.001 2 6.458 3.162C6.17 3.38 6 3.72 6 4.082v1.844c0 .362.17.703.46.92L8.002 8 9 7.252l-1.035-.768c-.293-.216-.465-.56-.465-.923V4.519c0-.345.155-.672.423-.89z"/>
                                </g>
                                <g transform="translate(-128 -1733) translate(128 414) translate(0 1318) translate(0 1) translate(12.195 12) translate(8 1) translate(7 5)">
                                    <circle cx="5" cy="5" r="5" stroke="#000" stroke-linecap="round" stroke-linejoin="round" stroke-width="1.5"/>
                                    <path fill="#000" fill-rule="nonzero" d="M7.923 3.628L9 2.748 8.001 2 6.458 3.162C6.17 3.38 6 3.72 6 4.082v1.844c0 .362.17.703.46.92L8.002 8 9 7.252l-1.035-.768c-.293-.216-.465-.56-.465-.923V4.519c0-.345.155-.672.423-.89z"/>
                                </g>
                            </g>
                        </g>
                    </g>
                </g>
            </g>
        </g>
    </g>
</svg>
